<svg width="149" height="149" viewBox="0 0 149 149" fill="none" xmlns="http://www.w3.org/2000/svg">
<path d="M149 113.955H0V114.029H149V113.955Z" fill="#EBEBEB"/>
<path d="M134.07 118.751H124.2V118.826H134.07V118.751Z" fill="#EBEBEB"/>
<path d="M98.7035 119.56H96.113V119.635H98.7035V119.56Z" fill="#EBEBEB"/>
<path d="M123.902 115.984H118.183V116.059H123.902V115.984Z" fill="#EBEBEB"/>
<path d="M28.5043 116.485H15.6328V116.559H28.5043V116.485Z" fill="#EBEBEB"/>
<path d="M33.0449 116.485H31.1577V116.559H33.0449V116.485Z" fill="#EBEBEB"/>
<path d="M67.0938 117.743H39.1783V117.818H67.0938V117.743Z" fill="#EBEBEB"/>
<path d="M70.6302 100.664H13.0867C12.1489 100.664 11.3857 99.9013 11.3857 98.9635V18.0767C11.3857 17.1389 12.1489 16.3757 13.0867 16.3757H70.6302C71.5677 16.3757 72.3309 17.1389 72.3309 18.0767V98.9635C72.3309 99.9013 71.5677 100.664 70.6302 100.664ZM13.0867 16.4505C12.1897 16.4505 11.4602 17.18 11.4602 18.077V98.9638C11.4602 99.8607 12.1897 100.59 13.0867 100.59H70.6302C71.5269 100.59 72.2564 99.8607 72.2564 98.9638V18.0767C72.2564 17.18 71.5269 16.4502 70.6302 16.4502L13.0867 16.4505Z" fill="#EBEBEB"/>
<path d="M135.086 100.664H77.5432C76.6054 100.664 75.8425 99.9013 75.8425 98.9635V18.0767C75.8425 17.1389 76.6057 16.3757 77.5432 16.3757H135.086C136.024 16.3757 136.787 17.1389 136.787 18.0767V98.9635C136.788 99.9013 136.024 100.664 135.086 100.664ZM77.5432 16.4505C76.6465 16.4505 75.917 17.18 75.917 18.077V98.9638C75.917 99.8607 76.6465 100.59 77.5432 100.59H135.086C135.983 100.59 136.713 99.8607 136.713 98.9638V18.0767C136.713 17.18 135.983 16.4502 135.086 16.4502L77.5432 16.4505Z" fill="#EBEBEB"/>
<path d="M43.7646 86.5964H22.5461V113.118H43.7646C45.8169 113.118 47.4958 111.439 47.4958 109.387V90.328C47.4958 88.2757 45.8166 86.5964 43.7646 86.5964Z" fill="#F0F0F0"/>
<path d="M22.7216 86.5964H22.3703C20.3179 86.5964 18.639 88.2754 18.639 90.3277V109.386C18.639 111.439 20.3179 113.118 22.3703 113.118H22.7216C24.7739 113.118 26.4529 111.438 26.4529 109.386V90.3277C26.4529 88.2757 24.7739 86.5964 22.7216 86.5964Z" fill="#F5F5F5"/>
<path d="M25.3869 113.118H53.0803V96.3787H25.3869L25.3869 113.118Z" fill="#F0F0F0"/>
<path d="M23.1123 113.955H73.0237C73.4463 113.955 73.789 113.612 73.789 113.19V113.118H43.7753L22.3473 113.19C22.3473 113.612 22.6897 113.955 23.1123 113.955Z" fill="#E0E0E0"/>
<path d="M44.9733 75.5928H70.7398C73.6138 75.5928 75.7391 77.9225 75.4873 80.7964L73.789 100.163H37.6151L39.3134 80.7964C39.5655 77.9225 42.0994 75.5928 44.9733 75.5928Z" fill="#E0E0E0"/>
<path d="M40.9026 75.5928H67.1707C69.906 75.5928 71.9292 77.8102 71.6893 80.5455L69.9689 100.163H33.7953L35.5156 80.5455C35.7552 77.8102 38.1672 75.5928 40.9026 75.5928Z" fill="#F5F5F5"/>
<path d="M27.6067 94.8503H49.5425C50.84 94.8503 51.8919 95.9023 51.8919 97.1998V99.318C51.8919 100.615 50.84 101.667 49.5425 101.667H27.6067C25.7243 101.667 24.1982 100.141 24.1982 98.2589C24.1982 96.3764 25.7243 94.8503 27.6067 94.8503Z" fill="#E0E0E0"/>
<path d="M74.4195 86.5964H53.201V113.118H74.4195C76.4719 113.118 78.1508 111.439 78.1508 109.387V90.328C78.1508 88.2757 76.4719 86.5964 74.4195 86.5964Z" fill="#F0F0F0"/>
<path d="M53.3769 86.5964H53.0255C50.9732 86.5964 49.2943 88.2754 49.2943 90.3277V109.386C49.2943 111.439 50.9735 113.118 53.0255 113.118H53.3769C55.4292 113.118 57.1081 111.438 57.1081 109.386V90.3277C57.1081 88.2757 55.4289 86.5964 53.3769 86.5964Z" fill="#F5F5F5"/>
<path d="M111.754 72.0171H91.3549V113.955H111.754V72.0171Z" fill="#F0F0F0"/>
<path d="M94.4045 110.688V75.2834H93.9342V110.688H94.4045Z" fill="#E6E6E6"/>
<path d="M108.745 75.2837H93.934V75.8794H108.745V75.2837Z" fill="#E6E6E6"/>
<path d="M132.624 72.0168H112.225V113.955H132.624V72.0168Z" fill="#F0F0F0"/>
<path d="M132.624 113.955H135.324V72.0167H132.624V113.955Z" fill="#E0E0E0"/>
<path d="M115.274 110.688V75.2832H114.804V110.688H115.274Z" fill="#E6E6E6"/>
<path d="M112.224 113.955L112.224 72.4932H111.754L111.754 113.955H112.224Z" fill="#E6E6E6"/>
<path d="M129.615 75.2834H114.804V75.8792H129.615V75.2834Z" fill="#E6E6E6"/>
<path d="M110.86 81.2952H109.846V90.5621H110.86V81.2952Z" fill="#E0E0E0"/>
<path d="M114.132 81.2952H113.119V90.5621H114.132V81.2952Z" fill="#E0E0E0"/>
<path d="M126.981 28.2859H22.9722V65.383H126.981V28.2859Z" fill="#E0E0E0"/>
<path d="M126.028 28.2859H22.0189V65.383H126.028V28.2859Z" fill="#F0F0F0"/>
<path d="M122.907 62.2627V31.4062L25.139 31.4062V62.2627L122.907 62.2627Z" fill="#FAFAFA"/>
<path d="M41.0102 62.263L47.4902 31.4062H61.7915L55.3118 62.263H41.0102Z" fill="white"/>
<path d="M61.346 62.263L67.826 31.4062H74.9768L68.4968 62.263H61.346Z" fill="white"/>
<path d="M105.008 62.263L111.487 31.4062H118.638L112.159 62.263H105.008Z" fill="white"/>
<path d="M74.5 127.413C106.41 127.413 132.279 125.902 132.279 124.039C132.279 122.175 106.41 120.665 74.5 120.665C42.5896 120.665 16.7211 122.175 16.7211 124.039C16.7211 125.902 42.5896 127.413 74.5 127.413Z" fill="#F5F5F5"/>
<path d="M49.4707 34.4619C50.2214 32.74 43.5694 31.1741 41.5579 36.4799C39.735 41.2885 36.7071 42.5145 38.1309 45.8434C39.6725 49.448 48.3896 49.8798 52.175 45.8851C55.2436 42.6471 51.9101 41.2828 52.3404 38.2364C52.771 35.1905 51.8657 34.197 49.4707 34.4619Z" fill="#263238"/>
<path d="M37.3519 44.7765C37.0059 42.8994 37.7024 42.1249 38.5842 41.1445C39.3885 40.2499 40.3897 39.1368 40.9378 36.7448C41.3824 34.8048 42.7085 33.5356 44.672 33.1718C46.6373 32.807 48.7212 33.4498 49.2713 34.2681C49.4522 34.5372 49.4632 34.8236 49.3023 35.0745L49.0514 34.9136C49.1483 34.7625 49.1393 34.6057 49.024 34.4344C48.5356 33.7082 46.5518 33.1265 44.7262 33.465C43.4252 33.7064 41.762 34.4827 41.2283 36.8118C40.6627 39.279 39.6331 40.4239 38.8059 41.3441C37.9467 42.2998 37.326 42.99 37.6452 44.7231L37.3519 44.7765Z" fill="#263238"/>
<path d="M33.2535 43.3498L33.0676 42.7562C32.9409 42.3518 32.7109 41.9874 32.3998 41.6995L31.8136 41.1568C31.4253 40.7975 30.8358 40.7662 30.4118 41.0826L29.772 41.5606C29.2818 41.9266 29.1855 42.6227 29.558 43.1078L29.9708 43.6454C29.9708 43.6454 30.9342 45.2767 32.3321 45.8438L32.6539 45.569C32.6593 45.5646 32.6644 45.5601 32.6697 45.5556C33.292 45.015 33.4997 44.1359 33.2535 43.3498Z" fill="#FFC3BD"/>
<path d="M44.8371 53.6953L44.6464 53.8414L44.4917 53.9543L44.1922 54.1629C43.9928 54.2946 43.7926 54.4177 43.5902 54.5354C43.1859 54.7714 42.7681 54.9785 42.3386 55.1699C41.4774 55.5432 40.5578 55.8338 39.5827 55.9902C38.6119 56.1571 37.5775 56.1681 36.553 56.0084C36.0413 55.9265 35.5329 55.7995 35.0448 55.6192C34.9211 55.579 34.8016 55.5289 34.6818 55.4789L34.5024 55.4041L34.413 55.3665L34.3141 55.3227L34.1904 55.2634C33.8763 55.1019 33.6442 54.9183 33.4761 54.7598C33.2976 54.5941 33.171 54.4442 33.0568 54.2994C32.6268 53.7326 32.4364 53.2704 32.2469 52.8243C32.0684 52.3812 31.931 51.9604 31.8085 51.5459C31.5797 50.7145 31.4032 49.9137 31.2691 49.1106C30.9974 47.5056 30.8424 45.9351 30.8132 44.3134C30.801 43.6474 31.3311 43.0976 31.9971 43.0856C32.5255 43.0761 32.9808 43.4078 33.1525 43.8783L33.1638 43.9105C33.6817 45.3382 34.1812 46.7993 34.706 48.1889C34.9754 48.8812 35.2382 49.5677 35.5365 50.1935C35.6786 50.507 35.8279 50.8068 35.9787 51.0649C36.1215 51.3167 36.2997 51.5435 36.3578 51.5798C36.3679 51.5834 36.3712 51.5778 36.3387 51.5399C36.3128 51.5128 36.2416 51.4404 36.1 51.3659L36.0422 51.337C36.0261 51.3292 35.9898 51.3158 36.01 51.3221L36.0574 51.3337L36.1516 51.3575C36.2138 51.3739 36.2752 51.3918 36.3393 51.401C36.5887 51.4598 36.8459 51.4738 37.101 51.4931C37.615 51.5191 38.1473 51.4535 38.6965 51.3259C39.243 51.1913 39.8059 50.997 40.3581 50.7368C40.6365 50.6128 40.9091 50.4665 41.177 50.3184C41.3117 50.2448 41.4423 50.1661 41.5686 50.0887L41.8794 49.8958L42.1122 49.7513C43.2383 49.0525 44.7176 49.3988 45.4164 50.5249C46.0714 51.5807 45.7993 52.9527 44.8371 53.6953Z" fill="#FFC3BD"/>
<path d="M50.0756 122.739C51.9629 122.118 53.5518 120.842 53.2309 118.605C53.0932 117.645 56.1706 117.27 56.1706 117.27C55.8202 120.318 56.2025 120.832 56.5699 121.534C56.9389 122.24 56.9144 123.064 56.2779 123.14C55.5153 123.231 55.344 123.147 54.3972 123.273C53.2902 123.42 52.572 123.999 50.3575 123.999C49.1444 123.999 49.4698 122.938 50.0756 122.739Z" fill="#2B8761"/>
<path d="M55.8008 90.1779C56.0192 74.9084 54.6037 66.5862 54.6037 66.5862L43.3065 67.1485C43.3065 67.1485 44.9774 81.1184 47.9437 91.4087C48.7364 96.9306 50.5223 106.271 51.759 112.542C53.7124 112.345 55.6697 112.008 57.1728 111.517C57.6114 106.006 57.6904 98.0353 55.8008 90.1779Z" fill="#2B8761"/>
<path d="M56.0443 118.765C56.0443 118.765 56.4856 115.88 56.7827 111.518C55.4966 112.008 53.8212 112.345 52.1494 112.543C52.7925 116.353 53.2517 118.777 53.2517 118.777C53.8131 119.051 55.2376 119.146 56.0443 118.765Z" fill="#FFC3BD"/>
<path d="M51.1475 110.716C51.2486 111.241 51.5203 112.555 51.7912 113.016C51.8237 113.071 51.8791 113.107 51.9426 113.115C54.0483 113.381 56.153 112.956 57.0238 112.576C57.0727 112.555 57.1093 112.517 57.1281 112.467C57.3647 111.837 57.4514 110.507 57.4782 109.946C57.4845 109.816 57.3686 109.715 57.2404 109.74C56.5494 109.877 54.4458 110.256 51.3326 110.48C51.2128 110.489 51.1246 110.598 51.1475 110.716Z" fill="#263238"/>
<path d="M43.4603 49.1941C41.7859 49.5052 39.2311 50.9076 39.2311 50.9076C39.2311 50.9076 37.8871 54.126 39.4963 56.4447C41.0829 56.8184 41.8893 56.5133 41.8893 56.5133L43.4603 49.1941Z" fill="#263238"/>
<path opacity="0.2" d="M39.4963 56.4447C41.0829 56.8184 41.889 56.5133 41.889 56.5133L41.8332 52.1699C40.7473 53.6206 39.8521 55.0549 39.4963 56.4447Z" fill="black"/>
<path opacity="0.2" d="M55.7397 81.1693C54.4762 78.079 53.1173 75.5341 52.5958 73.2097C51.7078 79.5303 52.4051 85.3443 55.8053 89.5103C55.844 86.435 55.8112 83.6516 55.7397 81.1693Z" fill="black"/>
<path d="M72.9999 105.403L68.4911 108.609C64.8108 103.814 59.2919 96.4895 57.9568 93.3009C54.5656 85.2102 47.747 67.3826 47.747 67.3826L56.5976 65.3276C56.5976 65.3276 62.1822 70.5128 65.785 90.0798C68.81 94.3558 71.3489 100.662 72.9999 105.403Z" fill="#2B8761"/>
<path d="M72.7501 120.601C73.8745 118.405 73.8897 115.984 72.675 114.077C72.1541 113.26 74.8036 111.65 74.8036 111.65C75.7405 114.572 76.5016 114.742 77.1528 115.194C77.823 115.659 77.8692 116.623 77.3202 116.954C76.6629 117.351 76.4096 117.61 75.8282 118.368C75.1487 119.254 74.7685 120.491 73.794 121.255C73.1706 121.743 72.2575 121.563 72.7501 120.601Z" fill="#2B8761"/>
<path d="M75.2968 112.988C75.2968 112.988 74.5179 110.254 72.9909 106.156C72.0209 107.133 70.6334 108.13 69.1917 108.999C71.3477 112.206 72.923 114.51 72.923 114.51C73.8807 114.205 74.7187 113.668 75.2968 112.988Z" fill="#FFC3BD"/>
<path d="M67.5262 107.748C67.8343 108.184 68.6237 109.27 69.0603 109.578C69.1124 109.615 69.178 109.625 69.2391 109.607C71.267 108.981 73.01 107.726 73.6465 107.021C73.6823 106.982 73.7002 106.932 73.6966 106.879C73.6525 106.207 73.1834 104.959 72.9769 104.438C72.9289 104.317 72.7814 104.272 72.6753 104.348C72.102 104.757 70.3414 105.969 67.5971 107.457C67.4916 107.514 67.4568 107.65 67.5262 107.748Z" fill="#263238"/>
<path d="M40.9041 53.6531C41.3093 56.2889 39.7374 58.3338 42.1539 59.5502C41.7531 61.5534 42.3491 65.56 43.3065 67.1486C44.6484 67.8775 51.2235 66.7991 56.5973 65.3276C56.5184 63.0338 54.6314 58.5191 55.1556 51.0039C55.2772 49.2615 53.8629 47.798 52.1172 47.8606C51.6508 47.8773 51.1582 47.9056 50.6558 47.9497C48.7033 48.1219 47.1057 48.2778 45.4217 48.6673C44.8636 48.7963 44.2893 48.948 43.7422 49.1026C41.768 49.6608 40.5921 51.6249 40.9041 53.6531Z" fill="#263238"/>
<path d="M44.7036 51.6354C44.7036 51.6354 46.3855 51.0197 47.2697 52.5309C48.737 51.7063 50.8045 48.2161 50.6561 47.9497C48.1967 48.6238 44.7036 51.6354 44.7036 51.6354Z" fill="white"/>
<path d="M44.7036 51.6352C44.7036 51.6352 43.4246 51.4836 43.0646 52.6136C43.0771 50.3786 44.5713 48.9741 45.2313 48.7122C45.0096 49.2942 44.7036 51.6352 44.7036 51.6352Z" fill="white"/>
<path d="M50.0092 42.0337C49.8226 43.7749 49.7919 46.5779 50.6561 47.9496C50.6561 47.9496 47.393 50.1962 44.7036 51.635C43.8593 49.6831 45.2313 48.7119 45.2313 48.7119C46.5094 48.2208 46.4981 46.5859 46.325 45.3334L50.0092 42.0337Z" fill="#FFC3BD"/>
<path opacity="0.2" d="M46.3238 45.3339L48.4196 43.4565C48.4968 43.7396 48.464 44.153 48.3532 44.5097C48.0251 45.5413 47.1615 46.3686 46.3929 46.8186C46.4308 46.3251 46.3885 45.8042 46.3238 45.3339Z" fill="black"/>
<path d="M50.683 38.7948C50.4013 41.6237 50.3412 42.827 48.8798 44.2276C46.6814 46.3342 43.3361 45.3678 42.7833 42.5115C42.2859 39.9403 42.8301 35.7463 45.5961 34.7244C48.3216 33.7172 50.9649 35.9659 50.683 38.7948Z" fill="#FFC3BD"/>
<path d="M50.0509 40.8643C49.0326 39.9566 49.2067 38.3868 49.9517 37.6322C50.6967 36.8774 51.7444 38.4377 51.7444 38.4377L50.0509 40.8643Z" fill="#263238"/>
<path d="M46.609 39.5779C46.6001 39.8088 46.4704 39.9912 46.3193 39.9853C46.1683 39.9793 46.0532 39.7874 46.0625 39.5564C46.0714 39.3255 46.201 39.1431 46.3521 39.1491C46.5029 39.155 46.6179 39.3469 46.609 39.5779Z" fill="#263238"/>
<path d="M43.7682 39.5073C43.7592 39.7383 43.6296 39.9207 43.4785 39.9147C43.3274 39.9087 43.2124 39.7168 43.2216 39.4859C43.2306 39.2549 43.3602 39.0726 43.5113 39.0785C43.6621 39.0845 43.7771 39.2767 43.7682 39.5073Z" fill="#263238"/>
<path d="M43.5771 39.0941L43.0288 38.9126C43.0288 38.9126 43.2964 39.3569 43.5771 39.0941Z" fill="#263238"/>
<path d="M44.4664 39.5989C44.4664 39.5989 44.0358 40.5775 43.5858 41.0403C43.8793 41.3368 44.4029 41.2269 44.4029 41.2269L44.4664 39.5989Z" fill="#ED847E"/>
<path d="M45.6971 42.132C45.5767 42.1484 45.4471 42.1556 45.3085 42.1502C45.2713 42.1487 45.2421 42.1171 45.2433 42.0796C45.2448 42.0423 45.2754 42.0134 45.3139 42.0143C46.3265 42.0546 46.828 41.3647 46.8331 41.3578C46.8548 41.3271 46.8972 41.32 46.9276 41.3415C46.9583 41.3632 46.9654 41.4055 46.9437 41.4359C46.9246 41.4633 46.5211 42.0191 45.6971 42.132Z" fill="#263238"/>
<path d="M51.1556 41.1663C50.8871 41.7021 50.4335 42.0313 50.0109 42.1371C49.3756 42.2963 49.0812 41.5963 49.2773 40.8992C49.4537 40.272 49.9969 39.4331 50.6251 39.5875C51.2444 39.7394 51.4625 40.5536 51.1556 41.1663Z" fill="#FFC3BD"/>
<path d="M49.2174 34.7668C46.9717 36.1823 44.5734 36.8775 42.6188 37.126C42.6009 35.0895 46.5959 32.8047 49.2174 34.7668Z" fill="#263238"/>
<path d="M47.6836 35.015C47.2199 36.803 51.8389 40.0709 50.9696 43.2348C52.4843 40.8755 51.3919 35.5717 51.3919 35.5717C51.3919 35.5717 47.4768 33.1028 47.6836 35.015Z" fill="#263238"/>
<path d="M47.2038 38.0584C47.1683 38.0525 47.1352 38.0328 47.1135 38.0009C46.7732 37.5003 46.2743 37.5042 46.2684 37.5042C46.1945 37.5051 46.1316 37.4461 46.1301 37.371C46.1286 37.2962 46.1882 37.2342 46.2633 37.2327C46.2895 37.2324 46.9159 37.227 47.3379 37.8484C47.3799 37.9103 47.3638 37.9947 47.3018 38.037C47.272 38.057 47.2369 38.0638 47.2038 38.0584Z" fill="#263238"/>
<path d="M42.51 37.9578C42.4763 37.9572 42.4426 37.9438 42.417 37.9182C42.364 37.8651 42.364 37.7793 42.4167 37.7263C42.9469 37.1952 43.5616 37.3165 43.5876 37.3222C43.6609 37.3377 43.708 37.4095 43.6925 37.4828C43.6773 37.5561 43.6054 37.6029 43.5321 37.588C43.508 37.5829 43.0303 37.4956 42.6086 37.9179C42.5818 37.9456 42.5458 37.9587 42.51 37.9578Z" fill="#263238"/>
<path d="M46.4183 39.1646L45.8699 38.9832C45.8699 38.9832 46.1375 39.4272 46.4183 39.1646Z" fill="#263238"/>
<path opacity="0.2" d="M55.0841 52.4573C55.0269 54.2221 55.1023 55.8077 55.2435 57.2202C53.7455 55.6459 51.8806 52.6757 51.759 51.186L55.0841 52.4573Z" fill="black"/>
<path d="M64.8138 46.851L65.141 44.9587L68.0805 46.0938C68.0805 46.0938 67.3996 47.8556 66.145 48.6337L65.7957 48.4126C65.2277 48.0529 64.8666 47.4786 64.8138 46.851Z" fill="#FFC3BD"/>
<path d="M66.9758 43.9052L67.9413 44.4303C68.3815 44.6696 68.5466 45.2191 68.3109 45.6613L68.0805 46.0937L65.141 44.9586L65.8386 44.1225C66.1176 43.7881 66.5935 43.6972 66.9758 43.9052Z" fill="#FFC3BD"/>
<path d="M54.5617 49.0135L54.9348 49.4003L55.3434 49.8134C55.6217 50.0857 55.8982 50.3611 56.1843 50.6236C56.7499 51.1564 57.3364 51.6529 57.9211 52.1127C58.5096 52.5624 59.1068 52.9683 59.6801 53.2737C60.2547 53.5765 60.7991 53.766 61.1976 53.8164L60.3962 53.9654C60.1993 54.0593 60.2112 54.101 60.2532 54.07C60.2973 54.0447 60.3816 53.9734 60.4731 53.8831C60.6588 53.6978 60.8683 53.4347 61.0703 53.1516C61.475 52.577 61.8871 51.9238 62.2725 51.2482C62.6673 50.5745 63.0487 49.8753 63.4317 49.1703L64.5802 47.0473L64.5897 47.0297C64.9071 46.443 65.6398 46.2245 66.2266 46.5419C66.6897 46.7925 66.9227 47.3042 66.8444 47.7962C66.7061 48.6541 66.5204 49.4653 66.3106 50.2911C66.0985 51.1126 65.8532 51.928 65.571 52.7463C65.2772 53.561 64.9655 54.3811 64.5337 55.2158C64.3149 55.6351 64.0765 56.06 63.7502 56.5151C63.5851 56.7436 63.3959 56.9794 63.1378 57.2306C62.8789 57.4764 62.5558 57.7646 61.9783 58.014C61.7599 58.1082 61.5331 58.1559 61.309 58.1612L61.177 58.163C59.8584 58.1875 58.7316 57.8582 57.758 57.4463C57.2699 57.238 56.8074 57.0089 56.3703 56.7624C55.9367 56.5112 55.5213 56.2472 55.1216 55.973C54.3236 55.425 53.5926 54.8254 52.8992 54.1999C52.555 53.8837 52.2158 53.5655 51.8922 53.2299C51.7295 53.0633 51.5677 52.8947 51.4092 52.7206C51.2459 52.5398 51.1061 52.3821 50.9175 52.1595C50.0586 51.1454 50.1847 49.6271 51.1988 48.7683C52.1708 47.9452 53.6063 48.0268 54.48 48.9283L54.5617 49.0135Z" fill="#FFC3BD"/>
<path d="M52.2489 47.8643C54.4321 47.931 56.6057 50.5537 56.6057 50.5537C56.6057 50.5537 55.7636 54.0245 53.3706 55.5211C52.0251 54.4709 50.8835 53.6318 50.8835 53.6318C48.9781 50.8341 49.6125 48.9779 52.2489 47.8643Z" fill="#263238"/>
<path d="M42.8697 66.9416C43.0303 67.8764 43.2243 68.6077 43.2866 68.8327C43.3 68.8809 43.3307 68.9197 43.3745 68.9441C43.6939 69.1214 45.1476 69.8277 47.8162 69.6826C50.812 69.5199 55.1684 67.8999 57.4377 66.1617C57.5056 66.1095 57.5298 66.0181 57.4961 65.9391C57.3045 65.4906 57.0202 65.0293 56.884 64.818C56.8384 64.7474 56.752 64.7161 56.6715 64.7402C55.6947 65.0338 49.541 66.7994 43.0583 66.7222C42.9406 66.721 42.8497 66.8256 42.8697 66.9416Z" fill="#2B8761"/>
<path opacity="0.3" d="M42.8697 66.9416C43.0303 67.8764 43.2243 68.6077 43.2866 68.8327C43.3 68.8809 43.3307 68.9197 43.3745 68.9441C43.6939 69.1214 45.1476 69.8277 47.8162 69.6826C50.812 69.5199 55.1684 67.8999 57.4377 66.1617C57.5056 66.1095 57.5298 66.0181 57.4961 65.9391C57.3045 65.4906 57.0202 65.0293 56.884 64.818C56.8384 64.7474 56.752 64.7161 56.6715 64.7402C55.6947 65.0338 49.541 66.7994 43.0583 66.7222C42.9406 66.721 42.8497 66.8256 42.8697 66.9416Z" fill="white"/>
<path d="M102.592 115.15H63.3575C60.2637 115.15 57.8812 112.619 58.0626 109.526L62.8455 27.9751C63.027 24.8813 65.7066 22.3501 68.8005 22.3501H108.035C111.129 22.3501 113.511 24.8813 113.33 27.9748L108.547 109.525C108.365 112.619 105.686 115.15 102.592 115.15Z" fill="#2B8761"/>
<path opacity="0.8" d="M102.592 115.15H63.3575C60.2637 115.15 57.8812 112.619 58.0626 109.526L62.8455 27.9751C63.027 24.8813 65.7066 22.3501 68.8005 22.3501H108.035C111.129 22.3501 113.511 24.8813 113.33 27.9748L108.547 109.525C108.365 112.619 105.686 115.15 102.592 115.15Z" fill="white"/>
<path d="M102.359 113.519H64.2187C62.0445 113.519 60.37 111.74 60.4976 109.565L65.2596 28.3715C65.3872 26.1973 67.2705 24.4182 69.4447 24.4182H107.585C109.759 24.4182 111.434 26.197 111.307 28.3715L106.545 109.565C106.417 111.74 104.533 113.519 102.359 113.519Z" fill="#2B8761"/>
<path d="M101.948 113.082H63.8072C61.633 113.082 59.9585 111.303 60.0857 109.129L64.8478 27.9347C64.9753 25.7605 66.8584 23.9814 69.0329 23.9814H107.173C109.348 23.9814 111.022 25.7602 110.894 27.9347L106.132 109.129C106.005 111.303 104.122 113.082 101.948 113.082Z" fill="white"/>
<path opacity="0.1" d="M100.834 110.063H65.2748C63.9309 110.063 62.8959 108.963 62.9746 107.62L64.961 73.7519C65.0397 72.4079 66.204 71.3086 67.5477 71.3086H103.107C104.451 71.3086 105.486 72.4082 105.407 73.7519L103.421 107.62C103.342 108.963 102.178 110.063 100.834 110.063Z" fill="#2B8761"/>
<path opacity="0.1" d="M92.9331 30.0042H82.5674C82.0862 30.0042 81.7155 29.6106 81.7438 29.1293C81.7721 28.6481 82.1887 28.2544 82.6699 28.2544H93.0356C93.5169 28.2544 93.8876 28.6481 93.8592 29.1293C93.8309 29.6103 93.414 30.0042 92.9331 30.0042Z" fill="#2B8761"/>
<path opacity="0.1" d="M97.0614 62.689C103.446 56.4889 103.881 46.582 98.0344 40.5614C92.1875 34.5408 82.2721 34.6862 75.8878 40.8863C69.5035 47.0864 69.0679 56.9932 74.9148 63.0139C80.7617 69.0345 90.6771 68.8891 97.0614 62.689Z" fill="#2B8761"/>
<path d="M75.5147 62.1549C72.886 59.3677 71.5656 55.6647 71.7965 51.7288L72.094 51.7463C71.8681 55.5998 73.1596 59.2235 75.7313 61.9505L75.5147 62.1549Z" fill="#2B8761"/>
<path d="M101.148 51.8511L100.851 51.8335C100.929 50.502 100.826 49.1849 100.545 47.9187L100.836 47.854C101.123 49.1473 101.228 50.4922 101.148 51.8511Z" fill="#2B8761"/>
<path d="M99.687 45.3271C99.0767 43.9667 98.2444 42.7226 97.2133 41.6292C95.7859 40.1156 94.0765 38.9838 92.1327 38.2654L92.2361 37.9858C94.2235 38.7204 95.9709 39.8772 97.4302 41.4248C98.4843 42.5423 99.3351 43.8144 99.9591 45.2052L99.687 45.3271Z" fill="#2B8761"/>
<path d="M95.6993 61.286C101.262 55.8837 101.642 47.2514 96.547 42.0053C91.4523 36.7592 82.8126 36.8858 77.2497 42.2882C71.6868 47.6906 71.3073 56.3229 76.402 61.569C81.4968 66.8151 90.1365 66.6884 95.6993 61.286Z" fill="#2B8761"/>
<path d="M84.9559 53.638C84.9586 53.6374 84.9619 53.6362 84.9643 53.6356C85.6196 53.4917 85.9259 52.93 86.0654 52.2916C86.0794 52.2258 86.0925 52.1596 86.1032 52.0923C86.1065 52.0729 86.1095 52.0535 86.1125 52.0339C86.1521 51.7642 86.1685 51.4891 86.1727 51.2314C84.9303 51.0958 83.8882 50.1282 83.8298 48.6873C83.7857 47.5976 84.0339 46.1794 84.6257 45.0422C84.5065 45.0586 84.3665 45.1033 84.2234 45.2091C84.1996 45.2267 84.171 45.2323 84.1442 45.2279C84.1188 45.2234 84.0953 45.2097 84.0786 45.1873C84.0449 45.1414 84.0545 45.0768 84.1004 45.0428C84.3373 44.8679 84.5703 44.8267 84.7441 44.8282C84.7861 44.7555 84.8281 44.6828 84.8734 44.6134C84.6844 44.6176 84.4997 44.6179 84.3209 44.6137C84.5176 43.2369 87.1656 42.0801 88.9724 43.1365C89.7755 43.2974 91.1037 44.4456 91.1037 44.4456C91.1037 44.4456 91.1558 45.4412 91.0417 46.6434V46.6437H91.0414C90.9234 47.8872 90.6275 49.3519 89.9108 50.1669C90.0985 49.7449 90.1447 49.2985 90.1 48.8435C89.9105 49.028 89.6929 49.1421 89.4808 49.1954C89.3949 49.3844 89.2984 49.5575 89.1884 49.7211C88.908 50.9989 88.7095 52.7038 89.1363 53.6812C89.5195 53.7054 89.8935 53.7402 90.2466 53.7811C90.2761 53.7846 90.3044 53.7915 90.3336 53.7959C90.5655 53.6589 90.7914 53.5072 91.0083 53.3382C93.6885 51.2504 90.842 48.805 91.514 46.5608C92.186 44.3166 91.6177 43.4652 89.7844 43.391C90.5464 42.1802 85.7167 40.2414 83.5962 44.0067C81.6743 47.4188 81.0533 49.1209 81.745 51.7898C81.964 52.6346 82.5657 53.3361 83.3876 53.8442C83.5214 53.8079 83.6575 53.7775 83.7991 53.7599C84.1773 53.7122 84.5703 53.6705 84.9559 53.638Z" fill="#263238"/>
<path d="M80.7869 58.8847C80.6567 58.6627 80.5527 58.4571 80.4776 58.292C80.2752 58.8928 80.0756 59.4944 79.8774 60.088C79.6953 60.625 79.5174 61.1611 79.3336 61.6728L79.0579 62.3972L78.9372 62.6833C78.8961 62.7638 78.9372 62.7182 78.9327 62.7396C78.8791 62.8186 78.6946 62.9909 78.5123 63.1479C78.4768 63.178 78.4378 63.209 78.4008 63.2394C79.2167 63.7886 80.1009 64.2493 81.0441 64.6012C81.0643 63.2394 81.233 61.8239 81.4094 61.4448C80.3572 60.6983 80.5196 59.8863 80.7869 58.8847Z" fill="#FFC3BD"/>
<path d="M81.8317 54.866C81.8061 54.8984 81.7808 54.9345 81.7551 54.9691C81.7805 54.9348 81.8067 54.9014 81.8332 54.8683L81.8317 54.866Z" fill="#263238"/>
<path d="M81.1421 56.8618C81.1409 56.1835 81.3495 55.5467 81.7125 55.0264C80.9565 56.078 80.3122 57.8851 80.3122 57.8851C80.3122 57.8851 80.3652 58.0448 80.4776 58.2916C80.5527 58.4566 80.6567 58.6623 80.7869 58.8843C80.9463 58.2865 81.1436 57.6211 81.1421 56.8618Z" fill="#263238"/>
<path d="M91.531 61.1848C91.2151 60.733 90.8873 60.1594 90.592 59.5538C90.5011 59.6024 90.4102 59.6504 90.3148 59.6915C89.4217 58.7472 88.658 57.9849 88.658 57.9849C87.5428 55.6608 88.2324 54.3359 90.3446 53.7983C90.6674 53.8576 90.9779 53.9932 91.2693 54.1702C90.9985 53.9809 90.6817 53.8495 90.3327 53.7956C90.3035 53.7911 90.2755 53.7843 90.2457 53.7807C89.8926 53.7402 89.5186 53.705 89.1354 53.6809C89.2164 53.8984 87.3041 56.6465 86.105 57.0998C85.6118 55.861 84.2327 55.7758 84.2327 55.7758C84.2327 55.7758 82.9462 55.5124 82.546 56.322C82.8094 54.6485 84.4213 53.7664 84.9559 53.6379C84.5703 53.6704 84.1772 53.7121 83.7988 53.7595C83.6572 53.7774 83.5207 53.8078 83.3872 53.8439C82.759 54.0143 82.2235 54.3794 81.8335 54.8681C81.8069 54.9015 81.7807 54.9345 81.7554 54.9688C81.7414 54.9879 81.7265 55.0067 81.7128 55.026C81.3495 55.546 81.1409 56.1829 81.1424 56.8614C81.1439 57.6207 80.9469 58.2861 80.7872 58.8842C80.5199 59.8858 80.3578 60.6982 81.4097 61.4443C81.2333 61.8234 81.0646 63.2389 81.0444 64.6008C82.4718 65.1333 84.0297 65.4241 85.6729 65.4241C87.7407 65.4241 89.7266 64.9616 91.5307 64.138C91.4896 63.1841 91.4758 62.0725 91.5563 60.809L91.556 60.8081C91.5477 60.9336 91.5372 61.0629 91.531 61.1848Z" fill="#263238"/>
<path d="M84.233 55.7766C84.233 55.7766 85.6124 55.8618 86.1053 57.1006C87.3045 56.6473 89.2167 53.8992 89.1357 53.6816C89.1357 53.6816 86.4224 55.0003 84.233 55.7766Z" fill="white"/>
<path d="M84.9643 53.6357C84.9619 53.636 84.9586 53.6375 84.9559 53.6381C84.4213 53.7666 82.8095 54.6486 82.546 56.3222C82.9462 55.5125 84.233 55.7766 84.233 55.7766C83.8203 54.2103 84.9643 53.6357 84.9643 53.6357Z" fill="white"/>
<path d="M86.1029 52.0941C86.1063 52.0742 86.1093 52.0543 86.1124 52.0342C86.1093 52.054 86.1063 52.0739 86.1029 52.0941Z" fill="#FFC3BD"/>
<path d="M89.1881 49.7214C88.9527 50.0713 88.6511 50.3749 88.2235 50.6759C88.0581 50.7924 87.8882 50.8836 87.7172 50.9638C87.3322 51.6304 86.6456 52.1078 86.0555 52.3429C86.0594 52.3263 86.0618 52.3087 86.0654 52.2917C85.9259 52.93 85.6196 53.4917 84.9643 53.6357C84.9643 53.6357 83.8202 54.2102 84.233 55.7762C86.4224 54.9999 89.1357 53.6813 89.1357 53.6813C88.7089 52.7038 88.9074 50.999 89.1881 49.7214Z" fill="#FFC3BD"/>
<path d="M86.0654 52.2916C86.0797 52.2258 86.0922 52.1593 86.1032 52.0923C86.0922 52.1596 86.0794 52.2258 86.0654 52.2916Z" fill="#263238"/>
<path opacity="0.2" d="M86.0654 52.2916C86.0797 52.2258 86.0922 52.1593 86.1032 52.0923C86.0922 52.1596 86.0794 52.2258 86.0654 52.2916Z" fill="black"/>
<path d="M86.1724 51.2314C86.1682 51.4892 86.1521 51.7646 86.1122 52.034C86.1527 51.7637 86.1691 51.4886 86.1733 51.2314H86.1724Z" fill="#263238"/>
<path opacity="0.2" d="M86.1724 51.2314C86.1682 51.4892 86.1521 51.7646 86.1122 52.034C86.1527 51.7637 86.1691 51.4886 86.1733 51.2314H86.1724Z" fill="black"/>
<path d="M87.7172 50.9639C87.2031 51.2044 86.673 51.2863 86.1732 51.2318C86.1694 51.4886 86.153 51.764 86.1122 52.0343C86.1092 52.0539 86.1062 52.073 86.1029 52.0927C86.0919 52.1597 86.0794 52.2262 86.0651 52.2921C86.0612 52.309 86.0591 52.3266 86.0552 52.3433C86.6453 52.1076 87.3319 51.6305 87.7172 50.9639Z" fill="#FFC3BD"/>
<path opacity="0.2" d="M87.7172 50.9639C87.2031 51.2044 86.673 51.2863 86.1732 51.2318C86.1694 51.4886 86.153 51.764 86.1122 52.0343C86.1092 52.0539 86.1062 52.073 86.1029 52.0927C86.0919 52.1597 86.0794 52.2262 86.0651 52.2921C86.0612 52.309 86.0591 52.3266 86.0552 52.3433C86.6453 52.1076 87.3319 51.6305 87.7172 50.9639Z" fill="black"/>
<path d="M87.7172 50.9638C87.8885 50.8837 88.0584 50.7925 88.2235 50.676C88.6511 50.375 88.9527 50.0713 89.1881 49.7215C89.2981 49.5579 89.3946 49.3847 89.4805 49.1958C89.4244 49.2098 89.3681 49.2265 89.3139 49.2316C88.8171 49.2789 88.6756 48.7181 88.9029 48.2157C88.9724 48.0625 89.0767 47.8962 89.2009 47.7502C89.0615 47.3172 89.1136 46.8502 89.2906 46.4631C88.8362 45.5331 88.3567 44.6814 88.3129 44.0505C87.1003 44.4263 85.9143 44.5905 84.8728 44.6141C84.8275 44.6835 84.7855 44.7562 84.7435 44.8289C84.9071 44.8304 85.0185 44.8694 85.0277 44.8727C85.0814 44.8927 85.1085 44.9523 85.0885 45.0056C85.0686 45.059 85.0093 45.0861 84.9559 45.0664C84.9452 45.0622 84.8108 45.0172 84.6254 45.0426C84.0336 46.1797 83.7854 47.5976 83.8295 48.6877C83.8879 50.1285 84.93 51.0961 86.1724 51.2317L86.1733 51.232C86.673 51.2863 87.2031 51.2043 87.7172 50.9638ZM87.0524 45.1105C87.072 45.1132 87.5444 45.1808 87.7911 45.6967C87.8158 45.7482 87.7938 45.8099 87.7422 45.8347C87.7175 45.8466 87.6904 45.8475 87.6659 45.8397C87.64 45.8314 87.6174 45.8126 87.6046 45.7861C87.4055 45.3704 87.0294 45.3161 87.0249 45.3155C86.9692 45.3075 86.9287 45.2562 86.9361 45.1993C86.9439 45.143 86.9957 45.1031 87.0524 45.1105ZM86.9484 46.5829C86.9463 46.5844 86.9442 46.5844 86.9418 46.5859C87.0267 46.6351 87.0732 46.7671 87.0449 46.9161C87.0118 47.0889 86.8932 47.2114 86.7803 47.1897C86.6673 47.1679 86.6027 47.0103 86.6358 46.8374C86.6548 46.7379 86.7034 46.6595 86.7615 46.6112C86.6325 46.5624 86.5565 46.3836 86.5565 46.3836L86.9484 46.5829ZM84.5048 46.4599C84.5235 46.3606 84.5721 46.2823 84.6302 46.234C84.5012 46.1851 84.4252 46.0063 84.4252 46.0063L84.8171 46.2057C84.8147 46.2072 84.8129 46.2072 84.8105 46.2086C84.8954 46.2578 84.9419 46.3898 84.9136 46.5385C84.8805 46.7114 84.7619 46.8339 84.649 46.8121C84.5363 46.7903 84.4717 46.6327 84.5048 46.4599ZM85.1955 47.9055C85.1955 47.9055 84.7888 47.9284 84.6016 47.6715C84.9932 47.3744 85.4295 46.6869 85.4295 46.6869L85.1955 47.9055ZM85.7719 48.7041C85.7438 48.6987 85.7257 48.6716 85.731 48.6433C85.7364 48.6156 85.7626 48.5971 85.7915 48.6025C86.5493 48.7485 87.0056 48.2863 87.0103 48.2815C87.03 48.261 87.0628 48.2604 87.0834 48.2803C87.1039 48.3 87.1045 48.3328 87.0845 48.3534C87.067 48.3715 86.6998 48.7437 86.0663 48.7348C85.9736 48.7333 85.8756 48.7238 85.7719 48.7041Z" fill="#FFC3BD"/>
<path d="M91.0416 46.6443V46.6433L91.0411 46.6443H91.0416Z" fill="#263238"/>
<path d="M89.7037 47.376C89.5791 47.0667 89.4366 46.7606 89.2909 46.4626C89.1139 46.85 89.0615 47.3167 89.2012 47.7497C89.3472 47.5784 89.5219 47.4359 89.7037 47.376Z" fill="#263238"/>
<path d="M86.7615 46.6113C86.7034 46.6595 86.6551 46.7379 86.6357 46.8374C86.6026 47.0103 86.6673 47.1679 86.7803 47.1897C86.8932 47.2114 87.0118 47.089 87.0449 46.9161C87.0735 46.7674 87.0267 46.6351 86.9418 46.5859C86.8735 46.6303 86.8133 46.6312 86.7615 46.6113Z" fill="#263238"/>
<path d="M84.9139 46.5384C84.9425 46.3894 84.8961 46.2577 84.8108 46.2085C84.7426 46.2529 84.6824 46.2538 84.6305 46.2338C84.5724 46.2821 84.5238 46.3605 84.5051 46.4597C84.472 46.6326 84.5364 46.7902 84.6493 46.8119C84.7623 46.8334 84.8809 46.7112 84.9139 46.5384Z" fill="#263238"/>
<path d="M84.8108 46.2082C84.8132 46.2067 84.815 46.2067 84.8173 46.2052L84.4255 46.0059C84.4255 46.0059 84.5015 46.1847 84.6305 46.2335C84.6823 46.2535 84.7425 46.2526 84.8108 46.2082Z" fill="#263238"/>
<path d="M84.6013 47.6714C84.7885 47.9282 85.1952 47.9053 85.1952 47.9053L85.4292 46.6868C85.4292 46.6868 84.9932 47.3742 84.6013 47.6714Z" fill="#ED847E"/>
<path d="M87.0834 48.2804C87.0628 48.2607 87.03 48.261 87.0104 48.2816C87.0056 48.2863 86.5493 48.7482 85.7915 48.6025C85.7626 48.5971 85.7364 48.6156 85.731 48.6433C85.7257 48.6716 85.7439 48.6988 85.7719 48.7041C85.8756 48.7238 85.9739 48.7333 86.0666 48.7348C86.6998 48.7438 87.0673 48.3716 87.0849 48.3534C87.1042 48.3328 87.1036 48.3003 87.0834 48.2804Z" fill="#263238"/>
<path d="M89.7037 47.3762C89.5222 47.4361 89.3476 47.5789 89.2012 47.7502C89.0767 47.8962 88.9724 48.0625 88.9032 48.2157C88.6759 48.7181 88.8177 49.2787 89.3142 49.2316C89.3681 49.2265 89.4247 49.2098 89.4808 49.1958C89.6929 49.1425 89.9105 49.0283 90.1 48.8439C90.052 48.3584 89.9003 47.8632 89.7037 47.3762Z" fill="#FFC3BD"/>
<path d="M88.3749 43.6031C88.3934 43.1731 88.6374 43.0697 88.9718 43.1367C87.165 42.0803 84.517 43.2372 84.3203 44.6139C84.4991 44.6181 84.6839 44.6178 84.8728 44.6136C85.9143 44.5901 87.1003 44.4259 88.3129 44.0501C88.3019 43.8853 88.3186 43.7351 88.3749 43.6031Z" fill="#263238"/>
<path d="M88.3749 43.6033C88.3186 43.7353 88.3016 43.8855 88.3132 44.0503C88.357 44.6811 88.8365 45.5328 89.2909 46.4629C89.4367 46.7609 89.5788 47.0666 89.7037 47.3762C89.9004 47.8635 90.052 48.3587 90.1 48.8439C90.1447 49.2989 90.0985 49.7453 89.9108 50.1673C90.6275 49.3523 90.9234 47.8876 91.0414 46.6441L91.0417 46.6438C91.1558 45.4416 91.1037 44.446 91.1037 44.446C91.1037 44.446 89.7755 43.2978 88.9724 43.1369C88.6374 43.0698 88.3934 43.1733 88.3749 43.6033Z" fill="#263238"/>
<path d="M87.0252 45.3155C87.0297 45.3161 87.4058 45.3704 87.6048 45.7861C87.6177 45.8126 87.6403 45.8314 87.6662 45.8397C87.6907 45.8475 87.7178 45.8466 87.7425 45.8347C87.7941 45.8099 87.8158 45.7482 87.7914 45.6967C87.5443 45.1808 87.0723 45.1132 87.0526 45.1105C86.996 45.1031 86.9442 45.1427 86.9364 45.1993C86.929 45.2562 86.9695 45.3078 87.0252 45.3155Z" fill="#263238"/>
<path d="M84.9556 45.0664C85.009 45.0861 85.0683 45.0589 85.0882 45.0056C85.1082 44.9523 85.0811 44.8927 85.0275 44.8727C85.0182 44.8691 84.9068 44.8301 84.7432 44.8289C84.5694 44.8274 84.3364 44.8685 84.0995 45.0435C84.0536 45.0771 84.0438 45.1421 84.0777 45.188C84.0941 45.2103 84.118 45.224 84.1433 45.2285C84.1701 45.2333 84.1987 45.2273 84.2226 45.2097C84.3656 45.104 84.5057 45.0592 84.6249 45.0429C84.8108 45.0172 84.9452 45.0622 84.9556 45.0664Z" fill="#263238"/>
<path d="M86.7615 46.6112C86.8136 46.6309 86.8735 46.63 86.9418 46.5859C86.9442 46.5844 86.9462 46.5847 86.9483 46.5829L86.5565 46.3835C86.5565 46.3835 86.6324 46.5623 86.7615 46.6112Z" fill="#263238"/>
<path d="M91.531 61.1848C91.5372 61.0626 91.5477 60.9333 91.5557 60.8081C91.3888 60.5417 91.2169 60.2747 91.0417 60.0074C90.9287 59.8378 90.8128 59.6677 90.6978 59.4978C90.6632 59.5175 90.6271 59.5348 90.592 59.5535C90.8873 60.1594 91.2151 60.733 91.531 61.1848Z" fill="#263238"/>
<path opacity="0.2" d="M91.531 61.1848C91.5372 61.0626 91.5477 60.9333 91.5557 60.8081C91.3888 60.5417 91.2169 60.2747 91.0417 60.0074C90.9287 59.8378 90.8128 59.6677 90.6978 59.4978C90.6632 59.5175 90.6271 59.5348 90.592 59.5535C90.8873 60.1594 91.2151 60.733 91.531 61.1848Z" fill="black"/>
<path d="M92.417 63.6541L92.4074 63.7018C93.5965 63.0593 94.6916 62.255 95.6616 61.319C95.4929 60.8163 95.2986 60.3565 95.09 59.9097C94.7956 59.2687 94.4687 58.6725 94.1257 58.0902C93.8301 57.5782 93.5121 57.0883 93.187 56.6052C92.8828 57.2277 92.0427 58.7279 90.6978 59.4982C90.8131 59.6681 90.9288 59.8382 91.0417 60.0078C91.2166 60.2748 91.3889 60.5418 91.5558 60.8085L91.556 60.8094C91.7027 61.0439 91.8454 61.2776 91.9786 61.51C92.2057 61.9129 92.4214 62.3167 92.5853 62.688L92.5546 62.8915C92.515 63.1395 92.4679 63.3949 92.417 63.6541Z" fill="#FFC3BD"/>
<path d="M88.6583 57.9851C88.6583 57.9851 89.4221 58.7474 90.3152 59.6918C90.4102 59.6507 90.5014 59.6024 90.5923 59.5541C90.6275 59.5353 90.6635 59.518 90.6981 59.4984C92.043 58.7277 92.883 57.2279 93.1873 56.6054C93.2728 56.4308 93.3181 56.3217 93.3181 56.3217C93.3181 56.3217 92.4557 54.891 91.2696 54.1707C90.9782 53.9937 90.6677 53.8581 90.3449 53.7988C88.2327 54.3361 87.5432 55.661 88.6583 57.9851Z" fill="#263238"/>
<path d="M102.946 28.0936H107.145C107.38 28.0936 107.582 27.902 107.596 27.6678C107.61 27.4336 107.43 27.2419 107.195 27.2419H102.996C102.761 27.2419 102.559 27.4336 102.545 27.6678C102.531 27.902 102.711 28.0936 102.946 28.0936Z" fill="#2B8761"/>
<path d="M102.86 29.5551H107.06C107.294 29.5551 107.497 29.3634 107.511 29.1292C107.524 28.895 107.344 28.7034 107.11 28.7034H102.91C102.676 28.7034 102.473 28.895 102.459 29.1292C102.445 29.3634 102.626 29.5551 102.86 29.5551Z" fill="#2B8761"/>
<path d="M68.8922 29.5551H73.0919C73.3262 29.5551 73.5291 29.3634 73.5428 29.1292C73.5565 28.895 73.3762 28.7034 73.142 28.7034H68.9423C68.7081 28.7034 68.5054 28.895 68.4914 29.1292C68.4777 29.3634 68.658 29.5551 68.8922 29.5551Z" fill="#2B8761"/>
<path d="M102.774 31.0162H106.974C107.208 31.0162 107.411 30.8246 107.425 30.5904C107.439 30.3562 107.258 30.1646 107.024 30.1646H102.824C102.59 30.1646 102.387 30.3562 102.373 30.5904C102.36 30.8246 102.54 31.0162 102.774 31.0162Z" fill="#2B8761"/>
<path d="M97.2562 84.4813H71.8537C69.8306 84.4813 68.2724 82.8259 68.391 80.8028C68.5096 78.7797 70.2621 77.1243 72.2853 77.1243H97.688C99.7111 77.1243 101.269 78.7797 101.151 80.8028C101.032 82.8259 99.2796 84.4813 97.2562 84.4813Z" fill="white"/>
<path d="M96.6766 94.3643H71.2739C69.2507 94.3643 67.6925 92.709 67.8111 90.6858C67.9297 88.6627 69.6822 87.0073 71.7054 87.0073H97.1081C99.1312 87.0073 100.69 88.6627 100.571 90.6858C100.452 92.709 98.7 94.3643 96.6766 94.3643Z" fill="white"/>
<path d="M96.0969 104.247H70.6945C68.6714 104.247 67.1132 102.592 67.2318 100.569C67.3504 98.5455 69.1029 96.8901 71.126 96.8901H96.5288C98.5519 96.8901 100.11 98.5455 99.9915 100.569C99.8726 102.592 98.1204 104.247 96.0969 104.247Z" fill="white"/>
<path d="M73.8301 82.1204C74.603 81.3698 74.6558 80.1705 73.948 79.4417C73.2401 78.7128 72.0398 78.7304 71.2669 79.481C70.494 80.2316 70.4413 81.4309 71.1491 82.1598C71.8569 82.8886 73.0572 82.871 73.8301 82.1204Z" fill="#2B8761"/>
<path d="M72.3207 88.8927L72.5722 89.8367C72.6012 89.9449 72.6977 90.0182 72.8112 90.0182H73.8039C74.0584 90.0182 74.1451 90.3439 73.9305 90.4932L73.0931 91.0767C72.9972 91.1438 72.9516 91.2621 72.9805 91.3702L73.232 92.3143C73.2964 92.5563 73.0076 92.7574 72.8106 92.6078L72.0418 92.0243C71.9536 91.9573 71.829 91.9573 71.7331 92.0243L70.8957 92.6078C70.6811 92.7574 70.4159 92.5563 70.5089 92.3143L70.871 91.3702C70.9124 91.2621 70.8808 91.1435 70.7929 91.0767L70.024 90.4932C69.8271 90.3436 69.9519 90.0182 70.2064 90.0182H71.1991C71.3129 90.0182 71.4181 89.9449 71.4595 89.8367L71.8216 88.8927C71.914 88.6507 72.2561 88.6507 72.3207 88.8927Z" fill="#2B8761"/>
<path d="M73.0178 99.5685L72.8622 102.22C72.8488 102.447 72.6533 102.632 72.4253 102.632H70.1048C69.8768 102.632 69.7028 102.447 69.7162 102.22L69.9099 98.9174C69.9233 98.6894 70.1188 98.5046 70.3468 98.5046H72.0159L73.0178 99.5685Z" fill="#2B8761"/>
<path d="M72.0162 98.5047L73.0178 99.5689H72.3663C72.1384 99.5689 71.9643 99.3841 71.9777 99.1562L72.0162 98.5047ZM71.7504 97.7734L71.7084 98.4869L71.6702 99.1383C71.6586 99.3341 71.7253 99.5194 71.8577 99.6598C71.99 99.8001 72.1706 99.877 72.3663 99.877H73.0178H73.7306L73.2422 99.3582L72.2406 98.294L71.7504 97.7734Z" fill="white"/>
<path opacity="0.2" d="M96.4015 80.4138H77.3948C77.0652 80.4138 76.8116 80.1441 76.831 79.8148C76.8503 79.4852 77.1358 79.2158 77.4651 79.2158H96.4718C96.8014 79.2158 97.055 79.4855 97.0357 79.8148C97.0166 80.1441 96.7311 80.4138 96.4015 80.4138Z" fill="#2B8761"/>
<path opacity="0.2" d="M92.7993 82.3901H77.2789C76.9493 82.3901 76.6957 82.1204 76.7151 81.7911C76.7344 81.4615 77.0199 81.1921 77.3492 81.1921H92.8696C93.1992 81.1921 93.4528 81.4618 93.4335 81.7911C93.4141 82.1207 93.1289 82.3901 92.7993 82.3901Z" fill="#2B8761"/>
<path opacity="0.2" d="M95.7763 91.075H90.5324C90.2028 91.075 89.9173 91.3446 89.8983 91.6739C89.8789 92.0035 90.1328 92.2729 90.4621 92.2729H95.706C96.0356 92.2729 96.3211 92.0032 96.3401 91.6739C96.3595 91.3443 96.1059 91.075 95.7763 91.075Z" fill="#2B8761"/>
<path opacity="0.2" d="M87.4675 91.075H76.7696C76.44 91.075 76.1548 91.3446 76.1354 91.6739C76.1161 92.0035 76.37 92.2729 76.6993 92.2729H87.3972C87.7267 92.2729 88.0119 92.0032 88.0313 91.6739C88.0507 91.3443 87.7971 91.075 87.4675 91.075Z" fill="#2B8761"/>
<path opacity="0.2" d="M92.4059 89.0984H76.8855C76.5559 89.0984 76.2707 89.3681 76.2513 89.6974C76.232 90.027 76.4859 90.2963 76.8152 90.2963H92.3356C92.6652 90.2963 92.9504 90.0267 92.9697 89.6974C92.9891 89.3681 92.7352 89.0984 92.4059 89.0984Z" fill="#2B8761"/>
<path opacity="0.2" d="M95.1967 100.958H76.19C75.8604 100.958 75.5749 101.227 75.5558 101.557C75.5364 101.886 75.7903 102.156 76.1196 102.156H95.1264C95.456 102.156 95.7414 101.886 95.7605 101.557C95.7799 101.227 95.5263 100.958 95.1967 100.958Z" fill="#2B8761"/>
<path opacity="0.2" d="M91.8263 98.9812H76.3059C75.9763 98.9812 75.6911 99.2509 75.6718 99.5802C75.6524 99.9098 75.9063 100.179 76.2359 100.179H91.756C92.0856 100.179 92.3708 99.9095 92.3901 99.5802C92.4095 99.2506 92.1556 98.9812 91.8263 98.9812Z" fill="#2B8761"/>
</svg>
