<svg width="253" height="253" viewBox="0 0 253 253" fill="none" xmlns="http://www.w3.org/2000/svg">
<path d="M126.5 242.56C190.809 242.56 242.942 212.467 242.942 175.344C242.942 138.222 190.809 108.128 126.5 108.128C62.191 108.128 10.0582 138.222 10.0582 175.344C10.0582 212.467 62.191 242.56 126.5 242.56Z" fill="#F5F5F5"/>
<path d="M203.469 205.777C219.547 205.777 232.581 198.252 232.581 188.97C232.581 179.687 219.547 172.162 203.469 172.162C187.39 172.162 174.356 179.687 174.356 188.97C174.356 198.252 187.39 205.777 203.469 205.777Z" fill="#E0E0E0"/>
<path d="M99.2453 225.287L27.0265 183.592C25.8414 182.908 25.8414 181.799 27.0265 181.114L131.432 120.835C132.618 120.151 134.539 120.151 135.724 120.835L207.924 162.52C209.109 163.204 209.109 164.314 207.924 164.998L103.536 225.287C102.352 225.972 100.43 225.972 99.2453 225.287Z" fill="#E0E0E0"/>
<path d="M218.162 179.331C217.539 175.061 219.131 158.79 222.753 152.6C226.376 146.41 232.391 139.907 237.587 140.878C242.426 141.783 242.808 147.902 237.801 152.725C232.793 157.547 225.121 163.807 223.673 171.092L219.726 183.494L218.162 179.331Z" fill="#2B8761"/>
<path opacity="0.1" d="M218.162 179.331C217.539 175.061 219.131 158.79 222.753 152.6C226.376 146.41 232.391 139.907 237.587 140.878C242.426 141.783 242.808 147.902 237.801 152.725C232.793 157.547 225.121 163.807 223.673 171.092L219.726 183.494L218.162 179.331Z" fill="black"/>
<path d="M219.32 177.992C219.454 177.956 219.552 177.836 219.554 177.692C219.778 162.682 229.375 148.781 235.923 144.909C236.073 144.82 236.122 144.627 236.034 144.477C235.946 144.328 235.755 144.274 235.602 144.366C228.929 148.312 219.151 162.445 218.924 177.682C218.921 177.857 219.06 177.999 219.234 178.002C219.264 178.003 219.293 177.999 219.32 177.992Z" fill="white"/>
<path d="M221.667 185.825C222.003 183.325 223.752 179.01 227.71 174.74C232.556 169.51 240.605 166.635 241.725 163.595C243.07 159.942 240 157.449 234.771 159.112C227.74 161.347 219.897 170.124 219.998 181.414L221.667 185.825Z" fill="#2B8761"/>
<path d="M220.257 183.459C220.374 183.432 220.47 183.339 220.496 183.213C223.144 170.074 233.752 162.997 238.081 161.781C238.249 161.734 238.346 161.56 238.3 161.392C238.253 161.224 238.085 161.125 237.911 161.174C233.124 162.518 222.582 169.677 219.878 183.089C219.844 183.259 219.955 183.426 220.125 183.46C220.17 183.47 220.215 183.468 220.257 183.459Z" fill="white"/>
<path d="M74.0349 37.6585L70.1807 39.8839C70.2 39.7119 70.2131 39.5409 70.2131 39.3739V38.2571C70.2131 36.2701 68.8181 35.4645 67.0972 36.4583C66.3999 36.8606 65.7593 37.4981 65.2402 38.244C64.9583 35.7454 62.9981 34.8148 60.6168 36.1891C58.0423 37.6757 55.9556 41.2901 55.9556 44.2629V45.9332C55.9556 46.7033 56.0983 47.3515 56.3502 47.8686L53.1488 49.717C52.1945 50.2681 51.4203 51.6085 51.4203 52.7105C51.4203 53.8126 52.194 54.2594 53.1488 53.7084L74.0344 41.6499C74.9893 41.0988 75.7629 39.7584 75.7629 38.6564C75.7634 37.5538 74.9898 37.107 74.0349 37.6585Z" fill="#E6E6E6"/>
<path d="M25.3688 42.6305L27.4951 40.9931V36.3095C27.4951 32.5965 30.4567 28.2869 33.6723 26.4304C36.8879 24.5739 39.4943 26.0792 39.4943 29.7917V30.4718C40.224 29.3384 41.1662 28.3633 42.1964 27.7683C44.5103 26.4324 46.3861 27.5153 46.3861 30.1869V30.4961L49.3502 28.7848C50.8743 27.9049 52.1094 28.6183 52.1094 30.3777C52.1094 32.1371 50.8743 34.2769 49.3502 35.1564L25.3688 49.002C23.8453 49.8815 22.6096 49.1685 22.6096 47.4091C22.6096 45.6498 23.8448 43.5099 25.3688 42.6305Z" fill="#E6E6E6"/>
<path d="M31.4834 177.854C31.4834 179.254 32.5308 180.992 33.8221 181.737L99.3451 219.567C100.636 220.313 102.731 220.313 104.022 219.567L201.129 163.508C202.42 162.762 203.468 161.023 203.468 159.625C203.468 158.226 202.421 156.487 201.13 155.742L135.607 117.912C134.315 117.166 132.221 117.166 130.93 117.912L33.8216 173.971C32.5303 174.717 31.4834 176.456 31.4834 177.854Z" fill="#37474F"/>
<path d="M101.685 215.065V220.125C100.837 220.125 99.9893 219.942 99.3466 219.569L33.8211 181.738C32.5303 180.993 31.4829 179.254 31.4829 177.855C31.4829 176.542 32.4064 174.933 33.5838 174.123C32.5359 174.874 32.6174 175.976 33.8216 176.673L99.3471 214.504C99.9887 214.876 100.837 215.065 101.685 215.065Z" fill="#263238"/>
<path d="M29.2894 174.055C28.078 173.356 27.0958 171.58 27.0958 170.088L27.0953 91.8962C27.0953 90.4051 28.1423 88.5916 29.4336 87.8457L126.541 31.7865C127.832 31.0406 129.862 31.0032 131.073 31.703C132.285 32.4023 133.267 34.1783 133.267 35.67V113.862C133.267 115.353 132.22 117.167 130.929 117.913L33.8216 173.971C32.5303 174.717 30.5012 174.755 29.2894 174.055Z" fill="#455A64"/>
<path d="M33.5454 174.113C32.2546 174.717 30.4183 174.707 29.2899 174.053C28.0801 173.356 27.0974 171.58 27.0974 170.089V91.8943C27.0974 91.1489 27.3565 90.3227 27.783 89.5935L32.1685 92.121V92.126C31.7476 92.8608 31.4829 93.6815 31.4829 94.4268V172.622C31.4824 174.004 32.3846 174.625 33.5454 174.113Z" fill="#263238"/>
<path d="M31.4829 94.4292V172.621C31.4829 174.113 32.5298 174.717 33.8211 173.971L130.929 117.912C132.22 117.166 133.267 115.353 133.267 113.862V35.67C133.267 34.1788 132.22 33.5741 130.929 34.32L33.8216 90.3787C32.5303 91.1245 31.4829 92.938 31.4829 94.4292Z" fill="#37474F"/>
<path d="M33.8216 176.672L99.3451 214.501C100.636 215.247 102.731 215.247 104.022 214.501L201.13 158.442C202.421 157.696 202.421 156.488 201.13 155.742L135.607 117.912C134.315 117.166 132.221 117.166 130.93 117.912L33.8216 173.971C32.5303 174.717 32.5303 175.926 33.8216 176.672Z" fill="#455A64"/>
<path d="M35.0795 93.3814L128.971 39.1918C129.746 38.7445 130.374 39.1073 130.374 40.0019V112.145C130.374 113.039 129.746 114.128 128.971 114.575L35.0795 168.764C34.3048 169.212 33.6764 168.849 33.6764 167.954V95.8117C33.6764 94.9171 34.3043 93.8287 35.0795 93.3814Z" fill="#2B8761"/>
<path opacity="0.4" d="M35.0795 93.3814L128.971 39.1918C129.746 38.7445 130.374 39.1073 130.374 40.0019V112.145C130.374 113.039 129.746 114.128 128.971 114.575L35.0795 168.764C34.3048 169.212 33.6764 168.849 33.6764 167.954V95.8117C33.6764 94.9171 34.3043 93.8287 35.0795 93.3814Z" fill="black"/>
<path d="M41.4273 174.647L132.099 122.304C132.745 121.931 133.792 121.931 134.438 122.304L138.694 124.761C139.34 125.134 139.34 125.738 138.694 126.111L48.0099 178.447C47.3642 178.82 46.3168 178.819 45.6711 178.447L41.4273 175.997C40.7816 175.624 40.7811 175.02 41.4273 174.647Z" fill="#37474F"/>
<path d="M52.3968 180.98L143.067 128.636C143.713 128.263 144.76 128.263 145.406 128.636L171.586 143.752C172.232 144.125 172.232 144.729 171.586 145.102L81.0106 197.379C80.365 197.752 79.317 197.753 78.6699 197.383L52.3988 182.326C51.7522 181.955 51.7512 181.352 52.3968 180.98Z" fill="#263238"/>
<path d="M132.076 150.892L134.931 149.244C135.052 149.174 135.054 149.061 134.936 148.993L131.923 147.253C131.804 147.184 131.609 147.186 131.488 147.256L128.633 148.904C128.512 148.973 128.51 149.086 128.629 149.155L131.642 150.894C131.76 150.963 131.955 150.962 132.076 150.892ZM127.184 144.771L124.329 146.419C124.208 146.489 124.206 146.602 124.325 146.67L127.337 148.41C127.456 148.479 127.651 148.477 127.772 148.407L130.627 146.759C130.748 146.689 130.75 146.576 130.631 146.508L127.618 144.768C127.499 144.7 127.305 144.701 127.184 144.771ZM117.961 150.096L113.129 152.885C113.008 152.955 113.006 153.067 113.125 153.136L116.138 154.875C116.257 154.944 116.451 154.943 116.572 154.873L121.403 152.084C121.524 152.014 121.527 151.901 121.408 151.833L118.395 150.093C118.276 150.025 118.082 150.026 117.961 150.096ZM123.011 147.18L120.156 148.828C120.035 148.898 120.033 149.011 120.152 149.079L123.165 150.819C123.284 150.888 123.479 150.886 123.6 150.816L126.454 149.168C126.576 149.098 126.578 148.986 126.459 148.917L123.446 147.178C123.327 147.108 123.133 147.11 123.011 147.18ZM111.812 153.646L108.957 155.294C108.836 155.364 108.834 155.477 108.952 155.545L111.966 157.284C112.085 157.353 112.279 157.352 112.4 157.282L115.255 155.633C115.376 155.564 115.378 155.451 115.259 155.382L112.246 153.643C112.128 153.574 111.933 153.576 111.812 153.646ZM107.639 156.055L104.784 157.703C104.663 157.773 104.662 157.886 104.78 157.954L107.793 159.693C107.912 159.762 108.106 159.761 108.227 159.691L111.082 158.042C111.204 157.972 111.206 157.86 111.086 157.791L108.073 156.052C107.956 155.984 107.761 155.985 107.639 156.055ZM119.471 163.139L122.326 161.491C122.447 161.421 122.449 161.308 122.33 161.24L119.317 159.5C119.198 159.431 119.004 159.433 118.883 159.503L116.028 161.151C115.906 161.221 115.904 161.333 116.023 161.402L119.036 163.141C119.155 163.211 119.35 163.209 119.471 163.139ZM115.299 165.548L118.154 163.9C118.275 163.83 118.277 163.718 118.158 163.649L115.145 161.91C115.026 161.841 114.832 161.842 114.711 161.912L111.856 163.56C111.734 163.63 111.733 163.743 111.851 163.811L114.864 165.551C114.983 165.619 115.178 165.618 115.299 165.548ZM111.127 167.957L113.982 166.308C114.103 166.239 114.105 166.126 113.986 166.058L110.973 164.318C110.854 164.249 110.659 164.251 110.538 164.32L107.683 165.968C107.561 166.039 107.56 166.151 107.679 166.219L110.692 167.959C110.811 168.028 111.005 168.027 111.127 167.957ZM106.954 170.366L109.809 168.718C109.931 168.648 109.932 168.535 109.813 168.467L106.8 166.728C106.681 166.66 106.487 166.66 106.366 166.73L103.511 168.379C103.389 168.448 103.387 168.561 103.506 168.63L106.519 170.369C106.638 170.437 106.833 170.436 106.954 170.366ZM127.904 153.301L130.758 151.653C130.88 151.583 130.881 151.47 130.763 151.402L127.75 149.662C127.631 149.593 127.437 149.595 127.316 149.665L124.461 151.313C124.339 151.383 124.337 151.495 124.456 151.564L127.469 153.304C127.588 153.372 127.782 153.371 127.904 153.301ZM123.644 160.73L130.012 157.054C130.133 156.983 130.135 156.871 130.016 156.803L122.699 152.578C122.58 152.509 122.385 152.511 122.264 152.581L118.97 154.482C118.849 154.553 118.847 154.665 118.966 154.733L122.84 156.97C122.959 157.038 122.956 157.151 122.835 157.221L120.2 158.742C120.079 158.812 120.077 158.925 120.196 158.993L123.208 160.733C123.327 160.802 123.523 160.8 123.644 160.73ZM103.467 158.463L100.613 160.112C100.492 160.182 100.49 160.295 100.608 160.363L103.621 162.103C103.74 162.171 103.935 162.17 104.056 162.1L106.911 160.452C107.032 160.382 107.034 160.269 106.915 160.201L103.902 158.461C103.783 158.393 103.589 158.394 103.467 158.463ZM99.2949 160.873L96.4401 162.521C96.3186 162.591 96.3166 162.703 96.436 162.772L99.4487 164.511C99.5676 164.58 99.7624 164.578 99.8834 164.509L102.738 162.861C102.86 162.791 102.861 162.678 102.743 162.61L99.7296 160.87C99.6106 160.801 99.4163 160.803 99.2949 160.873ZM77.3132 187.231C77.4322 187.299 77.6265 187.298 77.7479 187.229L80.6028 185.581C80.7237 185.511 80.7257 185.398 80.6068 185.33L77.5941 183.59C77.4752 183.522 77.2804 183.523 77.1594 183.593L74.3046 185.241C74.1831 185.311 74.1811 185.424 74.3 185.492L77.3132 187.231ZM65.9166 180.144L63.0618 181.792C62.9403 181.861 62.9383 181.974 63.0577 182.043L66.0704 183.782C66.1893 183.85 66.3842 183.849 66.5051 183.779L69.3599 182.131C69.4814 182.061 69.4829 181.948 69.364 181.88L66.3513 180.141C66.2324 180.073 66.0381 180.073 65.9166 180.144ZM71.9112 185.38C72.0301 185.448 72.2249 185.447 72.3458 185.377L75.2007 183.729C75.3221 183.659 75.3237 183.546 75.2048 183.478L72.192 181.738C72.0731 181.669 71.8783 181.671 71.7574 181.74L68.9025 183.389C68.7811 183.459 68.7791 183.571 68.898 183.639L71.9112 185.38ZM84.248 188.445L87.1028 186.797C87.2243 186.727 87.2263 186.615 87.1074 186.546L84.0947 184.807C83.9758 184.739 83.7809 184.74 83.6595 184.809L80.8046 186.457C80.6837 186.527 80.6817 186.64 80.8006 186.708L83.8133 188.447C83.9322 188.516 84.127 188.515 84.248 188.445ZM79.6414 190.857C79.7603 190.925 79.9551 190.924 80.076 190.854L82.9309 189.205C83.0523 189.136 83.0538 189.023 82.9354 188.955L79.9227 187.215C79.8038 187.146 79.6095 187.148 79.488 187.217L76.6332 188.866C76.5123 188.936 76.5097 189.048 76.6286 189.117L79.6414 190.857ZM70.0886 177.734L67.2337 179.383C67.1123 179.453 67.1108 179.565 67.2297 179.633L70.2424 181.373C70.3613 181.441 70.5561 181.44 70.6771 181.371L73.5319 179.722C73.6534 179.652 73.6554 179.54 73.5365 179.471L70.5237 177.731C70.4048 177.664 70.21 177.665 70.0886 177.734ZM90.9499 165.69L88.0951 167.338C87.9742 167.409 87.9721 167.521 88.0911 167.589L91.1038 169.329C91.2227 169.398 91.417 169.396 91.5384 169.326L94.3933 167.678C94.5147 167.608 94.5162 167.496 94.3978 167.427L91.3851 165.687C91.2662 165.619 91.0714 165.62 90.9499 165.69ZM74.2611 175.326L71.4062 176.974C71.2848 177.044 71.2832 177.157 71.4017 177.225L74.4144 178.965C74.5333 179.033 74.7281 179.032 74.849 178.962L77.7039 177.314C77.8253 177.244 77.8268 177.131 77.7079 177.063L74.6952 175.323C74.5768 175.255 74.3825 175.256 74.2611 175.326ZM95.1224 163.281L92.2676 164.93C92.1461 164.999 92.1446 165.112 92.2635 165.181L95.2762 166.92C95.3952 166.989 95.5895 166.988 95.7109 166.918L98.5658 165.27C98.6872 165.199 98.6892 165.087 98.5703 165.019L95.5576 163.279C95.4387 163.21 95.2439 163.211 95.1224 163.281ZM86.778 168.099L83.9231 169.747C83.8017 169.817 83.7997 169.93 83.9186 169.998L86.9318 171.737C87.0507 171.806 87.2455 171.805 87.367 171.735L90.2213 170.087C90.3427 170.017 90.3448 169.904 90.2259 169.836L87.2126 168.097C87.0942 168.028 86.8994 168.029 86.778 168.099ZM82.6055 170.508L79.7507 172.156C79.6292 172.226 79.6272 172.338 79.7461 172.407L82.7588 174.146C82.8777 174.215 83.0725 174.214 83.1935 174.144L86.0483 172.496C86.1693 172.426 86.1713 172.313 86.0524 172.244L83.0397 170.505C82.9218 170.437 82.7269 170.438 82.6055 170.508ZM78.4335 172.917L75.5787 174.565C75.4572 174.635 75.4552 174.748 75.5741 174.816L78.5868 176.555C78.7058 176.624 78.9006 176.623 79.0215 176.553L81.8764 174.904C81.9973 174.835 81.9993 174.722 81.8804 174.653L78.8677 172.914C78.7493 172.845 78.555 172.847 78.4335 172.917ZM98.6098 175.184L101.465 173.536C101.586 173.466 101.588 173.353 101.469 173.285L98.4565 171.545C98.3376 171.476 98.1427 171.478 98.0218 171.548L95.167 173.196C95.0455 173.266 95.044 173.378 95.1629 173.447L98.1756 175.186C98.294 175.255 98.4883 175.254 98.6098 175.184ZM136.406 139.446L133.552 141.094C133.43 141.164 133.429 141.276 133.547 141.345L136.56 143.085C136.679 143.153 136.874 143.152 136.995 143.082L139.85 141.434C139.971 141.364 139.973 141.252 139.854 141.183L136.842 139.443C136.723 139.375 136.528 139.376 136.406 139.446ZM131.356 142.362L128.501 144.011C128.379 144.08 128.378 144.193 128.496 144.262L131.509 146.001C131.628 146.07 131.823 146.068 131.944 145.999L134.798 144.351C134.92 144.28 134.921 144.168 134.803 144.1L131.79 142.36C131.672 142.291 131.477 142.292 131.356 142.362ZM140.578 137.037L137.724 138.685C137.603 138.755 137.601 138.868 137.72 138.937L140.733 140.676C140.851 140.745 141.046 140.744 141.167 140.674L144.022 139.025C144.144 138.955 144.146 138.843 144.027 138.774L141.014 137.035C140.895 136.966 140.7 136.967 140.578 137.037ZM118.242 158.879L121.096 157.231C121.218 157.161 121.219 157.049 121.1 156.98L118.088 155.241C117.969 155.172 117.774 155.173 117.653 155.243L114.798 156.892C114.677 156.962 114.675 157.074 114.794 157.143L117.806 158.882C117.926 158.951 118.12 158.949 118.242 158.879ZM145.186 134.626C145.068 134.557 144.872 134.559 144.751 134.628L141.897 136.276C141.776 136.347 141.774 136.459 141.893 136.527L144.905 138.267C145.024 138.336 145.218 138.334 145.34 138.264L148.195 136.616C148.316 136.546 148.318 136.434 148.199 136.365L145.186 134.626ZM102.782 172.775L105.637 171.127C105.759 171.057 105.76 170.944 105.641 170.876L102.628 169.137C102.51 169.068 102.315 169.069 102.194 169.139L99.3389 170.788C99.2175 170.857 99.216 170.97 99.3349 171.039L102.348 172.778C102.466 172.846 102.661 172.845 102.782 172.775ZM153.948 143.234L156.803 141.586C156.924 141.517 156.926 141.404 156.807 141.335L153.794 139.596C153.675 139.527 153.481 139.528 153.359 139.599L150.505 141.247C150.384 141.317 150.381 141.429 150.5 141.498L153.513 143.237C153.632 143.305 153.827 143.304 153.948 143.234ZM145.471 143.158L148.326 141.51C148.447 141.44 148.449 141.328 148.33 141.259L145.318 139.519C145.199 139.451 145.004 139.452 144.883 139.522L142.028 141.17C141.907 141.24 141.905 141.353 142.024 141.421L145.036 143.161C145.155 143.23 145.35 143.228 145.471 143.158ZM149.49 137.111C149.372 137.042 149.176 137.043 149.055 137.113L146.201 138.762C146.08 138.832 146.078 138.945 146.197 139.013L149.209 140.752C149.328 140.821 149.523 140.82 149.644 140.75L152.499 139.102C152.62 139.032 152.622 138.919 152.503 138.851L149.49 137.111ZM150.369 136.604L157.685 140.828C157.804 140.897 157.998 140.896 158.12 140.826L160.975 139.178C161.096 139.107 161.098 138.995 160.979 138.927L153.662 134.702C153.543 134.634 153.348 134.635 153.227 134.705L150.372 136.353C150.252 136.422 150.25 136.535 150.369 136.604ZM140.711 141.931L137.856 143.579C137.734 143.649 137.732 143.762 137.851 143.83L140.864 145.569C140.983 145.638 141.178 145.637 141.299 145.567L144.154 143.918C144.275 143.848 144.277 143.736 144.158 143.668L141.146 141.928C141.027 141.86 140.832 141.861 140.711 141.931ZM109.309 160.061L106.454 161.709C106.332 161.779 106.33 161.892 106.449 161.96L109.462 163.7C109.581 163.769 109.776 163.767 109.897 163.698L112.751 162.049C112.873 161.979 112.874 161.867 112.756 161.799L109.743 160.059C109.624 159.99 109.43 159.991 109.309 160.061ZM149.341 145.645C149.459 145.714 149.655 145.713 149.775 145.643L152.63 143.995C152.751 143.925 152.753 143.812 152.634 143.744L149.622 142.004C149.503 141.935 149.308 141.937 149.187 142.007L146.332 143.655C146.211 143.725 146.209 143.838 146.328 143.906L149.341 145.645ZM113.481 157.652L110.626 159.3C110.504 159.371 110.503 159.483 110.622 159.551L113.634 161.291C113.753 161.36 113.948 161.358 114.069 161.288L116.924 159.64C117.045 159.57 117.047 159.457 116.928 159.389L113.916 157.649C113.797 157.581 113.602 157.582 113.481 157.652ZM81.4857 184.822C81.6046 184.891 81.7994 184.889 81.9204 184.819L84.7752 183.171C84.8962 183.101 84.8982 182.989 84.7793 182.92L81.7666 181.181C81.6476 181.112 81.4533 181.114 81.3319 181.183L78.4771 182.832C78.3556 182.902 78.3541 183.015 78.4725 183.083L81.4857 184.822ZM75.9298 179.332L73.075 180.98C72.9536 181.05 72.952 181.163 73.0709 181.231L76.0837 182.971C76.2026 183.04 76.3974 183.038 76.5183 182.969L79.3732 181.32C79.4946 181.25 79.4966 181.138 79.3772 181.07L76.3645 179.33C76.2461 179.261 76.0513 179.262 75.9298 179.332ZM86.0929 182.41L88.9477 180.762C89.0691 180.693 89.0712 180.58 88.9523 180.511L85.939 178.772C85.8201 178.703 85.6253 178.704 85.5044 178.775L82.6495 180.423C82.5286 180.493 82.5266 180.606 82.6455 180.674L85.6587 182.413C85.7766 182.481 85.9714 182.481 86.0929 182.41ZM90.2648 180.002L93.1197 178.354C93.2411 178.283 93.2431 178.171 93.1242 178.103L90.111 176.363C89.9926 176.294 89.7978 176.296 89.6763 176.366L86.8215 178.014C86.7006 178.084 86.698 178.196 86.8175 178.265L89.8307 180.004C89.9491 180.073 90.1439 180.072 90.2648 180.002ZM94.4373 177.593L97.2921 175.945C97.4136 175.874 97.4151 175.762 97.2967 175.693L94.284 173.954C94.1651 173.885 93.9708 173.886 93.8493 173.957L90.9945 175.605C90.873 175.675 90.871 175.787 90.9899 175.856L94.0026 177.595C94.1216 177.664 94.3159 177.663 94.4373 177.593ZM80.1023 176.923L77.2475 178.571C77.126 178.641 77.1245 178.754 77.2429 178.822L80.2561 180.561C80.3751 180.63 80.5694 180.629 80.6908 180.559L83.5457 178.911C83.6671 178.841 83.6686 178.728 83.5502 178.66L80.5375 176.921C80.4181 176.852 80.2238 176.853 80.1023 176.923ZM84.2748 174.514L81.4199 176.162C81.2985 176.233 81.2965 176.345 81.4154 176.413L84.4281 178.153C84.547 178.222 84.7418 178.22 84.8628 178.15L87.7176 176.502C87.8386 176.432 87.8406 176.32 87.7217 176.251L84.7089 174.511C84.5905 174.443 84.3957 174.444 84.2748 174.514ZM100.964 164.879L98.1088 166.527C97.9874 166.597 97.9859 166.71 98.1048 166.778L101.118 168.517C101.236 168.586 101.431 168.585 101.552 168.515L104.407 166.867C104.528 166.797 104.53 166.684 104.412 166.616L101.398 164.876C101.28 164.808 101.085 164.809 100.964 164.879ZM96.7917 167.288L93.9369 168.936C93.8159 169.005 93.8134 169.118 93.9328 169.187L96.9455 170.926C97.0645 170.995 97.2593 170.994 97.3802 170.924L100.235 169.276C100.356 169.205 100.359 169.093 100.24 169.024L97.2269 167.285C97.1075 167.216 96.9127 167.218 96.7917 167.288ZM105.136 162.47L102.281 164.118C102.16 164.188 102.158 164.301 102.277 164.369L105.289 166.109C105.408 166.177 105.603 166.176 105.724 166.106L108.579 164.458C108.7 164.388 108.702 164.275 108.583 164.207L105.57 162.467C105.452 162.399 105.258 162.4 105.136 162.47ZM88.4473 172.105L85.5924 173.754C85.471 173.824 85.469 173.936 85.5879 174.005L88.6006 175.744C88.7195 175.813 88.9138 175.812 89.0352 175.742L91.8901 174.094C92.0115 174.023 92.0136 173.912 91.8947 173.843L88.8814 172.104C88.763 172.034 88.5682 172.035 88.4473 172.105ZM92.6192 169.697L89.7644 171.345C89.6429 171.415 89.6409 171.527 89.7603 171.596L92.7731 173.335C92.8915 173.404 93.0863 173.403 93.2077 173.333L96.0626 171.684C96.184 171.614 96.186 171.502 96.0671 171.433L93.0539 169.694C92.9355 169.625 92.7402 169.627 92.6192 169.697ZM88.4205 186.036L91.2753 184.388C91.3967 184.318 91.3983 184.206 91.2799 184.137L88.2666 182.397C88.1477 182.328 87.9529 182.329 87.832 182.4L84.9771 184.048C84.8557 184.118 84.8537 184.23 84.9726 184.299L87.9853 186.038C88.1047 186.107 88.299 186.106 88.4205 186.036ZM65.192 184.289L62.1788 182.55C62.0599 182.481 61.8656 182.482 61.7441 182.552L58.8893 184.2C58.7678 184.27 58.7658 184.382 58.8847 184.451L61.8975 186.191C62.0164 186.259 62.2112 186.258 62.3326 186.188L65.1875 184.54C65.3084 184.47 65.3104 184.358 65.192 184.289ZM71.0328 185.887L68.0201 184.148C67.9011 184.079 67.7068 184.08 67.5854 184.151L63.1933 186.686C63.0719 186.756 63.0704 186.869 63.1893 186.937L66.202 188.676C66.3209 188.745 66.5152 188.744 66.6366 188.674L71.0287 186.138C71.1497 186.068 71.1517 185.955 71.0328 185.887ZM60.6269 180.893L57.6142 179.154C57.4953 179.085 57.3009 179.086 57.1795 179.156L53.6658 181.185C53.5449 181.255 53.5424 181.368 53.6613 181.436L56.674 183.175C56.7929 183.244 56.9877 183.243 57.1087 183.173L60.6223 181.144C60.7438 181.074 60.7458 180.962 60.6269 180.893ZM63.3208 179.338C63.4392 179.407 63.634 179.405 63.7555 179.335L66.6103 177.687C66.7318 177.617 66.7338 177.505 66.6149 177.436L63.6022 175.696C63.4833 175.627 63.2884 175.629 63.167 175.699L60.3127 177.347C60.1912 177.417 60.1892 177.53 60.3081 177.598L63.3208 179.338ZM76.4348 187.738L73.4221 185.998C73.3032 185.93 73.1084 185.931 72.9875 186.001L67.4974 189.171C67.3759 189.241 67.3744 189.353 67.4933 189.422L70.506 191.161C70.6249 191.23 70.8192 191.228 70.9407 191.159L76.4308 187.989C76.5517 187.919 76.5537 187.806 76.4348 187.738ZM78.7629 191.364L75.7497 189.624C75.6313 189.556 75.4365 189.557 75.3151 189.627L71.8014 191.656C71.6799 191.725 71.6779 191.838 71.7968 191.907L74.8096 193.646C74.9285 193.715 75.1233 193.713 75.2442 193.644L78.7579 191.615C78.8798 191.545 78.8813 191.432 78.7629 191.364ZM94.3422 161.428C94.4606 161.496 94.6554 161.495 94.7768 161.425L97.6317 159.777C97.7531 159.707 97.7551 159.594 97.6362 159.526L94.6235 157.786C94.5046 157.717 94.3098 157.719 94.1884 157.788L91.334 159.437C91.2126 159.507 91.2105 159.619 91.3294 159.687L94.3422 161.428ZM85.9972 166.246C86.1161 166.315 86.3109 166.313 86.4319 166.243L89.2867 164.595C89.4082 164.525 89.4097 164.413 89.2908 164.344L86.278 162.604C86.1591 162.535 85.9648 162.537 85.8434 162.607L82.9885 164.255C82.8671 164.325 82.8656 164.437 82.984 164.506L85.9972 166.246ZM67.4928 176.929C67.6117 176.998 67.8065 176.997 67.9275 176.926L70.7823 175.278C70.9037 175.209 70.9058 175.096 70.7869 175.027L67.7741 173.288C67.6552 173.219 67.4609 173.22 67.3395 173.29L64.4846 174.938C64.3637 175.008 64.3612 175.121 64.4806 175.189L67.4928 176.929ZM90.1697 163.837C90.2886 163.905 90.4834 163.904 90.6044 163.834L93.4592 162.186C93.5806 162.116 93.5822 162.003 93.4633 161.935L90.4505 160.196C90.3316 160.127 90.1373 160.128 90.0159 160.198L87.161 161.846C87.0396 161.916 87.0376 162.029 87.1565 162.097L90.1697 163.837ZM81.8253 168.654C81.9442 168.723 82.139 168.722 82.2599 168.652L85.1148 167.004C85.2362 166.934 85.2382 166.821 85.1193 166.753L82.1066 165.014C81.9877 164.945 81.7929 164.946 81.6719 165.016L78.8171 166.664C78.6956 166.735 78.6941 166.847 78.813 166.915L81.8253 168.654ZM80.9322 191.602C80.8133 191.534 80.6184 191.535 80.4975 191.605L76.1054 194.141C75.984 194.21 75.9825 194.323 76.1009 194.391L79.1136 196.131C79.2325 196.199 79.4268 196.198 79.5483 196.128L83.9403 193.593C84.0618 193.523 84.0633 193.41 83.9444 193.342L80.9322 191.602ZM75.8372 172.111C75.9562 172.18 76.151 172.179 76.2719 172.109L79.1268 170.461C79.2482 170.39 79.2497 170.278 79.1313 170.21L76.1186 168.47C75.9997 168.401 75.8049 168.403 75.6834 168.473L72.8286 170.121C72.7071 170.191 72.7056 170.303 72.824 170.372L75.8372 172.111ZM71.6648 174.52C71.7837 174.589 71.9785 174.588 72.0994 174.518L74.9543 172.869C75.0757 172.799 75.0777 172.687 74.9588 172.618L71.9461 170.879C71.8272 170.81 71.6324 170.811 71.5115 170.881L68.6566 172.529C68.5352 172.6 68.5336 172.711 68.6526 172.78L71.6648 174.52ZM158.23 146.975C158.111 146.906 157.917 146.907 157.795 146.977L150.768 151.034C150.647 151.104 150.645 151.217 150.764 151.285L153.777 153.024C153.895 153.093 154.09 153.092 154.212 153.022L161.238 148.965C161.36 148.895 161.362 148.783 161.243 148.714L158.23 146.975ZM149.007 152.299C148.888 152.231 148.694 152.232 148.572 152.302L145.717 153.95C145.596 154.02 145.594 154.133 145.713 154.201L148.726 155.941C148.844 156.009 149.039 156.008 149.161 155.938L152.016 154.289C152.137 154.22 152.139 154.107 152.02 154.038L149.007 152.299ZM92.5929 183.627L95.4478 181.979C95.5687 181.909 95.5707 181.797 95.4518 181.728L92.4391 179.989C92.3202 179.92 92.1254 179.921 92.0045 179.991L89.1496 181.64C89.0282 181.71 89.0261 181.822 89.145 181.891L92.1578 183.63C92.2767 183.699 92.4715 183.698 92.5929 183.627ZM140.662 157.117C140.544 157.048 140.349 157.05 140.228 157.12L137.373 158.768C137.251 158.838 137.25 158.95 137.369 159.019L140.382 160.758C140.501 160.827 140.695 160.825 140.816 160.756L143.671 159.107C143.793 159.037 143.795 158.924 143.676 158.856L140.662 157.117ZM162.402 144.566C162.283 144.497 162.088 144.498 161.968 144.568L159.113 146.217C158.992 146.287 158.99 146.399 159.109 146.468L162.121 148.207C162.24 148.276 162.435 148.275 162.556 148.205L165.411 146.557C165.532 146.486 165.534 146.374 165.415 146.306L162.402 144.566ZM169.587 143.896L162.27 139.672C162.151 139.603 161.957 139.604 161.835 139.674L158.981 141.323C158.859 141.393 158.857 141.505 158.977 141.574L166.293 145.798C166.412 145.867 166.607 145.866 166.728 145.796L169.583 144.147C169.704 144.077 169.706 143.965 169.587 143.896ZM125.071 166.119C124.952 166.05 124.757 166.051 124.636 166.121L121.123 168.15C121.001 168.22 120.999 168.332 121.118 168.401L124.131 170.14C124.25 170.209 124.445 170.208 124.566 170.138L128.079 168.109C128.201 168.04 128.203 167.927 128.084 167.858L125.071 166.119ZM135.612 160.033C135.493 159.964 135.298 159.966 135.177 160.036L130.785 162.572C130.663 162.641 130.662 162.754 130.78 162.823L133.793 164.562C133.912 164.631 134.106 164.63 134.228 164.56L138.62 162.024C138.741 161.954 138.743 161.842 138.624 161.773L135.612 160.033ZM115.409 171.697C115.29 171.629 115.095 171.63 114.974 171.7L91.4777 185.266C91.3563 185.336 91.3542 185.448 91.4732 185.517L94.4859 187.256C94.6048 187.325 94.7991 187.324 94.9205 187.254L118.417 173.688C118.539 173.618 118.541 173.505 118.422 173.437L115.409 171.697ZM90.5947 186.024C90.4758 185.955 90.281 185.956 90.1601 186.026L86.6464 188.055C86.525 188.125 86.5235 188.238 86.6424 188.306L89.6551 190.045C89.774 190.114 89.9688 190.113 90.0897 190.042L93.6034 188.014C93.7243 187.944 93.7264 187.832 93.6075 187.763L90.5947 186.024ZM120.24 168.908C120.121 168.839 119.927 168.841 119.805 168.91L116.292 170.939C116.171 171.009 116.168 171.122 116.287 171.19L119.3 172.929C119.419 172.998 119.614 172.997 119.735 172.927L123.248 170.898C123.369 170.829 123.371 170.716 123.252 170.647L120.24 168.908ZM85.7634 188.813C85.6445 188.744 85.4497 188.746 85.3288 188.815L81.8151 190.844C81.6937 190.914 81.6922 191.027 81.8111 191.095L84.8238 192.835C84.9427 192.903 85.137 192.902 85.2585 192.832L88.7721 190.803C88.8936 190.733 88.8956 190.621 88.7767 190.552L85.7634 188.813ZM129.902 163.33C129.783 163.261 129.589 163.262 129.468 163.332L125.954 165.361C125.833 165.431 125.831 165.543 125.95 165.612L128.963 167.351C129.081 167.42 129.276 167.419 129.397 167.349L132.911 165.32C133.032 165.25 133.034 165.138 132.915 165.069L129.902 163.33ZM144.834 154.708C144.715 154.639 144.521 154.641 144.399 154.71L141.544 156.359C141.423 156.428 141.421 156.541 141.54 156.609L144.553 158.349C144.672 158.417 144.867 158.416 144.988 158.347L147.843 156.699C147.964 156.628 147.966 156.516 147.847 156.448L144.834 154.708ZM154.08 148.128L156.934 146.48C157.056 146.41 157.058 146.297 156.939 146.229L153.926 144.49C153.807 144.421 153.612 144.422 153.492 144.492L150.637 146.14C150.516 146.21 150.514 146.323 150.632 146.391L153.645 148.13C153.763 148.199 153.959 148.198 154.08 148.128ZM136.249 148.483L139.103 146.835C139.225 146.765 139.226 146.652 139.108 146.584L136.095 144.845C135.976 144.776 135.782 144.777 135.66 144.848L132.805 146.496C132.684 146.566 132.682 146.678 132.801 146.747L135.813 148.486C135.932 148.554 136.127 148.553 136.249 148.483ZM125.971 164.356L134.316 159.539C134.437 159.469 134.439 159.356 134.32 159.288L131.307 157.548C131.188 157.48 130.994 157.481 130.872 157.551L122.528 162.368C122.406 162.438 122.404 162.551 122.523 162.619L125.536 164.358C125.655 164.428 125.85 164.427 125.971 164.356ZM149.472 150.54C149.591 150.608 149.786 150.607 149.907 150.537L152.762 148.889C152.883 148.819 152.885 148.706 152.766 148.638L149.754 146.898C149.635 146.83 149.441 146.831 149.319 146.901L146.464 148.549C146.343 148.619 146.341 148.732 146.46 148.8L149.472 150.54ZM145.603 148.053L148.458 146.404C148.579 146.334 148.581 146.221 148.462 146.153L145.449 144.413C145.33 144.345 145.135 144.346 145.015 144.416L142.16 146.064C142.038 146.134 142.036 146.247 142.155 146.315L145.168 148.055C145.287 148.123 145.482 148.122 145.603 148.053ZM121.799 166.765L124.654 165.117C124.776 165.047 124.778 164.935 124.659 164.866L121.646 163.126C121.527 163.057 121.332 163.059 121.211 163.129L118.356 164.777C118.234 164.847 118.233 164.959 118.352 165.028L121.365 166.768C121.483 166.836 121.678 166.835 121.799 166.765ZM140.25 155.865C140.368 155.933 140.563 155.932 140.684 155.862L143.539 154.214C143.66 154.144 143.662 154.031 143.544 153.963L140.53 152.223C140.411 152.154 140.217 152.156 140.096 152.225L137.241 153.874C137.119 153.944 137.117 154.056 137.237 154.125L140.25 155.865ZM100.937 178.81L103.792 177.161C103.913 177.091 103.915 176.979 103.797 176.91L100.784 175.171C100.665 175.102 100.471 175.103 100.349 175.173L97.4946 176.822C97.3731 176.891 97.3716 177.004 97.49 177.073L100.503 178.812C100.622 178.881 100.816 178.88 100.937 178.81ZM105.11 176.401L107.965 174.753C108.086 174.682 108.088 174.57 107.969 174.502L104.956 172.762C104.837 172.694 104.643 172.695 104.521 172.765L101.667 174.413C101.545 174.483 101.544 174.596 101.662 174.664L104.675 176.403C104.794 176.472 104.988 176.471 105.11 176.401ZM96.7654 181.219L99.6203 179.571C99.7417 179.501 99.7437 179.388 99.6243 179.32L96.6116 177.581C96.4927 177.512 96.2979 177.513 96.1769 177.583L93.3221 179.231C93.2006 179.301 93.1991 179.414 93.3175 179.482L96.3303 181.222C96.4492 181.29 96.644 181.289 96.7654 181.219ZM113.454 171.583L116.309 169.935C116.431 169.865 116.433 169.752 116.314 169.684L113.301 167.944C113.182 167.876 112.987 167.877 112.866 167.947L110.011 169.595C109.89 169.665 109.888 169.777 110.007 169.846L113.02 171.586C113.139 171.654 113.333 171.653 113.454 171.583ZM109.282 173.992L112.137 172.344C112.258 172.274 112.26 172.162 112.141 172.093L109.128 170.353C109.01 170.285 108.814 170.286 108.693 170.356L105.838 172.004C105.718 172.074 105.716 172.187 105.834 172.255L108.847 173.995C108.966 174.063 109.161 174.062 109.282 173.992ZM117.627 169.174L120.482 167.526C120.603 167.456 120.605 167.343 120.486 167.275L117.473 165.536C117.355 165.467 117.16 165.468 117.039 165.538L114.184 167.186C114.063 167.256 114.061 167.369 114.18 167.437L117.193 169.177C117.311 169.245 117.505 169.244 117.627 169.174ZM138.576 134.613C138.695 134.681 138.889 134.68 139.01 134.611L141.865 132.962C141.987 132.892 141.988 132.78 141.87 132.711L141.068 132.248C140.949 132.179 140.754 132.181 140.633 132.251L137.778 133.899C137.657 133.969 137.655 134.081 137.774 134.15L138.576 134.613ZM117.942 147.803C118.06 147.871 118.255 147.87 118.376 147.8L121.231 146.152C121.352 146.082 121.354 145.97 121.236 145.901L118.223 144.162C118.104 144.093 117.909 144.094 117.788 144.164L114.933 145.812C114.812 145.882 114.81 145.995 114.929 146.063L117.942 147.803ZM126.286 142.985C126.405 143.054 126.6 143.052 126.721 142.982L129.575 141.334C129.697 141.264 129.698 141.152 129.58 141.083L126.567 139.344C126.448 139.275 126.253 139.276 126.132 139.346L123.277 140.994C123.156 141.064 123.154 141.177 123.273 141.245L126.286 142.985ZM112.847 150.744C112.966 150.813 113.16 150.812 113.281 150.741L116.136 149.093C116.258 149.024 116.259 148.911 116.14 148.842L113.127 147.103C113.009 147.034 112.814 147.035 112.693 147.106L109.838 148.754C109.716 148.824 109.714 148.937 109.833 149.005L112.847 150.744ZM122.113 145.394C122.232 145.463 122.427 145.461 122.548 145.391L125.403 143.743C125.524 143.673 125.526 143.56 125.407 143.492L122.394 141.752C122.276 141.683 122.081 141.685 121.96 141.755L119.105 143.403C118.983 143.473 118.981 143.586 119.1 143.654L122.113 145.394ZM104.502 155.562C104.621 155.63 104.815 155.629 104.936 155.559L107.791 153.911C107.913 153.841 107.915 153.728 107.796 153.659L104.783 151.92C104.664 151.852 104.469 151.853 104.348 151.923L101.493 153.571C101.372 153.641 101.37 153.754 101.489 153.822L104.502 155.562ZM108.674 153.153C108.793 153.221 108.988 153.22 109.109 153.15L111.964 151.502C112.085 151.432 112.087 151.32 111.968 151.251L108.955 149.511C108.836 149.442 108.642 149.444 108.52 149.514L105.665 151.162C105.544 151.232 105.542 151.345 105.661 151.413L108.674 153.153ZM130.231 139.431C130.35 139.5 130.545 139.498 130.666 139.428L133.521 137.78C133.642 137.71 133.644 137.598 133.525 137.529L132.723 137.066C132.604 136.997 132.41 136.998 132.289 137.068L129.434 138.717C129.312 138.787 129.31 138.899 129.429 138.968L130.231 139.431ZM142.748 132.204C142.867 132.273 143.062 132.272 143.183 132.202L146.038 130.554C146.159 130.483 146.161 130.371 146.042 130.303L145.24 129.84C145.121 129.771 144.926 129.772 144.805 129.843L141.95 131.491C141.829 131.56 141.827 131.673 141.946 131.742L142.748 132.204ZM149.077 135.858C149.196 135.927 149.391 135.925 149.512 135.855L152.367 134.207C152.488 134.137 152.49 134.025 152.371 133.956L149.358 132.217C149.24 132.148 149.044 132.149 148.923 132.219L146.069 133.868C145.947 133.938 145.945 134.05 146.064 134.119L149.077 135.858ZM158.252 145.719L161.107 144.071C161.228 144.001 161.23 143.889 161.111 143.82L158.099 142.08C157.98 142.011 157.785 142.013 157.664 142.083L154.809 143.731C154.688 143.801 154.686 143.913 154.805 143.982L157.818 145.721C157.936 145.791 158.131 145.789 158.252 145.719ZM134.404 137.022C134.523 137.091 134.717 137.09 134.838 137.019L137.693 135.371C137.815 135.301 137.817 135.188 137.698 135.12L136.896 134.657C136.777 134.588 136.582 134.589 136.461 134.66L133.606 136.308C133.485 136.378 133.483 136.49 133.602 136.559L134.404 137.022ZM100.33 157.971C100.449 158.039 100.643 158.038 100.764 157.968L103.619 156.32C103.741 156.25 103.743 156.137 103.624 156.069L100.611 154.329C100.492 154.261 100.297 154.262 100.176 154.332L97.3215 155.981C97.2006 156.05 97.1985 156.163 97.3175 156.231L100.33 157.971Z" fill="#455A64"/>
<path d="M115.612 182.499L141.324 167.654C142.099 167.207 143.355 167.207 144.131 167.654L158.874 176.167C159.649 176.614 159.649 177.339 158.874 177.787L133.162 192.632C132.387 193.079 131.131 193.079 130.356 192.632L115.612 184.119C114.837 183.672 114.837 182.946 115.612 182.499Z" fill="#263238"/>
<path d="M111.261 69.9508C103.223 77.1689 96.2807 76.7904 91.9407 73.4488C87.6053 81.8033 80.6635 90.1933 72.6252 92.2563L68.0358 104.652C68.0358 104.652 70.4954 107.486 70.4954 114.268C70.4954 117.325 70.0274 120.011 69.359 122.68C68.5215 126.026 67.4433 129.488 67.4433 135.267C67.4433 139.188 67.9599 142.998 69.9429 146.465C71.088 148.47 72.7411 150.167 74.969 151.5C73.4854 150.644 69.1186 148.122 67.9912 147.472C65.6297 146.113 63.8921 144.366 62.702 142.286C60.719 138.814 60.2024 135.009 60.2024 131.088C60.2024 125.309 61.2807 121.847 62.1181 118.496C62.7865 115.832 63.2586 113.145 63.2586 110.089C63.2586 103.307 60.799 100.473 60.799 100.473L65.3838 88.0772C73.4221 86.0143 80.364 77.6243 84.6994 69.2697C89.0393 72.6113 95.9812 72.9903 104.019 65.7717L111.261 69.9508Z" fill="#2B8761"/>
<path opacity="0.8" d="M87.2451 70.738L84.7004 69.269C85.4691 69.8611 86.3212 70.3574 87.2451 70.738Z" fill="white"/>
<path opacity="0.85" d="M104.02 65.771C97.4061 71.7104 91.5355 72.5038 87.2451 70.7379L91.9408 73.4485C96.2808 76.7902 103.223 77.1692 111.261 69.9506L104.02 65.771Z" fill="white"/>
<path opacity="0.65" d="M84.7004 69.269C80.365 77.6236 73.4232 86.0136 65.3849 88.0766L72.6252 92.2561C80.6636 90.1932 87.6054 81.8032 91.9408 73.4486L84.7004 69.269Z" fill="white"/>
<path opacity="0.55" d="M65.3848 88.0764L60.7994 100.472L68.0357 104.651L72.6252 92.256L65.3848 88.0764Z" fill="white"/>
<path opacity="0.4" d="M69.9429 146.464C67.9599 142.998 67.4432 139.188 67.4432 135.267C67.4432 129.488 68.5215 126.026 69.359 122.68C70.0274 120.011 70.4954 117.324 70.4954 114.267C70.4954 107.486 68.0358 104.652 68.0358 104.652L60.7995 100.472C60.7995 100.472 63.2591 103.307 63.2591 110.088C63.2591 113.145 62.7865 115.832 62.1186 118.496C61.2812 121.846 60.2029 125.308 60.2029 131.087C60.2029 135.008 60.7195 138.814 62.7025 142.285C63.8921 144.365 65.6297 146.112 67.9917 147.471C69.1191 148.122 73.4854 150.644 74.9695 151.499C72.7411 150.167 71.088 148.469 69.9429 146.464Z" fill="white"/>
<path opacity="0.05" d="M69.9429 146.464C67.9599 142.998 67.4432 139.188 67.4432 135.267C67.4432 129.488 68.5215 126.026 69.359 122.68C70.0274 120.011 70.4954 117.324 70.4954 114.267C70.4954 107.486 68.0358 104.652 68.0358 104.652L60.7995 100.472C60.7995 100.472 63.2591 103.307 63.2591 110.088C63.2591 113.145 62.7865 115.832 62.1186 118.496C61.2812 121.846 60.2029 125.308 60.2029 131.087C60.2029 135.008 60.7195 138.814 62.7025 142.285C63.8921 144.365 65.6297 146.112 67.9917 147.471C69.1191 148.122 73.4854 150.644 74.9695 151.499C72.7411 150.167 71.088 148.469 69.9429 146.464Z" fill="black"/>
<path d="M91.9422 154.954C79.9363 155.088 73.0593 151.921 69.9418 146.463C67.9608 142.996 67.4442 139.187 67.4442 135.266C67.4442 129.487 68.5195 126.027 69.3584 122.678C70.0263 120.012 70.4974 117.324 70.4974 114.269C70.4974 107.488 68.0378 104.653 68.0378 104.653L72.6246 92.2555C80.6624 90.1925 87.6043 81.801 91.9422 73.4464C96.2801 76.7916 103.222 77.1676 111.26 69.9495L115.847 77.0512C115.847 77.0512 113.387 82.7249 113.387 89.5064C113.387 92.5606 113.858 94.7055 114.526 96.6C115.365 98.9802 116.44 101.2 116.44 106.978C116.44 110.899 115.924 115.304 113.943 121.059C110.825 130.117 103.948 141.225 91.9422 154.954Z" fill="#2B8761"/>
<path opacity="0.75" d="M91.9422 154.954C79.9363 155.088 73.0593 151.921 69.9418 146.463C67.9608 142.996 67.4442 139.187 67.4442 135.266C67.4442 129.487 68.5195 126.027 69.3584 122.678C70.0263 120.012 70.4974 117.324 70.4974 114.269C70.4974 107.488 68.0378 104.653 68.0378 104.653L72.6246 92.2555C80.6624 90.1925 87.6043 81.801 91.9422 73.4464C96.2801 76.7916 103.222 77.1676 111.26 69.9495L115.847 77.0512C115.847 77.0512 113.387 82.7249 113.387 89.5064C113.387 92.5606 113.858 94.7055 114.526 96.6C115.365 98.9802 116.44 101.2 116.44 106.978C116.44 110.899 115.924 115.304 113.943 121.059C110.825 130.117 103.948 141.225 91.9422 154.954Z" fill="white"/>
<path opacity="0.75" d="M90.5204 151.835C81.2206 151.725 75.2098 149.398 72.6495 144.916C71.2064 142.389 70.5632 139.413 70.5632 135.266C70.5632 130.52 71.3415 127.496 72.0939 124.571C72.192 124.189 72.2897 123.811 72.3838 123.435C73.2364 120.033 73.6164 117.206 73.6164 114.268C73.6164 109.328 72.4324 106.092 71.4927 104.303L75.0125 94.789C83.616 91.798 89.8337 83.3038 93.1283 77.7317C94.8801 78.4796 96.7761 78.8667 98.7414 78.8667C102.629 78.8667 106.58 77.42 110.524 74.5591L112.374 77.4225C111.571 79.7441 110.268 84.3132 110.268 89.5063C110.268 92.5459 110.674 95.0531 111.584 97.6362C111.681 97.9115 111.78 98.1832 111.881 98.458C112.621 100.479 113.321 102.39 113.321 106.978C113.321 111.337 112.603 115.367 110.993 120.043C107.925 128.96 101.039 139.651 90.5204 151.835Z" fill="#2B8761"/>
<path opacity="0.4" d="M90.5204 151.835C81.2206 151.725 75.2098 149.398 72.6495 144.916C71.2064 142.389 70.5632 139.413 70.5632 135.266C70.5632 130.52 71.3415 127.496 72.0939 124.571C72.192 124.189 72.2897 123.811 72.3838 123.435C73.2364 120.033 73.6164 117.206 73.6164 114.268C73.6164 109.328 72.4324 106.092 71.4927 104.303L75.0125 94.789C83.616 91.798 89.8337 83.3038 93.1283 77.7317C94.8801 78.4796 96.7761 78.8667 98.7414 78.8667C102.629 78.8667 106.58 77.42 110.524 74.5591L112.374 77.4225C111.571 79.7441 110.268 84.3132 110.268 89.5063C110.268 92.5459 110.674 95.0531 111.584 97.6362C111.681 97.9115 111.78 98.1832 111.881 98.458C112.621 100.479 113.321 102.39 113.321 106.978C113.321 111.337 112.603 115.367 110.993 120.043C107.925 128.96 101.039 139.651 90.5204 151.835Z" fill="white"/>
<path opacity="0.15" d="M90.5204 151.835C81.2206 151.725 75.2098 149.398 72.6495 144.916C71.2064 142.389 70.5632 139.413 70.5632 135.266C70.5632 130.52 71.3415 127.496 72.0939 124.571C72.192 124.189 72.2897 123.811 72.3838 123.435C73.2364 120.033 73.6164 117.206 73.6164 114.268C73.6164 109.328 72.4324 106.092 71.4927 104.303L75.0125 94.789C83.616 91.798 89.8337 83.3038 93.1283 77.7317C94.8801 78.4796 96.7761 78.8667 98.7414 78.8667C102.629 78.8667 106.58 77.42 110.524 74.5591L112.374 77.4225C111.571 79.7441 110.268 84.3132 110.268 89.5063C110.268 92.5459 110.674 95.0531 111.584 97.6362C111.681 97.9115 111.78 98.1832 111.881 98.458C112.621 100.479 113.321 102.39 113.321 106.978C113.321 111.337 112.603 115.367 110.993 120.043C107.925 128.96 101.039 139.651 90.5204 151.835Z" fill="black"/>
<path opacity="0.8" d="M74.7797 147.495C77.9472 150.288 83.2137 151.749 90.5203 151.835L85.8575 149.179C81.6861 149.154 77.974 148.615 74.7797 147.495Z" fill="white"/>
<path opacity="0.15" d="M109.945 76.0219L112.374 77.423L110.524 74.5591L109.47 75.2862L109.945 76.0219Z" fill="black"/>
<path d="M109.155 96.2363C108.246 93.6532 107.84 91.1454 107.84 88.1064C107.84 82.9133 109.143 78.3436 109.945 76.0226L109.47 75.2869C105.877 77.663 102.283 78.8678 98.7418 78.8678C96.7765 78.8678 94.8806 78.4812 93.1288 77.7329C89.8342 83.3049 83.6165 91.7992 75.013 94.7901L71.4932 104.304C72.4329 106.094 73.6169 109.33 73.6169 114.27C73.6169 117.207 73.2364 120.034 72.3843 123.436C72.2902 123.812 72.193 124.19 72.0944 124.572C71.342 127.497 70.5637 130.521 70.5637 135.267C70.5637 139.414 71.2074 142.391 72.65 144.918C73.3781 146.192 74.3952 147.286 75.6774 148.211C78.7852 149.627 82.9299 150.374 88.0926 150.435C98.6113 138.251 105.497 127.559 108.565 118.644C110.175 113.967 110.893 109.938 110.893 105.579C110.893 100.99 110.194 99.0805 109.453 97.0585C109.352 96.7828 109.252 96.511 109.155 96.2363Z" fill="#455A64"/>
<path d="M75.013 94.7897L71.4932 104.303C72.4329 106.093 73.6169 109.329 73.6169 114.269C73.6169 117.206 73.2364 120.034 72.3843 123.436C72.2902 123.812 72.193 124.189 72.0944 124.571C71.342 127.497 70.5637 130.521 70.5637 135.267C70.5637 139.414 71.2074 142.39 72.65 144.917C73.3781 146.192 74.3952 147.286 75.6774 148.21C78.7852 149.627 82.9299 150.373 88.0926 150.435V115.378L93.1288 113.855V77.7324C91.7211 80.1344 90.0645 82.5369 88.0926 84.9389C84.7256 88.9985 80.3245 92.9433 75.013 94.7897Z" fill="#37474F"/>
<path d="M100.248 102.423C100.2 102.329 100.134 102.237 100.057 102.147C100.048 102.138 100.042 102.128 100.033 102.118C99.8991 101.971 99.7245 101.832 99.51 101.709L97.8224 100.734C97.5366 100.569 97.2056 100.445 96.853 100.362C96.6531 100.316 96.4451 100.285 96.2351 100.265V95.2739C96.2351 92.7717 95.2894 90.7907 93.6404 89.8384C92.0667 88.9297 90.1206 89.0531 88.1599 90.185C84.5587 92.2642 81.7372 97.3379 81.7372 101.736V107.628L78.3809 109.566C78.2747 109.627 78.1821 109.693 78.0955 109.76C78.0652 109.784 78.0328 109.807 78.005 109.832C77.9979 109.838 77.9923 109.845 77.9847 109.851C77.6766 110.129 77.5217 110.446 77.5222 110.765V130.967C77.5217 131.054 77.5364 131.141 77.5592 131.228C77.6361 131.522 77.8466 131.806 78.1927 132.047C78.2514 132.088 78.3131 132.128 78.3799 132.166L79.2006 132.64L80.0689 133.142C80.3837 133.325 80.7566 133.451 81.1523 133.532C82.186 133.746 83.3837 133.619 84.2116 133.14L99.5089 124.309C100.081 123.978 100.367 123.545 100.367 123.112V102.905C100.369 102.743 100.329 102.581 100.248 102.423ZM85.0439 101.736C85.0439 98.5194 87.2278 94.5412 89.813 93.0485C90.6944 92.5395 91.4868 92.4135 91.9878 92.7019C92.5773 93.0424 92.9294 94.0038 92.9294 95.2739V101.166L88.5793 103.678L85.0444 105.719V101.736H85.0439Z" fill="#263238"/>
<path d="M102.151 103.796C102.151 103.363 101.865 102.93 101.293 102.599L99.6052 101.625C98.4606 100.964 96.6046 100.964 95.46 101.625L80.1631 110.456C79.5903 110.787 79.3044 111.221 79.3049 111.655V131.858C79.3034 132.292 79.5893 132.726 80.1631 133.058L81.8501 134.032C82.9947 134.692 84.8502 134.692 85.9953 134.032L101.293 125.2C101.865 124.869 102.151 124.436 102.151 124.003V103.796Z" fill="#2B8761"/>
<path opacity="0.4" d="M81.8506 113.824L80.1636 112.85C79.019 112.19 79.019 111.118 80.1636 110.457L95.46 101.625C96.6046 100.964 98.4606 100.964 99.6051 101.625L101.293 102.6C102.437 103.261 102.437 104.332 101.293 104.993L85.9953 113.824C84.8507 114.485 82.9947 114.485 81.8506 113.824Z" fill="white"/>
<path opacity="0.1" d="M83.9252 114.319V134.527C83.1738 134.527 82.4224 134.364 81.8527 134.034L80.1631 133.058C79.5888 132.727 79.3014 132.292 79.3065 131.857V111.654C79.3065 112.089 79.5888 112.52 80.1631 112.85L81.8527 113.827C82.4219 114.156 83.1738 114.319 83.9252 114.319Z" fill="black"/>
<path d="M95.0567 124.315L91.4044 126.424L91.9701 119.816C91.5334 119.586 91.2546 119.017 91.2546 118.201C91.2546 116.746 92.1391 115.056 93.2306 114.426C94.3215 113.796 95.206 114.465 95.206 115.92C95.206 116.736 94.9277 117.625 94.4905 118.361L95.0567 124.315Z" fill="#455A64"/>
<path d="M95.0567 124.315L91.7485 122.405L91.4044 126.423L95.0567 124.315Z" fill="#37474F"/>
<path d="M93.2311 114.426C92.5171 114.838 91.8937 115.704 91.5466 116.662L94.4916 118.362V118.361C94.9282 117.626 95.207 116.735 95.207 115.919C95.2065 114.465 94.3215 113.796 93.2311 114.426Z" fill="#37474F"/>
<path d="M98.0173 104.247C98.0173 104.246 98.0178 104.245 98.0178 104.244L98.0173 96.1655C98.0173 93.6633 97.0716 91.6823 95.423 90.73C93.8494 89.8213 91.9033 89.9447 89.9426 91.0766C86.3413 93.1558 83.5204 98.2295 83.5204 102.627V110.75C83.5204 110.994 83.6828 111.238 84.0052 111.424C84.6503 111.797 85.6962 111.797 86.3413 111.424C86.6637 111.238 86.8266 110.994 86.8266 110.75V102.627C86.8266 99.4105 89.0105 95.4323 91.5957 93.9396C92.4771 93.4306 93.2695 93.3046 93.7704 93.593C94.3599 93.9335 94.7121 94.8949 94.7121 96.165V104.244C94.7121 104.244 94.7121 104.244 94.7121 104.245V104.249H94.7126C94.7151 104.492 94.8771 104.733 95.1969 104.918C95.842 105.29 96.8879 105.29 97.5331 104.918C97.8534 104.733 98.0153 104.491 98.0178 104.249H98.0183V104.247H98.0173Z" fill="#E0E0E0"/>
<path d="M117.679 139.76L119.906 138.475L120.788 137.406L118.562 138.691L117.679 139.76Z" fill="#2B8761"/>
<path opacity="0.4" d="M117.679 139.76L119.906 138.475L120.788 137.406L118.562 138.691L117.679 139.76Z" fill="black"/>
<path d="M123.739 143.259L125.965 141.973L127.826 140.326L125.599 141.612L123.739 143.259Z" fill="#2B8761"/>
<path opacity="0.4" d="M123.739 143.259L125.965 141.973L127.826 140.326L125.599 141.612L123.739 143.259Z" fill="black"/>
<path d="M142.669 147.7C143.158 148.321 143.513 149.233 143.59 150.124C143.101 149.502 142.746 148.59 142.669 147.7ZM147.845 147.768C147.096 142.667 144.356 137.621 141.089 135.735C139.521 134.829 138.071 134.796 136.909 135.475C136.569 135.673 135.308 136.4 134.812 136.685C134.772 136.706 134.731 136.729 134.695 136.754C134.603 136.805 134.512 136.864 134.424 136.926C134.256 137.042 134.095 137.174 133.942 137.324C133.92 137.342 133.898 137.368 133.872 137.39C133.807 137.455 133.741 137.528 133.679 137.602C133.602 137.689 133.525 137.781 133.456 137.875C133.309 138.069 133.171 138.277 133.046 138.504C132.984 138.614 132.922 138.73 132.863 138.851L114.553 128.28L112.328 129.563V130.981L112.518 131.09L112.693 131.193V131.492L112.328 131.704V132.53L115.017 138.223L117.677 139.761L118.561 138.69L120.907 140.094L122.256 142.403L123.739 143.258L125.599 141.61L127.883 142.929L128.651 146.094L132.476 148.301C132.67 149.112 132.915 149.905 133.2 150.68C133.226 150.76 133.255 150.841 133.288 150.928C134.559 154.272 136.584 157.133 138.864 158.451C139.156 158.619 139.441 158.758 139.722 158.864C139.883 158.93 140.044 158.981 140.201 159.025C140.344 159.065 140.486 159.098 140.629 159.12C141.1 159.204 141.557 159.201 141.984 159.117C142.046 159.102 142.108 159.087 142.17 159.073C142.258 159.054 142.345 159.029 142.43 158.996C142.496 158.97 142.562 158.945 142.627 158.919C142.697 158.893 142.766 158.86 142.832 158.824C142.897 158.794 142.96 158.761 143.022 158.725C143.055 158.707 143.088 158.689 143.117 158.67C143.132 158.667 143.146 158.656 143.161 158.645C143.669 158.352 144.923 157.629 145.262 157.435C146.954 156.456 148.05 153.975 148.05 150.467C148.05 149.576 147.981 148.67 147.845 147.768Z" fill="#2B8761"/>
<path d="M142.016 152.003C141.138 151.496 140.426 149.988 140.426 148.636C140.426 147.283 141.138 146.598 142.016 147.105C142.894 147.612 143.606 149.12 143.606 150.472C143.607 151.825 142.894 152.51 142.016 152.003ZM145.62 149.05C144.871 143.952 142.13 138.907 138.864 137.021C137.351 136.148 135.952 136.082 134.812 136.685C134.772 136.707 134.731 136.729 134.695 136.755C134.603 136.806 134.512 136.864 134.424 136.926C134.256 137.043 134.095 137.174 133.942 137.324C133.92 137.342 133.898 137.368 133.872 137.39C133.807 137.456 133.741 137.529 133.679 137.602C133.602 137.69 133.525 137.781 133.456 137.876C133.309 138.07 133.171 138.278 133.046 138.504C132.984 138.614 132.922 138.731 132.863 138.851C132.56 139.473 132.319 140.196 132.158 141.015L112.328 129.563V130.981L112.518 131.091L112.693 131.193V131.493L112.328 131.705V132.53L115.017 138.223L117.677 139.762L118.561 138.691L120.907 140.094L122.256 142.403L123.739 143.259L125.599 141.611L127.883 142.93L128.651 146.094L132.476 148.301C132.67 149.113 132.915 149.905 133.2 150.68C133.226 150.761 133.255 150.841 133.288 150.929C134.559 154.272 136.584 157.133 138.864 158.452C139.156 158.62 139.441 158.759 139.722 158.865C139.883 158.93 140.044 158.982 140.201 159.026C140.344 159.066 140.486 159.098 140.629 159.121C141.1 159.205 141.557 159.201 141.984 159.117C142.046 159.103 142.108 159.088 142.17 159.073C142.258 159.055 142.345 159.029 142.43 158.996C142.496 158.97 142.562 158.945 142.627 158.919C142.697 158.894 142.766 158.861 142.832 158.824C142.897 158.795 142.96 158.762 143.022 158.726C143.055 158.707 143.088 158.689 143.117 158.671C143.132 158.667 143.146 158.656 143.161 158.645C144.783 157.622 145.825 155.177 145.825 151.754C145.825 150.862 145.751 149.956 145.62 149.05Z" fill="#2B8761"/>
<path opacity="0.4" d="M143.607 150.472C143.607 151.824 142.894 152.51 142.018 152.003C141.137 151.495 140.425 149.989 140.425 148.637C140.425 147.285 141.137 146.599 142.018 147.106C142.251 147.241 142.474 147.446 142.668 147.702C142.745 148.59 143.102 149.503 143.589 150.124C143.603 150.241 143.607 150.358 143.607 150.472Z" fill="black"/>
<path opacity="0.4" d="M148.05 150.468C148.05 153.975 146.954 156.457 145.262 157.436C144.922 157.63 143.669 158.353 143.161 158.645C144.783 157.622 145.825 155.177 145.825 151.754C145.825 150.862 145.751 149.956 145.62 149.05C144.871 143.952 142.131 138.906 138.864 137.021C137.351 136.148 135.952 136.082 134.812 136.685C135.309 136.4 136.569 135.673 136.909 135.476C138.071 134.796 139.522 134.829 141.09 135.735C144.356 137.621 147.097 142.667 147.846 147.768C147.981 148.67 148.05 149.576 148.05 150.468Z" fill="white"/>
<path d="M145.825 151.754C145.825 155.177 144.783 157.622 143.161 158.645C143.669 158.353 144.923 157.629 145.262 157.436C146.954 156.457 148.05 153.975 148.05 150.468C148.05 150.338 148.046 150.208 148.043 150.078C147.278 150.519 146.505 150.965 145.817 151.363C145.82 151.493 145.825 151.624 145.825 151.754Z" fill="#2B8761"/>
<path opacity="0.1" d="M145.825 151.754C145.825 155.177 144.783 157.622 143.161 158.645C143.669 158.353 144.923 157.629 145.262 157.436C146.954 156.457 148.05 153.975 148.05 150.468C148.05 150.338 148.046 150.208 148.043 150.078C147.278 150.519 146.505 150.965 145.817 151.363C145.82 151.493 145.825 151.624 145.825 151.754Z" fill="black"/>
<path opacity="0.15" d="M132.239 142.476V143.2L112.329 131.705L112.694 131.493V131.193L132.239 142.476Z" fill="black"/>
<path opacity="0.15" d="M132.239 142.776V143.2L112.329 131.705L112.694 131.493V131.489L132.239 142.776Z" fill="black"/>
<path opacity="0.15" d="M133.068 144.388C133.068 149.316 135.663 154.81 138.864 156.658C142.065 158.506 144.659 156.009 144.659 151.08C144.659 146.152 142.065 140.659 138.864 138.811C135.663 136.963 133.068 139.46 133.068 144.388Z" stroke="black" stroke-width="0.7315" stroke-miterlimit="10"/>
<path opacity="0.5" d="M132.864 138.852C132.561 139.473 132.32 140.197 132.159 141.015L112.328 129.564L114.554 128.281L132.864 138.852Z" fill="white"/>
<path d="M208.45 194.831C208.527 195.523 208.622 197.466 212.143 197.95C215.665 198.434 217.884 197.269 218.823 195.575C219.762 193.88 219.547 192.499 219.697 190.93C219.847 189.361 221.144 188.525 221.517 187.717C222.066 186.527 221.263 184.674 221.263 184.674L208.45 194.831Z" fill="#263238"/>
<path d="M182.751 189.313C182.623 189.414 182.587 190.524 182.98 191.017C183.251 191.356 185.698 192.996 188.624 192.526C191.55 192.056 192.956 191.238 194.598 190.185C196.279 189.107 197.46 188.916 199.209 188.856C200.903 188.798 202.142 188.422 202.27 187.977C202.496 187.196 202.496 186.702 202.125 186.727L182.751 189.313Z" fill="#263238"/>
<path d="M220.443 181.949C220.002 185.159 213.775 184.901 214.282 182.336L213.171 174.54L220.22 174.759L220.443 181.949Z" fill="#FFA8A7"/>
<path d="M208.705 193.23C209.017 192.651 209.925 191.818 210.325 191.297C212.414 188.572 213.729 185.402 213.987 181.955C214.002 181.765 214.025 181.399 214.213 181.286C214.412 181.166 214.593 181.331 214.795 181.419C214.799 181.416 214.802 181.413 214.806 181.41C214.806 181.41 214.807 181.42 214.808 181.425C215.06 181.534 215.408 181.656 215.898 181.711C217.146 181.85 218.526 181.551 218.837 181.594C219.079 181.627 219.154 182.377 219.134 183.189C219.578 182.908 219.723 182.352 220.122 182.027C220.337 181.852 220.432 181.846 220.428 181.557C220.425 181.369 220.413 181.2 220.411 181.012C220.73 180.918 221 182.146 221.263 183.083C221.567 184.168 221.947 185.392 221.52 186.494C221.281 187.108 220.888 187.646 220.526 188.196C219.904 189.143 219.357 190.183 219.248 191.312C219.2 191.806 219.238 192.308 219.168 192.8C218.922 194.514 217.747 195.861 216.095 196.377C213.947 197.048 210.723 196.943 208.83 195.441C208.168 194.914 208.394 193.808 208.705 193.23Z" fill="#37474F"/>
<path d="M200.688 181.411C198.982 182.736 196.923 183.518 194.824 182.561L194.333 169.438L201.402 170.708L200.688 181.411Z" fill="#FFA8A7"/>
<path d="M184.174 187.048C184.642 186.899 185.105 186.732 185.563 186.55C186.841 186.041 188.073 185.418 189.252 184.709C189.773 184.396 190.283 184.066 190.781 183.718C191.304 183.353 191.788 182.947 192.284 182.545C192.546 182.333 192.788 182.038 193.001 181.776C193.426 181.255 193.783 180.677 194.06 180.064C194.121 179.928 194.189 179.778 194.324 179.714C194.485 179.638 194.676 179.714 194.821 179.815C194.949 179.905 195.064 180.016 195.209 180.079C195.345 180.138 195.487 180.192 195.625 180.25C196.067 180.434 196.535 180.548 197.012 180.59C198.8 180.75 198.858 180.391 198.935 180.968C198.954 181.109 198.961 181.34 198.95 181.615C199.893 181.458 200.638 181.153 200.679 180.795L200.793 179.651C201.734 179.566 201.796 181.25 202.106 183.141C202.355 184.671 202.722 185.779 202.302 186.905C200.879 188.148 198.37 187.846 196.94 188.082C194.918 188.416 193.973 189.912 191.161 190.885C186.63 192.454 183.768 190.645 182.918 189.856C182.356 188.852 182.244 187.663 184.174 187.048Z" fill="#37474F"/>
<path d="M218.455 103.82C218.813 109.379 219.466 117.54 219.693 123.97C220.12 136.056 219.954 149.83 219.954 149.83C219.954 149.83 221.128 154.151 221.256 157.575C221.544 165.295 221.489 182.632 221.489 182.632C221.489 182.632 218.291 185.856 213.5 183.323C213.5 183.323 209.257 159.018 208.07 151.404C206.938 144.145 204.727 129.627 204.727 129.627L203.727 150.233C203.727 150.233 204.898 154.43 204.48 160.124C204.221 163.66 202.202 181.127 202.202 181.127C200.362 182.853 194.996 181.915 193.824 180.542C193.824 180.542 191.945 154.731 191.736 151.003C191.285 142.938 190.086 112.879 190.686 108.211C191.285 103.542 218.455 103.82 218.455 103.82Z" fill="#263238"/>
<path d="M204.727 129.627L203.323 120.327C203.323 120.327 199.458 119.596 196.639 117.503C196.639 117.503 197.737 119.987 202.006 121.76L203.394 130.42L203.727 150.233L204.727 129.627Z" fill="black"/>
<path d="M212.615 66.5016C212.872 67.5495 214.654 67.3891 215.429 67.1928C216.387 66.9499 217.097 66.0973 216.979 65.1075C217.382 64.9851 217.754 64.7806 218.014 64.474C218.449 63.9614 218.379 63.3026 218.087 62.7475C218.72 62.2699 219.111 61.4881 218.967 60.7003C218.866 60.1381 218.533 59.6098 218.098 59.2769C217.727 58.994 217.04 58.6545 216.546 58.7243C216.363 58.7501 216.182 59.0917 216.446 59.119C216.793 59.1544 217.306 59.4004 217.575 59.6083C217.871 59.8365 218.216 60.1791 218.342 60.5793C218.552 61.2442 218.309 61.9035 217.798 62.3179C217.7 62.2016 217.598 62.0918 217.487 62.0002C217.124 61.7001 216.682 61.5068 216.205 61.5473C215.874 61.5751 215.467 61.7204 215.358 62.0705C215.235 62.4667 215.646 62.8017 215.949 62.9742C216.399 63.2313 216.924 63.2667 217.414 63.1063C217.452 63.0936 217.489 63.0724 217.528 63.0572C217.555 63.1114 217.581 63.1655 217.601 63.2181C217.874 63.9457 217.435 64.3951 216.839 64.596C216.483 63.8552 215.511 63.3132 214.731 63.7013C214.284 63.924 214.233 64.4077 214.552 64.772C214.842 65.104 215.325 65.2229 215.748 65.2482C215.943 65.2598 216.151 65.2553 216.361 65.2325C216.403 65.5543 216.335 65.8913 216.146 66.1625C215.819 66.6341 215.213 66.7454 214.677 66.7854C213.981 66.837 213.491 66.6422 212.939 66.2339C212.786 66.1205 212.577 66.3462 212.615 66.5016ZM217.235 62.615C216.899 62.7076 216.559 62.6585 216.257 62.4561C216.045 62.3139 215.812 62.1064 216.188 62.0786C216.583 62.0498 216.96 62.2957 217.235 62.615ZM216.179 64.7149C215.954 64.7245 215.732 64.7063 215.539 64.6572C215.389 64.6192 214.727 64.2838 215.064 64.1335C215.325 64.0176 215.777 64.2752 215.961 64.4411C216.049 64.5211 216.119 64.6152 216.179 64.7149Z" fill="#263238"/>
<path d="M213.846 46.9306C213.846 46.9306 213.973 46.9483 214.174 46.9989C214.035 46.293 214.345 45.5836 214.982 45.2922C215.749 44.9415 216.69 45.3271 217.084 46.1539L214.793 47.2013C215.403 47.4452 216.149 47.8915 216.537 48.6889C217.165 49.9797 216.337 52.7299 215.5 56.1261C214.663 59.5224 214.208 60.9898 213.652 62.4182C213.268 63.407 212.577 63.4378 212.577 63.4378V60.0496L212.722 57.2413C212.722 57.2413 210.92 54.7797 210.722 52.7622C210.467 50.166 211.014 49.1033 211.014 49.1033L213.846 46.9306Z" fill="#263238"/>
<path d="M201.385 44.0186C204.54 44.0287 207.091 46.5951 207.08 49.7511C207.07 52.907 204.503 55.4567 201.348 55.4461C198.192 55.436 195.642 52.8695 195.652 49.7136C195.663 46.5577 198.23 44.008 201.385 44.0186Z" fill="#263238"/>
<path d="M212.617 56.7936C213.295 57.3811 213.846 55.861 214.415 55.268C214.985 54.6755 216.843 53.8694 217.761 55.8216C218.697 57.8112 216.91 60.5137 215.523 61.1573C213.489 62.1005 212.578 60.0502 212.578 60.0502V68.5272C210.436 72.3855 205.804 71.4833 203.614 72.0237C203.216 70.4596 203.373 69.8676 203.602 69.0008L203.618 66.2391C203.618 66.2391 201.931 66.5645 200.82 66.3889C198.97 66.0969 197.979 64.5733 197.424 62.5686C196.533 59.3489 196.349 53.9428 197.587 47.6912C199.658 46.0892 206.668 46.3487 211.014 49.1044C210.696 54.6481 211.94 56.2061 212.617 56.7936Z" fill="#FFA8A7"/>
<path d="M203.618 66.2381C203.618 66.2381 207.751 65.4194 209.197 64.6568C210.165 64.1463 210.964 63.2582 211.2 62.6885C211.2 62.6885 210.925 63.913 210.058 65.014C208.998 66.3605 203.614 67.3371 203.614 67.3371L203.618 66.2381Z" fill="#F28F8F"/>
<path d="M194.754 53.447C194.773 53.8265 195.009 54.1872 195.134 54.3365C195.196 54.4175 195.252 54.5232 195.283 54.6538C195.42 55.2574 195.519 56.402 195.793 57.0426C196.067 57.6898 196.645 58.7164 198.319 58.7847C198.649 58.8035 198.935 58.7787 199.19 58.7286C199.215 58.7286 199.24 58.7225 199.259 58.7159C199.532 58.6598 199.769 58.5667 199.974 58.4548C199.986 58.4422 200.005 58.4361 200.018 58.43C200.036 58.4174 200.055 58.4052 200.08 58.3926C200.093 58.3799 200.111 58.3678 200.154 58.3364C200.179 58.3238 200.204 58.3051 200.223 58.2868C200.254 58.2681 200.279 58.2494 200.304 58.2246C200.328 58.2059 200.353 58.1872 200.378 58.1624C200.428 58.1188 200.471 58.0753 200.521 58.0252C200.77 57.7641 200.957 57.4469 201.106 57.1291C201.492 56.3079 201.417 55.1385 202.027 55.0201C202.052 55.014 202.077 55.014 202.101 55.0075H202.182C203.01 55.0388 202.891 56.3018 203.333 57.2161C203.775 58.131 204.528 59.0327 206.319 59.0889C206.4 59.0949 206.475 59.0949 206.55 59.0949C206.612 59.0949 206.674 59.0889 206.736 59.0823C206.892 59.0762 207.035 59.0575 207.165 59.0327C207.216 59.02 207.259 59.014 207.303 59.0018C207.346 58.9957 207.39 58.9831 207.433 58.9704C207.464 58.9644 207.489 58.9517 207.514 58.9457C207.701 58.8834 207.863 58.8085 208.005 58.7281C208.062 58.6906 208.117 58.6598 208.173 58.6223C208.273 58.5474 208.366 58.467 208.453 58.3799C208.733 58.1062 208.901 57.8011 209.013 57.5461C209.306 56.9237 209.405 55.7918 209.554 55.2007C209.592 55.0454 209.641 54.9331 209.697 54.8587C209.816 54.6907 210.096 54.3982 210.114 54.0187C210.133 53.6332 209.872 53.2972 209.629 53.2597C209.493 53.2349 209.343 53.2162 209.194 53.1914C207.781 52.9926 205.939 52.8802 204.832 53.16C203.439 53.5087 202.947 53.9438 202.176 53.919C201.46 53.8877 201 53.4151 199.693 52.9607C198.654 52.5999 196.931 52.5812 195.612 52.6748C195.469 52.6809 195.338 52.6935 195.201 52.7062C194.978 52.7315 194.736 53.0675 194.754 53.447ZM203.838 54.4923C203.912 54.3866 204.056 54.2808 204.236 54.1812C204.261 54.1624 204.286 54.1564 204.311 54.1437C204.324 54.1311 204.336 54.125 204.349 54.1189C204.411 54.0941 204.479 54.0628 204.547 54.0319C204.604 54.0071 204.665 53.9884 204.728 53.9636C204.915 53.8953 205.114 53.8391 205.325 53.7895C205.4 53.7708 205.48 53.7521 205.561 53.7399C205.76 53.7025 205.966 53.6716 206.171 53.6529C206.221 53.6529 206.264 53.6468 206.314 53.6468C207.646 53.5659 208.473 53.8958 208.765 54.1756C209.077 54.462 208.909 55.6936 208.772 56.316C208.765 56.3286 208.765 56.3473 208.759 56.3595C208.759 56.3782 208.753 56.3909 208.746 56.4091C208.734 56.484 208.709 56.571 208.684 56.658C208.671 56.7076 208.659 56.7638 208.64 56.8134C208.64 56.8194 208.64 56.8194 208.64 56.8194C208.609 56.9065 208.578 56.9935 208.541 57.0805C208.535 57.1119 208.516 57.1428 208.503 57.1676C208.497 57.1863 208.491 57.205 208.479 57.2237C208.472 57.2425 208.46 57.2612 208.454 57.2799C208.441 57.3047 208.429 57.3295 208.416 57.3548C208.398 57.3862 208.385 57.411 208.367 57.4358C208.348 57.4671 208.336 57.498 208.311 57.5228C208.292 57.5536 208.273 57.585 208.254 57.6098C207.912 58.0829 207.346 58.4746 206.376 58.4558C205.411 58.4311 204.808 58.089 204.422 57.6655C204.036 57.2425 203.874 56.7385 203.8 56.3898C203.651 55.687 203.57 54.8658 203.838 54.4923ZM196.017 53.6898C196.092 53.6215 196.197 53.5466 196.347 53.4905C196.353 53.4844 196.36 53.4778 196.372 53.4778C196.416 53.4591 196.465 53.4404 196.515 53.4217C196.547 53.4156 196.577 53.4029 196.602 53.3969C196.627 53.3908 196.652 53.3842 196.677 53.3781C196.696 53.3721 196.715 53.3721 196.727 53.3655C196.733 53.3655 196.74 53.3594 196.746 53.3594C196.771 53.3533 196.796 53.3533 196.821 53.3468C196.914 53.328 197.02 53.3093 197.126 53.3032C197.182 53.2972 197.238 53.2906 197.294 53.2906C197.325 53.2845 197.362 53.2845 197.394 53.2845C197.418 53.2845 197.45 53.2845 197.475 53.2785C197.543 53.2785 197.611 53.2785 197.686 53.2845H197.761C197.786 53.2845 197.811 53.2906 197.835 53.2906C198.028 53.3032 198.234 53.322 198.452 53.3589C199.397 53.5143 200.381 53.9747 200.629 54.3729C200.884 54.7651 200.809 55.5737 200.672 56.2704C200.642 56.4076 200.604 56.5629 200.542 56.7309C200.536 56.7435 200.529 56.7557 200.529 56.7683C200.523 56.7871 200.517 56.7997 200.511 56.8179C200.504 56.824 200.504 56.8366 200.498 56.8488C200.492 56.8675 200.479 56.8862 200.473 56.905C200.454 56.9424 200.436 56.9793 200.417 57.0168C200.404 57.0482 200.386 57.079 200.367 57.1165C200.361 57.1225 200.354 57.1352 200.348 57.1478C200.335 57.1666 200.323 57.1914 200.305 57.2161C200.298 57.2288 200.286 57.2475 200.267 57.2723V57.2784C199.925 57.7763 199.328 58.2054 198.27 58.1431C197.872 58.1244 197.542 58.0247 197.275 57.882C196.342 57.3846 196.124 56.3205 196.018 55.8292C195.887 55.1952 195.731 53.9509 196.017 53.6898Z" fill="#263238"/>
<path d="M209.537 53.2815L215.586 54.6421C215.586 54.6421 214.856 54.7671 214.193 55.5403L209.532 54.6568L209.537 53.2815Z" fill="#263238"/>
<path d="M196.017 55.8303C196.123 56.3216 196.341 57.3857 197.274 57.8831C197.542 58.0263 197.871 58.126 198.27 58.1442C199.327 58.2065 199.925 57.7774 200.267 57.2795V57.2734C200.285 57.2486 200.298 57.2299 200.304 57.2172C200.323 57.1924 200.335 57.1676 200.348 57.1489C200.354 57.1363 200.36 57.1241 200.366 57.1176C200.385 57.0801 200.404 57.0492 200.416 57.0179C200.435 56.9804 200.454 56.9435 200.473 56.906C200.479 56.8873 200.491 56.8686 200.497 56.8499C200.504 56.8372 200.504 56.8251 200.51 56.819C200.516 56.8003 200.523 56.7876 200.529 56.7694C200.529 56.7573 200.535 56.7446 200.541 56.732C200.604 56.564 200.641 56.4086 200.672 56.2715C200.809 55.5748 200.884 54.7657 200.628 54.374C200.38 53.9758 199.396 53.5153 198.451 53.36C198.234 53.3226 198.028 53.3038 197.835 53.2917C197.81 53.2917 197.785 53.2856 197.76 53.2856H197.686C197.611 53.2795 197.542 53.2795 197.474 53.2795C197.449 53.2856 197.418 53.2856 197.393 53.2856C197.362 53.2856 197.325 53.2856 197.293 53.2917C197.237 53.2917 197.182 53.2978 197.125 53.3043C197.02 53.3104 196.914 53.3291 196.82 53.3479C196.796 53.3539 196.771 53.3539 196.745 53.3605C196.739 53.3605 196.733 53.3666 196.727 53.3666C196.714 53.3726 196.696 53.3726 196.677 53.3792C196.652 53.3853 196.627 53.3919 196.602 53.3979C196.577 53.404 196.546 53.4167 196.515 53.4227C196.465 53.4415 196.415 53.4602 196.372 53.4789C196.359 53.4789 196.353 53.485 196.347 53.4916C196.197 53.5477 196.092 53.6221 196.017 53.6909C195.731 53.951 195.887 55.1953 196.017 55.8303Z" fill="#37474F"/>
<path d="M203.801 56.3897C203.875 56.7379 204.037 57.2424 204.422 57.6654C204.808 58.0884 205.412 58.4304 206.376 58.4557C207.347 58.4745 207.913 58.0823 208.255 57.6097C208.274 57.5849 208.292 57.5535 208.311 57.5227C208.336 57.4979 208.349 57.4665 208.367 57.4357C208.386 57.4109 208.398 57.3861 208.417 57.3547C208.429 57.3299 208.442 57.3051 208.454 57.2798C208.46 57.2611 208.473 57.2424 208.479 57.2236C208.492 57.2049 208.498 57.1862 208.504 57.1675C208.516 57.1427 208.535 57.1113 208.541 57.0804C208.579 56.9934 208.61 56.9064 208.641 56.8193C208.641 56.8193 208.641 56.8193 208.641 56.8133C208.66 56.7637 208.672 56.7075 208.684 56.6579C208.709 56.5709 208.734 56.4839 208.747 56.409C208.753 56.3903 208.759 56.3776 208.759 56.3594C208.765 56.3467 208.765 56.328 208.772 56.3159C208.909 55.694 209.077 54.4619 208.766 54.1755C208.473 53.8957 207.646 53.5658 206.315 53.6467C206.265 53.6467 206.221 53.6528 206.172 53.6528C205.966 53.6715 205.761 53.7024 205.562 53.7398C205.481 53.7525 205.4 53.7712 205.326 53.7894C205.114 53.839 204.915 53.8952 204.729 53.9635C204.666 53.9883 204.604 54.007 204.548 54.0318C204.48 54.0627 204.411 54.094 204.349 54.1188C204.336 54.1249 204.324 54.131 204.312 54.1436C204.287 54.1563 204.262 54.1623 204.237 54.1811C204.056 54.2807 203.913 54.3865 203.839 54.4922C203.57 54.8657 203.651 55.6869 203.801 56.3897Z" fill="#37474F"/>
<path d="M196.18 43.2707C196.188 43.2008 196.197 43.1315 196.207 43.0622C196.225 42.9337 196.252 42.7976 196.342 42.7039C196.621 42.414 197.177 43.1411 197.376 43.3111C197.567 43.4736 197.762 43.6314 197.968 43.7741C198.034 43.8197 198.519 44.057 198.525 44.1056C198.451 43.4179 198.349 42.7105 198.521 42.0224C198.602 41.5665 198.732 40.5109 199.296 40.3976C199.632 40.3303 199.925 40.6111 200.175 40.8454C202.436 42.962 205.389 41.9824 208.114 42.0694C210.392 42.1423 213.141 43.0693 214.17 45.2851C214.641 46.2986 214.722 47.3667 213.791 48.0675C213.19 48.5199 212.603 48.4987 212.267 49.2222C212.185 49.3998 211.664 51.5564 211.971 51.5347C210.809 51.6166 209.7 50.933 209.432 49.7996C209.376 49.5638 209.249 49.1347 209.197 48.8923C209.121 48.5346 208.824 48.4384 208.546 48.4982C207.856 48.6469 207.405 48.9298 206.75 49.1089C204.98 49.5941 202.813 49.8117 201.014 49.4474C199.664 49.1737 198.359 48.524 197.41 47.513C196.374 46.4069 196.018 44.7573 196.18 43.2707Z" fill="#263238"/>
<path d="M205.074 52.1636L207.072 52.4738C207.143 51.9066 206.753 51.3768 206.201 51.2913C205.649 51.2058 205.144 51.5964 205.074 52.1636Z" fill="#263238"/>
<path d="M204.605 61.4651L202.922 61.9023C203.033 62.3835 203.5 62.6754 203.965 62.555C204.431 62.4341 204.717 61.9463 204.605 61.4651Z" fill="#F28F8F"/>
<path d="M197.491 52.2776L199.517 52.0554C199.477 51.4892 198.99 51.0798 198.431 51.1411C197.871 51.2028 197.45 51.7113 197.491 52.2776Z" fill="#263238"/>
<path d="M202.421 55.0616L202.148 59.7836L199.517 59.0965L202.14 55.0095C202.232 55.0039 202.325 55.0227 202.421 55.0616Z" fill="#F28F8F"/>
<path d="M213.706 58.3409C213.706 59.0205 214.257 59.5715 214.937 59.5715C215.616 59.5715 216.167 59.0205 216.167 58.3409C216.167 57.6614 215.616 57.1104 214.937 57.1104C214.257 57.1109 213.706 57.6614 213.706 58.3409Z" fill="#263238"/>
<path d="M213.572 56.0903C213.689 55.7497 213.86 55.356 214.118 55.0965C214.34 54.8723 214.769 54.7079 215.095 54.7625C215.112 54.7655 215.129 54.8055 215.111 54.8161C214.976 54.8976 214.877 54.9396 214.743 55.0352C214.613 55.1283 214.472 55.2356 214.365 55.355C214.264 55.4679 214.188 55.603 214.128 55.7396C214.062 55.8899 213.996 56.0984 213.986 56.2628C213.966 56.5927 213.986 56.8022 214.104 57.0739C214.166 57.2141 214.232 57.3461 214.337 57.4595C214.426 57.5566 214.551 57.6401 214.609 57.7611C214.684 57.9174 214.469 58.1836 214.299 58.0925C213.97 57.9164 213.764 57.5764 213.63 57.2409C213.478 56.8624 213.437 56.4804 213.572 56.0903Z" fill="#263238"/>
<path d="M196.036 72.9016C194.324 74.0204 191.963 75.4797 191.387 77.0619C190.81 78.6442 189.145 87.8306 188.96 90.7897C188.96 90.7897 191.45 92.0021 193.769 92.1458L196.036 72.9016Z" fill="#455A64"/>
<path d="M216.24 68.5247C220.572 70.8988 224.864 74.4535 225.762 75.8202C225.762 75.8202 223.226 84.2567 221.001 88.2576C218.776 92.2586 217.577 104.096 217.577 104.096C217.577 104.096 202.316 109.161 197.532 109.555C192.749 109.949 192.142 107.92 192.142 107.92C192.142 107.92 192.043 94.6904 193.141 85.8577C194.239 77.0255 194.012 74.4019 196.035 72.9016C197.344 71.9316 202.991 69.484 202.991 69.484C202.991 69.484 202.991 70.6408 202.991 72.0231C206.095 72.0727 216.24 68.5247 216.24 68.5247Z" fill="#37474F"/>
<path d="M201.818 73.3773C201.818 73.3773 201.404 72.6649 201.493 71.5329L202.768 70.606L202.79 72.214L201.818 73.3773Z" fill="#2B8761"/>
<path opacity="0.25" d="M201.818 73.3773C201.818 73.3773 201.404 72.6649 201.493 71.5329L202.768 70.606L202.79 72.214L201.818 73.3773Z" fill="black"/>
<path d="M204.296 72.3956L207.598 70.5117L210.074 72.4765L205.066 74.5552L204.296 72.3956Z" fill="#2B8761"/>
<path opacity="0.25" d="M204.296 72.3956L207.598 70.5117L210.074 72.4765L205.066 74.5552L204.296 72.3956Z" fill="black"/>
<path d="M212.578 64.9407V65.6061C212.451 66.2401 211.206 67.7055 208.064 69.1157C204.866 70.5507 203.614 72.0232 203.614 72.0232C203.614 72.0232 204.804 72.0181 206.105 72.4841C207.535 72.9962 209.913 74.8102 210.591 74.793C211.251 74.7763 212.204 72.9011 213.984 71.0344C215.48 69.4658 216.24 68.5247 216.24 68.5247C216.24 68.5247 213.798 64.9543 212.578 64.9407Z" fill="#455A64"/>
<path d="M203.614 72.023C202.478 72.1516 201.411 72.9404 201.133 72.523C200.854 72.1055 201.82 68.3029 203.607 67.1467L203.614 72.023Z" fill="#455A64"/>
<path d="M192.586 91.9898C192.586 91.9898 192.446 94.3543 192.41 95.1619C192.373 95.9695 193.729 109.848 193.729 109.848L188.959 111.863C188.959 111.863 188.384 106.521 188.197 103.542C188.009 100.564 188.233 96.8985 188.608 94.367C188.982 91.835 189.122 90.866 189.122 90.866C190.402 91.458 191.578 91.7479 192.586 91.9898Z" fill="#F28F8F"/>
<path d="M189.344 118.635C189.344 118.635 189.338 118.85 189.348 119.657C189.358 120.465 189.844 122.849 190.143 123.596C190.442 124.343 191.168 125.986 191.531 126.179C191.956 126.404 192.242 126.428 192.695 126.386C193.451 126.316 194.24 126.705 194.953 126.363C195.232 126.229 195.494 126.051 195.795 125.979C196.24 125.873 196.745 126.005 197.139 125.772C197.39 125.624 197.548 125.351 197.797 125.199C198.162 124.977 198.642 125.058 199.03 124.88C199.343 124.737 199.563 124.435 199.672 124.11C199.896 123.441 199.677 122.691 199.541 122.022C199.541 122.022 199.861 121.66 199.882 120.891C199.904 120.122 199.754 118.82 199.583 118.329C199.413 117.838 195.954 115.853 195.954 115.853L195.271 115.404C195.271 115.404 193.029 114.807 191.022 116.087C189.016 117.369 189.344 118.635 189.344 118.635Z" fill="#FFA8A7"/>
<path d="M190.279 118.541C189.365 120.065 189.902 122.794 189.906 122.827C189.617 121.787 189.355 120.277 189.347 119.658C189.338 118.85 189.343 118.636 189.343 118.636C189.343 118.636 189.015 117.37 191.022 116.088C193.028 114.807 195.27 115.405 195.27 115.405C195.27 115.405 191.199 117.008 190.279 118.541Z" fill="#F28F8F"/>
<path d="M199.54 122.023C199.263 121.084 198.451 119.665 198.067 119.307C197.683 118.949 197.363 118.501 197.747 118.65C198.131 118.8 198.665 118.89 198.878 118.621C199.092 118.352 199.134 118.821 198.899 119.184C198.665 119.547 198.857 119.825 199.134 120.422C199.412 121.02 199.478 121.686 199.54 122.023Z" fill="#F28F8F"/>
<path d="M224.439 75.9883C225.881 76.4847 226.074 80.4396 225.762 83.979C225.449 87.5185 222.687 95.8969 221.427 98.8129C220.013 102.084 219.156 103.974 218.217 105.002C217.276 106.03 215.308 106.87 212.79 108.176C210.509 109.358 208.951 109.954 205.068 111.159C200.687 112.519 199.005 112.603 198.065 113.254C197.125 113.904 196.869 115.325 195.953 115.854L195.27 115.406C194.079 115.646 192.089 116.439 190.912 117.224C189.796 117.968 189.343 118.636 189.343 118.636L189.347 119.658C189.347 119.658 188.237 120.128 187.296 118.134C186.356 116.139 185.923 113.175 187.007 111.873C188.091 110.572 191.518 108.811 194.288 107.92C197.058 107.028 198.453 106.139 201.702 104.175C205.163 102.083 207.564 100.693 209.274 99.7526C209.93 99.3751 210.37 98.9121 210.663 97.7058C210.894 96.751 211.59 93.9371 212.016 91.8241C212.723 88.3139 214.246 77.6181 224.439 75.9883Z" fill="#FFA8A7"/>
<path d="M225.762 75.8202C225.762 75.8202 226.434 75.9381 226.527 78.7378C226.621 81.538 226.509 84.5254 226.145 86.6759C225.78 88.8269 223.63 95.1813 223.63 95.1813C223.63 95.1813 217.421 97.2179 211.066 94.7881C211.066 94.7881 212.562 85.63 213.122 83.2007C213.683 80.7709 221.539 73.2796 225.762 75.8202Z" fill="#455A64"/>
<path d="M203.793 76.0023C203.439 78.2773 202.949 83.688 202.949 91.323C202.949 93.1952 200.218 96.9937 199.575 96.9133C198.932 96.8323 197.754 93.26 197.587 91.1869C197.846 86.1679 200.881 78.3795 202.206 75.72L203.793 76.0023Z" fill="#2B8761"/>
<path opacity="0.15" d="M202.106 75.9365C202.139 75.8611 202.173 75.7862 202.206 75.7205L203.793 76.0028L203.698 76.6697C203.046 76.6333 202.316 76.1824 202.106 75.9365Z" fill="black"/>
<path d="M204.296 72.3956C203.614 72.2129 202.79 72.2129 202.79 72.2129C202.79 72.2129 202.194 72.6435 201.818 73.3767C201.818 73.3767 201.734 74.7869 202.206 75.72C202.206 75.72 202.792 76.2138 203.793 76.0023C203.793 76.0023 204.742 75.429 205.065 74.5552C205.168 73.7901 204.635 72.6435 204.296 72.3956Z" fill="#2B8761"/>
</svg>
