<svg width="113" height="111" viewBox="0 0 113 111" fill="none" xmlns="http://www.w3.org/2000/svg">
<path d="M1.78942 21.6039C1.78942 16.5771 1.78942 11.5504 1.78942 6.52359C1.78942 5.11755 2.02537 3.78696 2.98491 2.67995C4.05693 1.44332 5.52676 0.966639 7.1173 0.966639C9.85188 0.966639 12.5858 0.966639 15.3197 0.966639C17.8711 0.966639 20.4226 0.966639 22.9734 0.966639C23.5838 0.966639 23.5845 0.0180664 22.9734 0.0180664C17.7463 0.0180664 12.5186 0.0180664 7.29151 0.0180664C5.94788 0.0180664 4.66256 0.216288 3.51097 0.973494C1.82852 2.07912 0.876525 3.92824 0.840859 5.92551C0.796963 8.40632 0.840859 10.8926 0.840859 13.3741C0.840859 16.1169 0.840859 18.8597 0.840859 21.6032C0.841545 22.2143 1.78942 22.2157 1.78942 21.6039Z" fill="#2B8761"/>
<path d="M21.5852 110.032C16.5584 110.032 11.5317 110.032 6.50488 110.032C5.09884 110.032 3.76824 109.796 2.66193 108.836C1.4253 107.764 0.948623 106.295 0.948623 104.704C0.948623 101.97 0.948623 99.2355 0.948623 96.5016C0.948623 93.9502 0.948623 91.3994 0.948623 88.848C0.948623 88.2375 6.10352e-05 88.2369 6.10352e-05 88.848C6.10352e-05 94.075 6.10352e-05 99.3028 6.10352e-05 104.53C6.10352e-05 105.873 0.198262 107.159 0.955467 108.31C2.0611 109.993 3.91022 110.945 5.90748 110.98C8.38898 111.024 10.8746 110.98 13.3561 110.98C16.0989 110.98 18.8417 110.98 21.5852 110.98C22.1956 110.98 22.197 110.032 21.5852 110.032Z" fill="#2B8761"/>
<path d="M111.401 89.3958C111.401 94.4226 111.401 99.4494 111.401 104.476C111.401 105.882 111.165 107.213 110.206 108.319C109.134 109.556 107.664 110.032 106.073 110.032C103.339 110.032 100.605 110.032 97.871 110.032C95.3195 110.032 92.7681 110.032 90.2173 110.032C89.6069 110.032 89.6062 110.981 90.2173 110.981C95.4443 110.981 100.672 110.981 105.899 110.981C107.243 110.981 108.528 110.783 109.68 110.026C111.362 108.92 112.314 107.071 112.35 105.074C112.394 102.592 112.35 100.106 112.35 97.6249C112.35 94.8821 112.35 92.1393 112.35 89.3958C112.349 88.7861 111.401 88.7847 111.401 89.3958Z" fill="#2B8761"/>
<path d="M90.4902 0.968082C95.517 0.968082 100.544 0.968082 105.571 0.968082C106.977 0.968082 108.307 1.20402 109.414 2.16356C110.651 3.23558 111.127 4.70541 111.127 6.29595C111.127 9.02985 111.127 11.7644 111.127 14.4983C111.127 17.0498 111.127 19.6012 111.127 22.152C111.127 22.7624 112.076 22.7631 112.076 22.152C112.076 16.925 112.076 11.6972 112.076 6.47016C112.076 5.12653 111.878 3.84121 111.121 2.68962C110.015 1.00717 108.166 0.0551748 106.169 0.0195093C103.687 -0.0243867 101.202 0.0195093 98.72 0.0195093C95.9772 0.0195093 93.2337 0.0195093 90.4909 0.0195093C89.8805 0.0195093 89.8791 0.968082 90.4902 0.968082Z" fill="#2B8761"/>
<path d="M17.7383 65.6261V69.6669H21.7792V65.6261V61.5852H17.7383V65.6261Z" fill="#263238"/>
<path d="M21.7792 41.3804H17.7383V45.4212H21.7792V41.3804Z" fill="#263238"/>
<path d="M46.7501 85.8721H42.7092V89.9129H46.7501V85.8721Z" fill="#263238"/>
<path d="M21.7792 49.462V53.5028H17.7383V57.5443H21.7792V61.5852H25.82H29.8609V65.626H33.9024V61.5852H37.9432V57.5443V53.5028H33.9024V57.5443H29.8609H25.82V53.5028V49.462V45.4211H21.7792V49.462Z" fill="#263238"/>
<path d="M29.8609 41.3804H25.82V45.4212H29.8609H33.9024V41.3804H29.8609Z" fill="#263238"/>
<path d="M48.0457 73.8658H50.2173V69.825H48.0457H45.8749V73.8658H48.0457Z" fill="#263238"/>
<path d="M37.9432 45.4211H33.9023V49.462H37.9432V45.4211Z" fill="#263238"/>
<path d="M66.2298 61.5852H62.189V65.6261H66.2298V61.5852Z" fill="#263238"/>
<path d="M70.2713 17.1348H66.2305V21.1756H70.2713V17.1348Z" fill="#263238"/>
<path d="M46.0249 49.4621V45.4213H50.0664V41.3804H46.0249V37.3396H41.984V41.3804H37.9432V45.4213H41.984V49.4621V53.503V57.5445V61.5854H46.0249V57.5445V53.503H50.0664V49.4621H46.0249Z" fill="#263238"/>
<path d="M66.2305 89.8717H70.2713V85.8308H66.2305H62.189V89.8717H66.2305Z" fill="#263238"/>
<path d="M62.189 17.1348H58.1481V21.1756H62.189V17.1348Z" fill="#263238"/>
<path d="M61.1786 49.4621V45.4212H57.1377V41.3804H53.0969V45.4212V49.4621H49.056V53.5029H53.0969H57.1377V49.4621H61.1786Z" fill="#263238"/>
<path d="M83.9871 41.3804H79.9462V45.4212H83.9871V41.3804Z" fill="#263238"/>
<path d="M42.1003 61.5852H38.0594V65.6261H42.1003V61.5852Z" fill="#263238"/>
<path d="M58.1481 37.3396V33.2987H62.189V29.2572H66.2304H70.2713V25.2164H66.2304V21.1755H62.189V25.2164H58.1481V29.2572H54.1073V33.2987H50.0664V37.3396H54.1073H58.1481Z" fill="#263238"/>
<path d="M58.1481 65.6261V61.5853H62.189V57.5444H58.1481H54.1073V61.5853H50.0664V65.6261H54.1073H58.1481Z" fill="#263238"/>
<path d="M70.2713 81.7882V77.7467H66.2305H62.189V73.7058H58.1481V77.7467H54.1073V81.7882H50.0664H46.0249V85.829H50.0664H54.1073H58.1481V81.7882H62.189V85.829H66.2305V81.7882H70.2713Z" fill="#263238"/>
<path d="M54.1073 21.1756V17.1348H50.0664H46.0249V21.1756H41.9841V25.2165H46.0249H50.0664V21.1756H54.1073Z" fill="#263238"/>
<path d="M54.1073 25.2163H50.0664V29.2572H54.1073V25.2163Z" fill="#263238"/>
<path d="M64.2098 41.3805H60.1689V45.4214V49.4622V53.5031H64.2098H68.2506V49.4622H64.2098V45.4214H68.2506V41.3805H72.2915V37.3397H68.2506V33.2988H64.2098V37.3397V41.3805Z" fill="#263238"/>
<path d="M50.0658 29.2573H46.0249V33.2982H50.0658V29.2573Z" fill="#263238"/>
<path d="M62.189 69.6668V73.7083H66.2305H70.2713V69.6668H74.3122H78.353V65.626H74.3122H70.2713H66.2305V69.6668H62.189Z" fill="#263238"/>
<path d="M83.9871 53.5029H79.9462V57.5438H83.9871V53.5029Z" fill="#263238"/>
<path d="M70.2713 57.5444H66.2305V61.5853H70.2713V57.5444Z" fill="#263238"/>
<path d="M80.3737 45.4211H76.3329H72.2914V49.462H76.3329V53.5028H80.3737V49.462V45.4211Z" fill="#263238"/>
<path d="M78.3529 57.5444H74.3121V61.5853H78.3529V57.5444Z" fill="#263238"/>
<path d="M33.9024 81.8657H46.0301V65.6213H29.7852V69.6668H25.82V73.7076H29.7852V77.7485H25.82V81.7893H29.7852V81.865H29.8609V85.8302H25.82V89.871V93.9119H29.8609V89.871H33.9017V85.8302L33.9024 81.8657ZM42.9187 68.7327V78.8352H32.8163V68.7327H42.9187Z" fill="#263238"/>
<path d="M86.4355 65.6261H90.4763V61.5852H86.4355H82.3939H78.3531V65.6261H82.3939H86.4355Z" fill="#263238"/>
<path d="M86.4354 49.4621H90.4762V45.4212V41.3804H86.4354V45.4212V49.4621Z" fill="#263238"/>
<path d="M54.2581 69.825H50.2172V73.8658V77.9067H54.2581V73.8658V69.825Z" fill="#263238"/>
<path d="M94.5171 65.626H90.4762V69.6668H94.5171V65.626Z" fill="#263238"/>
<path d="M94.5171 57.5444V53.5029H90.4762V57.5444V61.5853H94.5171V57.5444Z" fill="#263238"/>
<path d="M21.7792 85.8308H17.7383V89.8717V93.9132H21.7792V89.8717V85.8308Z" fill="#263238"/>
<path d="M94.517 37.3397V17.1348H74.3121V37.3397H94.517ZM77.3432 34.3085V20.1652H91.4865V34.3085H77.3432Z" fill="#263238"/>
<path d="M88.4555 23.1956H80.3738V31.2772H88.4555V23.1956Z" fill="#263238"/>
<path d="M94.517 73.7085H74.3121V93.9134H94.517V73.7085ZM77.3432 90.8823V76.739H91.4865V90.8823H77.3432Z" fill="#263238"/>
<path d="M88.4555 79.7693H80.3738V87.8516H88.4555V79.7693Z" fill="#263238"/>
<path d="M17.6874 17.1348V37.3397H37.8923V17.1348H17.6874ZM34.8619 20.1652V34.3085H20.7186V20.1652H34.8619Z" fill="#263238"/>
<path d="M31.8314 23.1956H23.749V31.2772H31.8314V23.1956Z" fill="#263238"/>
</svg>
