<svg width="229" height="229" viewBox="0 0 229 229" fill="none" xmlns="http://www.w3.org/2000/svg">
<path d="M61.607 88.6881V92.1217H65.0401V88.6881V85.2549H61.607V88.6881Z" fill="#EBEBEB"/>
<path d="M65.0401 68.0889H61.607V71.522H65.0401V68.0889Z" fill="#EBEBEB"/>
<path d="M86.2556 105.889H82.8224V109.322H86.2556V105.889Z" fill="#EBEBEB"/>
<path d="M65.0401 74.9554V78.3886H61.607V81.8217H65.0401V85.2549H68.4737H71.9069V88.6881H75.3401V85.2549H78.7733V81.8217V78.3886H75.3401V81.8217H71.9069H68.4737V78.3886V74.9554V71.5222H65.0401V74.9554Z" fill="#EBEBEB"/>
<path d="M71.9069 68.0889H68.4737V71.522H71.9069H75.3401V68.0889H71.9069Z" fill="#EBEBEB"/>
<path d="M87.3562 95.6885H89.201V92.2554H87.3562H85.5118V95.6885H87.3562Z" fill="#EBEBEB"/>
<path d="M78.7733 71.5222H75.3401V74.9554H78.7733V71.5222Z" fill="#EBEBEB"/>
<path d="M102.806 85.2549H99.3727V88.6881H102.806V85.2549Z" fill="#EBEBEB"/>
<path d="M106.239 47.4895H102.806V50.9227H106.239V47.4895Z" fill="#EBEBEB"/>
<path d="M85.6396 74.9553V71.5221H89.0728V68.0889H85.6396V64.6558H82.2064V68.0889H78.7733V71.5221H82.2064V74.9553V78.3884V81.8216V85.2548H85.6396V81.8216V78.3884H89.0728V74.9553H85.6396Z" fill="#EBEBEB"/>
<path d="M102.806 109.287H106.239V105.854H102.806H99.3727V109.287H102.806Z" fill="#EBEBEB"/>
<path d="M99.3727 47.4895H95.9396V50.9227H99.3727V47.4895Z" fill="#EBEBEB"/>
<path d="M98.5144 74.9552V71.522H95.0813V68.0889H91.6476V71.522V74.9552H88.2145V78.3884H91.6476H95.0813V74.9552H98.5144Z" fill="#EBEBEB"/>
<path d="M117.892 68.0889H114.459V71.522H117.892V68.0889Z" fill="#EBEBEB"/>
<path d="M82.3053 85.2549H78.8722V88.6881H82.3053V85.2549Z" fill="#EBEBEB"/>
<path d="M95.9396 64.6557V61.2226H99.3727V57.7889H102.806H106.239V54.3558H102.806V50.9226H99.3727V54.3558H95.9396V57.7889H92.5064V61.2226H89.0732V64.6557H92.5064H95.9396Z" fill="#EBEBEB"/>
<path d="M95.9396 88.6879V85.2547H99.3727V81.8215H95.9396H92.5064V85.2547H89.0728V88.6879H92.5064H95.9396Z" fill="#EBEBEB"/>
<path d="M106.239 102.419V98.9861H102.806H99.3727V95.553H95.9396V98.9861H92.5064V102.419H89.0728H85.6396V105.852H89.0728H92.5064H95.9396V102.419H99.3727V105.852H102.806V102.419H106.239Z" fill="#EBEBEB"/>
<path d="M92.5064 50.9227V47.4895H89.0732H85.6396V50.9227H82.2064V54.3558H85.6396H89.0732V50.9227H92.5064Z" fill="#EBEBEB"/>
<path d="M92.5064 54.356H89.0732V57.7891H92.5064V54.356Z" fill="#EBEBEB"/>
<path d="M101.089 68.089H97.6561V71.5222V74.9553V78.3885H101.089H104.522V74.9553H101.089V71.5222H104.522V68.089H107.956V64.6558H104.522V61.2227H101.089V64.6558V68.089Z" fill="#EBEBEB"/>
<path d="M89.0728 57.7891H85.6396V61.2222H89.0728V57.7891Z" fill="#EBEBEB"/>
<path d="M99.3727 92.1216V95.5548H102.806H106.239V92.1216H109.672H113.105V88.688H109.672H106.239H102.806V92.1216H99.3727Z" fill="#EBEBEB"/>
<path d="M117.892 78.3884H114.459V81.8216H117.892V78.3884Z" fill="#EBEBEB"/>
<path d="M106.239 81.8215H102.806V85.2547H106.239V81.8215Z" fill="#EBEBEB"/>
<path d="M114.822 71.5222H111.389H107.956V74.9554H111.389V78.3886H114.822V74.9554V71.5222Z" fill="#EBEBEB"/>
<path d="M113.105 81.8215H109.672V85.2547H113.105V81.8215Z" fill="#EBEBEB"/>
<path d="M75.3401 102.485H85.6437V88.6843H71.8428V92.1216H68.4742V95.5548H71.8428V98.9879H68.4742V102.421H71.8428V102.485H71.9074V105.854H68.4742V109.287V112.721H71.9074V109.287H75.3405V105.854L75.3401 102.485ZM83.0006 91.3274V99.9104H74.4177V91.3274H83.0006Z" fill="#EBEBEB"/>
<path d="M119.972 88.6881H123.405V85.2549H119.972H116.539H113.105V88.6881H116.539H119.972Z" fill="#EBEBEB"/>
<path d="M119.972 74.9552H123.405V71.522V68.0889H119.972V71.522V74.9552Z" fill="#EBEBEB"/>
<path d="M92.6342 92.2554H89.201V95.6885V99.1217H92.6342V95.6885V92.2554Z" fill="#EBEBEB"/>
<path d="M126.839 88.688H123.405V92.1212H126.839V88.688Z" fill="#EBEBEB"/>
<path d="M126.839 81.8216V78.3884H123.405V81.8216V85.2548H126.839V81.8216Z" fill="#EBEBEB"/>
<path d="M65.0406 105.854H61.607V109.287V112.721H65.0406V109.287V105.854Z" fill="#EBEBEB"/>
<path d="M126.839 64.6558V47.4895H109.673V64.6558H126.839ZM112.247 62.0809V50.0644H124.263V62.0809H112.247Z" fill="#EBEBEB"/>
<path d="M121.688 52.6392H114.822V59.5055H121.688V52.6392Z" fill="#EBEBEB"/>
<path d="M126.839 95.5547H109.673V112.721H126.839V95.5547ZM112.247 110.146V98.1291H124.263V110.146H112.247Z" fill="#EBEBEB"/>
<path d="M121.688 100.705H114.822V107.571H121.688V100.705Z" fill="#EBEBEB"/>
<path d="M61.5644 47.4895V64.6558H78.7302V47.4895H61.5644ZM76.1553 50.0644V62.0809H64.1392V50.0644H76.1553Z" fill="#EBEBEB"/>
<path d="M73.5804 52.6392H66.7141V59.5055H73.5804V52.6392Z" fill="#EBEBEB"/>
<path d="M34.1714 114.728C34.1673 115.626 33.4363 116.35 32.5386 116.346C31.6409 116.342 30.9168 115.611 30.921 114.713C30.9251 113.816 31.656 113.092 32.5537 113.096C33.4509 113.1 34.1755 113.831 34.1714 114.728Z" fill="#EBEBEB"/>
<path d="M29.2978 112.639C31.0826 110.765 33.9831 110.708 35.8138 112.553C36.6432 113.39 37.9421 112.103 37.1122 111.267C34.6005 108.735 30.4781 108.751 28.0113 111.341C27.2006 112.192 28.4849 113.493 29.2978 112.639Z" fill="#EBEBEB"/>
<path d="M23.778 105.075C26.2494 102.938 29.1993 101.593 32.5029 101.586C35.7771 101.577 39.006 102.74 41.4041 104.992C42.261 105.797 43.5622 104.513 42.7025 103.705C39.9555 101.125 36.2713 99.7482 32.5111 99.7574C28.7097 99.767 25.3311 101.321 22.491 103.776C21.5997 104.547 22.8913 105.841 23.778 105.075Z" fill="#EBEBEB"/>
<path d="M25.9562 109.267C27.6128 107.476 29.9349 106.354 32.3884 106.298C34.9092 106.24 37.3426 107.279 39.0949 109.079C39.917 109.923 41.215 108.637 40.3933 107.792C38.3195 105.662 35.381 104.402 32.3966 104.47C29.4778 104.537 26.6492 105.828 24.6693 107.968C23.8723 108.83 25.1556 110.133 25.9562 109.267Z" fill="#EBEBEB"/>
<path d="M104.47 25.8472C104.747 23.838 101.911 22.1851 99.7803 22.0133C98.764 21.9313 97.7088 22.0866 96.7461 21.7513C94.6604 21.0245 93.8273 18.3296 91.7919 17.4713C90.2704 16.8297 88.5186 17.4008 87.0438 18.1432C85.5686 18.8856 84.1112 19.82 82.4634 19.9253C81.0298 20.0169 79.4735 19.4856 78.2191 20.1859C77.2848 20.7076 76.7952 21.7843 75.9337 22.42C75.0909 23.0415 73.9917 23.1734 72.9461 23.2302C71.9005 23.287 70.8183 23.2975 69.8661 23.7336C68.9139 24.1696 68.1266 25.1763 68.324 26.2045L104.47 25.8472Z" fill="#EBEBEB"/>
<path d="M49.7585 59.7916C50.0063 57.9902 47.4644 56.5086 45.5545 56.3547C44.6435 56.2814 43.6973 56.4207 42.8345 56.1198C40.9649 55.468 40.2179 53.0525 38.3937 52.2831C37.0298 51.7079 35.4597 52.2199 34.1375 52.8854C32.8152 53.5508 31.5086 54.3885 30.0315 54.4829C28.7464 54.5653 27.3513 54.0885 26.2269 54.7165C25.3892 55.1841 24.9505 56.1495 24.1783 56.7188C23.423 57.2762 22.4374 57.3939 21.5004 57.4452C20.5633 57.4961 19.5928 57.5057 18.7395 57.8964C17.8863 58.287 17.18 59.1897 17.3573 60.1112L49.7585 59.7916Z" fill="#F5F5F5"/>
<path d="M221.388 58.5173C221.653 56.5887 218.931 55.0021 216.886 54.8373C215.91 54.7585 214.897 54.9078 213.973 54.5858C211.972 53.8883 211.172 51.3015 209.218 50.4776C207.758 49.8615 206.077 50.4098 204.661 51.1224C203.245 51.8351 201.846 52.7318 200.264 52.8331C198.888 52.921 197.394 52.4108 196.19 53.0831C195.293 53.5837 194.824 54.6174 193.996 55.2275C193.188 55.8243 192.132 55.9502 191.129 56.0052C190.125 56.0597 189.086 56.0697 188.172 56.4883C187.259 56.907 186.503 57.8729 186.692 58.8599L221.388 58.5173Z" fill="#F5F5F5"/>
<path d="M217.304 218.492C217.304 218.558 171.273 218.611 114.505 218.611C57.7167 218.611 11.6959 218.558 11.6959 218.492C11.6959 218.426 57.7167 218.373 114.505 218.373C171.273 218.373 217.304 218.426 217.304 218.492Z" fill="#263238"/>
<path d="M192.679 198.344C193.596 198.742 194.271 199.59 194.61 200.531C194.948 201.472 194.979 202.5 194.866 203.494C194.648 205.417 193.556 207.358 192.379 208.894C190.76 207.481 190.388 205.016 190.277 203.754C190.103 201.759 190.999 198.047 192.679 198.344Z" fill="#2B8761"/>
<path d="M194.261 212.068C194.002 210.981 194.454 209.789 195.288 209.046C196.122 208.302 197.288 207.988 198.402 208.073C198.917 208.113 199.474 208.263 199.769 208.687C200.044 209.084 200.014 209.637 199.79 210.065C199.566 210.493 199.179 210.813 198.77 211.069C197.367 211.949 195.848 212.543 194.261 212.068Z" fill="#2B8761"/>
<path d="M192.185 217.963C192.175 217.96 192.197 217.82 192.243 217.568C192.294 217.29 192.36 216.931 192.439 216.5C192.618 215.608 192.847 214.33 193.541 213.089C194.225 211.852 195.182 210.94 195.989 210.488C196.389 210.256 196.739 210.118 196.987 210.046C197.109 210.005 197.208 209.989 197.274 209.973C197.341 209.96 197.376 209.954 197.377 209.959C197.388 209.99 196.816 210.093 196.04 210.573C195.261 211.039 194.336 211.941 193.663 213.157C192.983 214.372 192.739 215.633 192.536 216.52C192.438 216.967 192.358 217.33 192.296 217.579C192.235 217.828 192.194 217.965 192.185 217.963Z" fill="#263238"/>
<path d="M192.246 201.231C192.251 201.231 192.257 201.291 192.266 201.404C192.273 201.532 192.283 201.696 192.295 201.899C192.318 202.33 192.343 202.953 192.368 203.723C192.418 205.264 192.457 207.393 192.447 209.745C192.437 212.098 192.379 214.227 192.316 215.767C192.284 216.537 192.254 217.16 192.227 217.591C192.213 217.794 192.202 217.958 192.193 218.086C192.184 218.199 192.177 218.258 192.172 218.258C192.167 218.258 192.165 218.198 192.165 218.084C192.167 217.956 192.169 217.792 192.172 217.588C192.183 217.14 192.198 216.521 192.217 215.764C192.255 214.224 192.296 212.096 192.307 209.745C192.316 207.394 192.293 205.266 192.269 203.726C192.257 202.969 192.247 202.349 192.24 201.901C192.239 201.697 192.238 201.533 192.237 201.405C192.238 201.291 192.241 201.231 192.246 201.231Z" fill="#263238"/>
<path d="M191.46 213.238C191.092 210.912 189.524 208.809 187.399 207.791C186.859 207.532 186.152 207.363 185.707 207.765C185.261 208.168 185.361 208.892 185.579 209.451C186.486 211.781 188.922 213.425 191.422 213.396" fill="#2B8761"/>
<path d="M187.662 209.615C187.666 209.606 187.788 209.66 188.005 209.764C188.114 209.816 188.248 209.88 188.394 209.971C188.539 210.062 188.715 210.151 188.888 210.282C189.065 210.406 189.262 210.539 189.454 210.707C189.655 210.864 189.851 211.053 190.055 211.254C190.454 211.665 190.856 212.156 191.199 212.723C191.537 213.294 191.781 213.879 191.952 214.426C192.029 214.703 192.104 214.965 192.142 215.217C192.197 215.467 192.218 215.703 192.24 215.919C192.269 216.133 192.259 216.33 192.267 216.502C192.274 216.673 192.263 216.821 192.253 216.941C192.236 217.182 192.221 217.315 192.212 217.314C192.18 217.312 192.235 216.779 192.141 215.929C192.113 215.717 192.087 215.484 192.028 215.24C191.984 214.992 191.907 214.736 191.828 214.464C191.653 213.929 191.41 213.356 191.078 212.795C190.741 212.238 190.35 211.754 189.962 211.344C189.763 211.144 189.574 210.954 189.378 210.796C189.193 210.627 189.001 210.491 188.831 210.363C188.135 209.864 187.648 209.642 187.662 209.615Z" fill="#263238"/>
<path d="M69.6416 218.498C69.6055 218.503 69.512 217.999 69.3284 217.194C69.1452 216.389 68.8575 215.285 68.4449 214.097C68.0304 212.908 67.5706 211.864 67.2142 211.119C66.8584 210.374 66.6188 209.921 66.6504 209.902C66.6756 209.887 66.9674 210.312 67.3649 211.043C67.7625 211.773 68.2516 212.817 68.6702 214.018C69.087 215.219 69.3522 216.341 69.4937 217.16C69.6362 217.98 69.6705 218.494 69.6416 218.498Z" fill="#263238"/>
<path d="M73.7059 198.678C73.722 198.682 73.6807 198.958 73.5928 199.454C73.5026 199.95 73.3776 200.669 73.2328 201.558C72.9415 203.336 72.6031 205.803 72.3915 208.543C72.1831 211.284 72.1423 213.775 72.1597 215.576C72.168 216.477 72.1817 217.206 72.1955 217.71C72.2069 218.214 72.206 218.494 72.1895 218.495C72.173 218.496 72.1432 218.218 72.1029 217.715C72.0603 217.211 72.021 216.482 71.9912 215.58C71.9303 213.775 71.9445 211.276 72.1538 208.525C72.3658 205.776 72.7318 203.304 73.0666 201.53C73.2333 200.642 73.3835 199.927 73.5021 199.436C73.618 198.944 73.6899 198.674 73.7059 198.678Z" fill="#263238"/>
<path d="M80.226 210.086C80.2553 210.112 79.9315 210.513 79.4653 211.199C78.9986 211.884 78.4073 212.868 77.8989 214.025C77.3928 215.183 77.07 216.284 76.8826 217.092C76.6944 217.899 76.6184 218.41 76.5799 218.405C76.5529 218.403 76.5694 217.883 76.7177 217.058C76.8643 216.233 77.1666 215.105 77.6805 213.929C78.1971 212.755 78.8213 211.768 79.3283 211.101C79.8349 210.433 80.2054 210.068 80.226 210.086Z" fill="#263238"/>
<path d="M160.075 211.579C160.102 211.563 160.338 211.908 160.678 212.491C161.019 213.074 161.459 213.898 161.895 214.831C162.33 215.766 162.679 216.632 162.907 217.267C163.136 217.902 163.25 218.305 163.22 218.316C163.188 218.328 163.019 217.946 162.751 217.329C162.483 216.712 162.112 215.861 161.679 214.932C161.245 214.004 160.831 213.173 160.529 212.572C160.229 211.97 160.045 211.596 160.075 211.579Z" fill="#263238"/>
<path d="M168.501 203.235C168.517 203.239 168.475 203.451 168.386 203.829C168.287 204.254 168.162 204.791 168.014 205.431C167.709 206.785 167.338 208.667 167.059 210.765C166.783 212.864 166.652 214.778 166.595 216.165C166.572 216.822 166.552 217.373 166.537 217.808C166.525 218.196 166.51 218.411 166.494 218.411C166.478 218.411 166.461 218.197 166.445 217.808C166.426 217.419 166.419 216.856 166.427 216.159C166.441 214.767 166.546 212.842 166.823 210.734C167.104 208.626 167.503 206.74 167.851 205.392C168.025 204.718 168.178 204.175 168.297 203.805C168.413 203.433 168.485 203.23 168.501 203.235Z" fill="#263238"/>
<path d="M107.54 206.961C107.551 206.948 107.698 207.063 107.955 207.282C108.214 207.497 108.568 207.834 108.984 208.271C109.818 209.142 110.862 210.462 111.744 212.085C112.623 213.711 113.159 215.306 113.434 216.48C113.573 217.067 113.662 217.548 113.701 217.883C113.744 218.217 113.76 218.403 113.744 218.405C113.702 218.412 113.587 217.676 113.271 216.522C112.957 215.369 112.402 213.805 111.534 212.199C110.663 210.596 109.655 209.277 108.86 208.385C108.066 207.49 107.512 206.992 107.54 206.961Z" fill="#263238"/>
<path d="M115.475 202.088C115.491 202.089 115.497 202.321 115.494 202.738C115.493 203.201 115.491 203.795 115.489 204.507C115.493 206 115.551 208.062 115.747 210.331C115.946 212.599 116.246 214.64 116.501 216.111C116.626 216.812 116.73 217.397 116.812 217.852C116.888 218.263 116.921 218.493 116.905 218.496C116.889 218.5 116.825 218.278 116.721 217.872C116.616 217.467 116.483 216.876 116.335 216.142C116.038 214.675 115.709 212.629 115.509 210.351C115.312 208.074 115.281 206.002 115.32 204.506C115.339 203.757 115.368 203.152 115.402 202.735C115.433 202.317 115.458 202.087 115.475 202.088Z" fill="#263238"/>
<path d="M122.484 211.798C122.551 211.834 121.763 213.209 121.222 215.066C120.668 216.921 120.584 218.503 120.508 218.496C120.479 218.495 120.462 218.098 120.518 217.458C120.574 216.82 120.716 215.94 120.994 214.998C121.272 214.058 121.629 213.242 121.929 212.675C122.229 212.108 122.459 211.783 122.484 211.798Z" fill="#263238"/>
<path d="M28.8215 174.918H23.5018V217.131H28.8215V174.918Z" fill="#455A64"/>
<path d="M28.8215 217.131C28.8215 217.131 28.816 217.053 28.8132 216.91C28.8114 216.758 28.8087 216.548 28.805 216.276C28.8013 215.713 28.7958 214.898 28.7885 213.85C28.7803 211.737 28.7684 208.688 28.7537 204.899C28.7409 197.321 28.7226 186.787 28.7024 174.918L28.821 175.036C27.1228 175.037 25.3251 175.037 23.5036 175.037H23.5023H23.5014L23.6204 174.918C23.592 193.409 23.5673 209.421 23.5554 217.131L23.5014 217.077C25.2193 217.09 26.5416 217.1 27.4447 217.107C27.8881 217.113 28.2279 217.117 28.4674 217.12C28.6987 217.124 28.8215 217.131 28.8215 217.131C28.8215 217.131 28.7125 217.138 28.4871 217.141C28.2508 217.144 27.9146 217.148 27.4768 217.154C26.5663 217.161 25.2335 217.171 23.5018 217.185L23.4478 217.185V217.131C23.4359 209.421 23.4111 193.409 23.3827 174.918L23.5023 174.799H23.5027H23.5046C25.326 174.8 27.1232 174.8 28.8219 174.8H28.9406L28.9401 174.919C28.92 186.821 28.9021 197.386 28.8888 204.985C28.8742 208.763 28.8622 211.802 28.854 213.909C28.8471 214.945 28.8416 215.751 28.8375 216.309C28.8343 216.573 28.8316 216.778 28.8293 216.926C28.827 217.064 28.8215 217.131 28.8215 217.131Z" fill="#263238"/>
<g opacity="0.3">
<path d="M28.8215 175.944H23.5018V177.701H28.8215V175.944Z" fill="black"/>
</g>
<path d="M141.948 174.918H136.629V217.131H141.948V174.918Z" fill="#455A64"/>
<path d="M141.948 217.131C141.948 217.131 141.943 217.053 141.94 216.91C141.938 216.758 141.936 216.548 141.932 216.276C141.929 215.713 141.923 214.898 141.916 213.85C141.908 211.737 141.896 208.688 141.881 204.899C141.868 197.321 141.85 186.787 141.83 174.918L141.948 175.036C140.25 175.037 138.452 175.037 136.631 175.037H136.63H136.629L136.748 174.918C136.719 193.409 136.694 209.421 136.682 217.131L136.628 217.077C138.346 217.09 139.668 217.1 140.572 217.107C141.015 217.113 141.355 217.117 141.594 217.12C141.826 217.124 141.948 217.131 141.948 217.131C141.948 217.131 141.839 217.138 141.614 217.141C141.378 217.144 141.042 217.148 140.604 217.154C139.693 217.161 138.36 217.171 136.629 217.185L136.575 217.185V217.131C136.563 209.421 136.538 193.409 136.51 174.918L136.629 174.799H136.63H136.63H136.631C138.453 174.8 140.25 174.8 141.949 174.8H142.067V174.919C142.047 186.821 142.029 197.386 142.016 204.985C142.002 208.763 141.99 211.802 141.981 213.909C141.975 214.945 141.969 215.751 141.965 216.309C141.961 216.573 141.959 216.778 141.957 216.926C141.954 217.064 141.948 217.131 141.948 217.131Z" fill="#263238"/>
<path d="M133.615 137.94H128.295V173.127H133.615V137.94Z" fill="#455A64"/>
<path d="M133.615 173.128C133.612 173.125 133.61 173.063 133.607 172.943C133.605 172.814 133.603 172.64 133.6 172.416C133.596 171.944 133.59 171.267 133.583 170.397C133.575 168.637 133.563 166.101 133.549 162.948C133.536 156.638 133.518 147.859 133.497 137.94L133.615 138.058C131.912 138.059 130.119 138.059 128.297 138.059C128.532 137.821 128.362 138 128.414 137.949V137.96V137.983V138.027V138.116V138.294V138.648V139.355C128.414 139.826 128.414 140.294 128.414 140.76C128.414 141.693 128.414 142.617 128.414 143.531C128.412 145.359 128.411 147.147 128.41 148.888C128.406 152.368 128.402 155.657 128.398 158.684C128.38 164.728 128.364 169.726 128.354 173.128L128.296 173.07C130.002 173.084 131.324 173.095 132.231 173.103C132.674 173.109 133.016 173.113 133.258 173.116C133.491 173.12 133.615 173.128 133.615 173.128C133.615 173.128 133.505 173.135 133.279 173.139C133.04 173.142 132.702 173.147 132.264 173.153C131.35 173.161 130.017 173.172 128.296 173.186L128.238 173.186V173.128C128.227 169.726 128.212 164.728 128.194 158.684C128.19 155.657 128.186 152.368 128.181 148.888C128.18 147.147 128.179 145.359 128.178 143.531C128.178 142.617 128.178 141.693 128.177 140.76C128.177 140.294 128.177 139.826 128.177 139.355V138.648V138.294V138.116V138.027V137.983V137.96V137.949C128.231 137.893 128.056 138.059 128.299 137.821C130.12 137.822 131.914 137.822 133.616 137.822H133.735L133.735 137.94C133.714 147.893 133.696 156.701 133.683 163.033C133.668 166.174 133.656 168.701 133.648 170.455C133.641 171.313 133.636 171.981 133.632 172.447C133.629 172.664 133.626 172.834 133.624 172.959C133.621 173.073 133.618 173.13 133.615 173.128Z" fill="#263238"/>
<path d="M39.0024 137.94H33.6827V173.127H39.0024V137.94Z" fill="#455A64"/>
<path d="M39.0024 173.128C38.9996 173.125 38.9969 173.063 38.9946 172.943C38.9927 172.814 38.99 172.64 38.9868 172.416C38.9831 171.944 38.9776 171.267 38.9708 170.397C38.9625 168.637 38.9506 166.101 38.936 162.948C38.9227 156.638 38.9048 147.859 38.8842 137.94L39.0024 138.058C37.2995 138.059 35.5064 138.059 33.6845 138.059C33.919 137.821 33.7496 138 33.8018 137.949V137.96V137.983V138.027V138.116V138.294V138.648V139.355C33.8018 139.826 33.8018 140.294 33.8018 140.76C33.8013 141.693 33.8013 142.617 33.8009 143.531C33.7999 145.359 33.7986 147.147 33.7977 148.888C33.7931 152.368 33.789 155.657 33.7853 158.684C33.767 164.728 33.7514 169.726 33.7413 173.128L33.6832 173.07C35.3892 173.084 36.711 173.095 37.6178 173.103C38.0616 173.109 38.4033 173.113 38.6456 173.116C38.8773 173.12 39.0024 173.128 39.0024 173.128C39.0024 173.128 38.8924 173.135 38.6662 173.139C38.4271 173.142 38.0896 173.147 37.6517 173.153C36.7366 173.161 35.4039 173.172 33.6827 173.186L33.6245 173.186V173.128C33.614 169.726 33.5989 164.728 33.5806 158.684C33.5769 155.657 33.5723 152.368 33.5682 148.888C33.5673 147.147 33.5659 145.359 33.565 143.531C33.5645 142.617 33.5645 141.693 33.5641 140.76C33.5641 140.294 33.5641 139.826 33.5641 139.355V138.648V138.294V138.116V138.027V137.983V137.96V137.949C33.6181 137.893 33.4432 138.059 33.6854 137.821C35.5069 137.822 37.3004 137.822 39.0033 137.822H39.1219L39.1214 137.94C39.1008 147.893 39.083 156.701 39.0697 163.033C39.055 166.174 39.0431 168.701 39.0349 170.455C39.028 171.313 39.0225 171.981 39.0189 172.447C39.0156 172.664 39.0129 172.834 39.0111 172.959C39.0074 173.073 39.0047 173.13 39.0024 173.128Z" fill="#263238"/>
<path d="M143.877 133.925H23.189V139.557H143.877V133.925Z" fill="#455A64"/>
<path d="M143.877 139.558C143.877 139.558 143.873 139.443 143.871 139.215C143.869 138.983 143.866 138.641 143.863 138.179C143.859 137.252 143.852 135.848 143.844 133.925L143.877 133.959C129.036 133.969 80.5878 134.004 23.195 134.044H23.189L23.3081 133.925C23.3081 135.855 23.3081 137.774 23.3081 139.558L23.189 139.439C56.7842 139.458 86.9385 139.475 108.699 139.488C119.587 139.503 128.374 139.516 134.443 139.524C137.477 139.532 139.832 139.538 141.432 139.541C142.23 139.545 142.838 139.548 143.252 139.549C143.662 139.552 143.877 139.558 143.877 139.558C143.877 139.558 143.674 139.563 143.268 139.566C142.858 139.568 142.255 139.571 141.465 139.574C139.871 139.578 137.526 139.584 134.504 139.591C128.441 139.599 119.663 139.612 108.787 139.627C87.004 139.64 56.8186 139.657 23.189 139.677H23.0699V139.558C23.0699 137.774 23.0699 135.855 23.0699 133.925V133.806H23.189H23.195C80.5874 133.847 129.036 133.881 143.877 133.892H143.911V133.925C143.902 135.857 143.896 137.267 143.892 138.198C143.888 138.657 143.886 138.997 143.884 139.226C143.881 139.451 143.877 139.558 143.877 139.558Z" fill="#263238"/>
<path d="M144.19 142.374H23.5018V148.007H144.19V142.374Z" fill="#455A64"/>
<path d="M144.19 148.006C144.19 148.006 144.186 147.891 144.183 147.663C144.182 147.432 144.179 147.09 144.176 146.628C144.172 145.7 144.165 144.297 144.156 142.374L144.189 142.407C129.348 142.418 80.9002 142.452 23.5073 142.493H23.5014L23.6204 142.374C23.6204 144.304 23.6204 146.223 23.6204 148.006L23.5014 147.887C57.0966 147.907 87.2508 147.924 109.011 147.937C119.899 147.952 128.686 147.964 134.756 147.973C137.79 147.98 140.144 147.986 141.745 147.99C142.542 147.994 143.15 147.996 143.564 147.998C143.976 148.001 144.19 148.006 144.19 148.006C144.19 148.006 143.986 148.012 143.582 148.015C143.171 148.017 142.568 148.019 141.778 148.023C140.184 148.027 137.839 148.033 134.816 148.04C128.753 148.049 119.976 148.06 109.1 148.076C87.3168 148.088 57.1314 148.106 23.5018 148.126H23.3827V148.006C23.3827 146.223 23.3827 144.304 23.3827 142.374V142.255H23.5018H23.5078C80.9002 142.296 129.348 142.33 144.19 142.341H144.224V142.374C144.215 144.305 144.209 145.716 144.204 146.647C144.201 147.106 144.198 147.445 144.196 147.675C144.194 147.9 144.19 148.006 144.19 148.006Z" fill="#263238"/>
<path d="M144.19 151.136H23.5018V156.768H144.19V151.136Z" fill="#455A64"/>
<path d="M144.19 156.768C144.19 156.768 144.186 156.653 144.183 156.425C144.182 156.194 144.179 155.851 144.176 155.39C144.172 154.462 144.165 153.059 144.156 151.136L144.189 151.169C129.348 151.18 80.9002 151.214 23.5073 151.255H23.5014L23.6204 151.136C23.6204 153.065 23.6204 154.985 23.6204 156.768L23.5014 156.649C57.0966 156.669 87.2508 156.686 109.011 156.699C119.899 156.714 128.686 156.726 134.756 156.735C137.79 156.742 140.144 156.748 141.745 156.752C142.542 156.756 143.15 156.758 143.564 156.76C143.976 156.763 144.19 156.768 144.19 156.768C144.19 156.768 143.986 156.774 143.582 156.777C143.171 156.778 142.568 156.781 141.778 156.785C140.184 156.789 137.839 156.794 134.816 156.802C128.753 156.81 119.976 156.822 109.1 156.838C87.3168 156.85 57.1314 156.867 23.5018 156.887H23.3827V156.768C23.3827 154.984 23.3827 153.065 23.3827 151.135V151.016H23.5018H23.5078C80.9002 151.057 129.348 151.091 144.19 151.102H144.224V151.135C144.215 153.067 144.209 154.477 144.204 155.409C144.201 155.867 144.198 156.207 144.196 156.436C144.194 156.662 144.19 156.768 144.19 156.768Z" fill="#263238"/>
<path d="M144.19 159.898H23.5018V165.53H144.19V159.898Z" fill="#455A64"/>
<path d="M144.19 165.531C144.19 165.531 144.186 165.416 144.183 165.188C144.182 164.957 144.179 164.614 144.176 164.152C144.172 163.225 144.165 161.821 144.156 159.898L144.189 159.932C129.348 159.942 80.9002 159.977 23.5073 160.017H23.5014L23.6204 159.898C23.6204 161.828 23.6204 163.747 23.6204 165.531L23.5014 165.412C57.0966 165.431 87.2508 165.448 109.011 165.461C119.899 165.476 128.686 165.489 134.756 165.497C137.79 165.505 140.144 165.511 141.745 165.514C142.542 165.518 143.15 165.521 143.564 165.523C143.976 165.525 144.19 165.531 144.19 165.531C144.19 165.531 143.986 165.536 143.582 165.539C143.171 165.541 142.568 165.544 141.778 165.547C140.184 165.551 137.839 165.557 134.816 165.564C128.753 165.573 119.976 165.585 109.1 165.6C87.3168 165.613 57.1314 165.63 23.5018 165.65H23.3827V165.531C23.3827 163.747 23.3827 161.828 23.3827 159.898V159.779H23.5018H23.5078C80.9002 159.82 129.348 159.854 144.19 159.865H144.224V159.898C144.215 161.83 144.209 163.24 144.204 164.172C144.201 164.63 144.198 164.97 144.196 165.199C144.194 165.424 144.19 165.531 144.19 165.531Z" fill="#263238"/>
<path d="M146.384 170.311H18.2595V175.944H146.384V170.311Z" fill="#455A64"/>
<path d="M146.384 175.944C146.384 175.944 146.38 175.829 146.378 175.602C146.376 175.371 146.374 175.029 146.37 174.568C146.366 173.642 146.36 172.238 146.352 170.311L146.384 170.344C131.003 170.355 79.4309 170.389 18.266 170.431H18.2595L18.3786 170.311C18.3786 172.241 18.3786 174.161 18.3786 175.944L18.2595 175.825C53.9098 175.844 85.9231 175.862 109.029 175.874C120.59 175.889 129.921 175.902 136.366 175.911C139.589 175.918 142.089 175.924 143.788 175.927C144.635 175.931 145.281 175.934 145.72 175.936C146.156 175.938 146.384 175.944 146.384 175.944C146.384 175.944 146.168 175.949 145.737 175.952C145.302 175.954 144.661 175.957 143.821 175.96C142.128 175.965 139.637 175.97 136.427 175.977C129.988 175.986 120.667 175.998 109.118 176.014C85.989 176.026 53.9446 176.043 18.2595 176.063H18.1405V175.944C18.1405 174.161 18.1405 172.241 18.1405 170.311V170.192H18.2595H18.266C79.4309 170.234 131.003 170.269 146.384 170.279H146.417V170.311C146.408 172.246 146.402 173.656 146.398 174.587C146.395 175.045 146.392 175.384 146.391 175.613C146.388 175.837 146.384 175.944 146.384 175.944Z" fill="#263238"/>
<g opacity="0.3">
<path d="M141.948 175.944H136.629V177.701H141.948V175.944Z" fill="black"/>
</g>
<path d="M77.0841 105.487L75.935 112.903L72.9768 119.654L68.5928 116.854L67.0347 112.914L65.7276 109.61C65.7276 109.61 61.0972 110.723 59.2528 106.394C58.3625 104.304 56.879 99.8504 55.5833 95.8036C54.1896 91.4516 56.3711 86.7594 60.5971 85.0204L61.0171 84.8477C65.6529 83.2493 69.6 86.2936 71.0697 90.9721L77.0841 105.487Z" fill="#F0B8B0"/>
<path d="M65.7216 109.609C65.7216 109.609 68.5635 108.701 70.7308 105.663C70.7308 105.663 70.6786 109.346 66.175 110.741L65.7216 109.609Z" fill="#7A4A45"/>
<path d="M58.4115 99.1245C58.5347 99.4575 58.9185 99.6274 59.2684 99.5051C59.6179 99.3828 59.802 99.0141 59.6783 98.6812C59.5547 98.3482 59.1713 98.1778 58.8219 98.3001C58.4719 98.4224 58.2883 98.7915 58.4115 99.1245Z" fill="#263238"/>
<path d="M57.2353 97.3449C57.3457 97.3943 57.6727 96.8521 58.3423 96.5786C59.0069 96.296 59.6394 96.438 59.6779 96.3263C59.6985 96.2754 59.5597 96.1614 59.2821 96.0936C59.0078 96.0254 58.5874 96.0222 58.1715 96.1953C57.7561 96.3689 57.4685 96.6666 57.332 96.9061C57.1918 97.1488 57.1822 97.3238 57.2353 97.3449Z" fill="#263238"/>
<path d="M64.2441 96.5241C64.3673 96.8571 64.7511 97.027 65.1015 96.9043C65.4509 96.782 65.6351 96.4133 65.5114 96.0803C65.3877 95.7474 65.0039 95.577 64.6549 95.6993C64.3046 95.8225 64.1205 96.1916 64.2441 96.5241Z" fill="#263238"/>
<path d="M63.8209 94.4144C63.9253 94.4753 64.3101 93.972 65.0049 93.7728C65.696 93.5639 66.3092 93.7737 66.3601 93.6665C66.3862 93.6179 66.2616 93.4897 65.9918 93.3926C65.7267 93.2946 65.309 93.246 64.8766 93.3734C64.4447 93.5012 64.1269 93.7659 63.9647 93.9889C63.7994 94.2147 63.7705 94.3883 63.8209 94.4144Z" fill="#263238"/>
<path d="M63.6318 100.924C63.6194 100.885 63.1742 100.984 62.4652 101.175C62.2871 101.228 62.1117 101.26 62.0352 101.156C61.944 101.049 61.9399 100.836 61.9408 100.603C61.9312 100.124 61.9211 99.6216 61.9106 99.0954C61.8501 96.9556 61.7315 95.2248 61.6454 95.2275C61.5593 95.2307 61.5382 96.9675 61.5987 99.1073C61.6179 99.633 61.6353 100.135 61.6532 100.614C61.6688 100.835 61.6477 101.1 61.8405 101.321C61.939 101.429 62.1025 101.471 62.2239 101.455C62.3471 101.444 62.4437 101.406 62.5303 101.376C63.2232 101.133 63.6451 100.963 63.6318 100.924Z" fill="#263238"/>
<path d="M62.5422 91.5676C62.6828 91.7224 63.3153 91.3615 64.1383 91.1329C64.9572 90.8879 65.6845 90.8577 65.7212 90.6516C65.7354 90.5545 65.5549 90.429 65.2265 90.358C64.9009 90.2865 64.4273 90.2861 63.935 90.4276C63.4431 90.57 63.0423 90.8219 62.8046 91.056C62.5642 91.2905 62.4781 91.4929 62.5422 91.5676Z" fill="#263238"/>
<path d="M56.2804 94.7136C56.4604 94.8171 56.8561 94.4699 57.4071 94.2345C57.9498 93.9799 58.4719 93.9158 58.5145 93.7124C58.5301 93.6158 58.3936 93.4939 58.1298 93.4349C57.8688 93.3749 57.4827 93.3968 57.1071 93.5649C56.7315 93.7335 56.4581 94.0069 56.3294 94.2419C56.198 94.4782 56.198 94.6609 56.2804 94.7136Z" fill="#263238"/>
<path d="M72.0397 94.3406C72.1007 94.2779 74.6655 92.2261 75.7944 95.2402C76.9234 98.2543 73.6647 98.7658 73.6272 98.6816C73.5901 98.5968 72.0397 94.3406 72.0397 94.3406Z" fill="#F0B8B0"/>
<path d="M74.1204 97.1943C74.1301 97.1797 74.1868 97.2113 74.2908 97.2191C74.392 97.2259 74.551 97.1976 74.6861 97.0803C74.9609 96.844 75.0392 96.238 74.8505 95.6894C74.7552 95.4123 74.6 95.1727 74.4218 94.9927C74.2473 94.8068 74.0467 94.706 73.8759 94.7376C73.7027 94.7605 73.6249 94.8989 73.6198 94.9978C73.6111 95.0972 73.6528 95.1503 73.6386 95.1613C73.6331 95.1718 73.5548 95.1352 73.5328 95.0014C73.5227 94.9369 73.5314 94.8526 73.5805 94.7683C73.6308 94.6822 73.7261 94.6126 73.842 94.5828C74.0806 94.5118 74.3696 94.6474 74.5656 94.8448C74.7745 95.0385 74.9558 95.3056 75.0621 95.6165C75.2705 96.2312 75.1725 96.9159 74.7836 97.2049C74.5922 97.3395 74.3916 97.3418 74.2734 97.3052C74.153 97.2653 74.1122 97.204 74.1204 97.1943Z" fill="#7A4A45"/>
<path d="M53.0112 90.9254C52.9045 90.2957 53.1046 89.5689 53.6533 89.2414C53.1793 88.7866 53.0735 87.9956 53.4115 87.4318C53.7495 86.8685 54.4974 86.5896 55.1217 86.7938C54.7118 85.9016 55.5252 84.7122 56.5053 84.7708C56.2566 84.2579 56.4096 83.5828 56.8547 83.2269C57.2999 82.8711 57.9924 82.8711 58.4376 83.2269C58.6203 81.9038 60.3035 81.045 61.4819 81.6743C62.4941 80.7615 64.224 80.8055 65.1885 81.7691C66.1815 81.4206 67.375 81.7535 68.0437 82.566C68.6886 82.3608 69.4374 82.5248 69.938 82.9801C70.4386 83.4358 70.6717 84.1658 70.5279 84.8272C71.4301 84.8799 72.0764 86.007 71.666 86.8122C72.1964 86.847 72.6915 87.2083 72.8861 87.703C73.0812 88.1971 72.9663 88.799 72.6026 89.1869C73.0629 89.0609 73.476 89.5675 73.5191 90.0424C73.5621 90.5178 73.3849 90.9864 73.3789 91.4636C73.3739 91.8566 73.4847 92.2427 73.504 92.6356C73.5392 93.3739 73.2255 94.1186 72.6786 94.6146C72.7167 94.6339 72.7551 94.6527 72.7931 94.6719C73.0281 95.0209 72.6045 95.5022 72.1836 95.4986C71.7631 95.4949 71.4063 95.2087 71.0637 94.9645C70.6712 94.6847 70.2421 94.4342 69.9563 94.0458C69.6705 93.6579 69.5725 93.0762 69.8835 92.708C69.2995 92.7497 68.7527 92.3622 68.4362 91.8698C68.1197 91.3775 67.9896 90.7917 67.8655 90.2201C67.6819 89.376 67.4987 88.5324 67.315 87.6883C66.2259 88.106 64.9096 87.8518 64.0536 87.0595C63.5283 87.9713 62.1066 88.1866 61.3349 87.4712C61.4293 88.679 60.4116 89.8629 59.2034 89.9513C59.5748 90.5183 58.7051 91.5456 58.1665 91.9573C57.6278 92.3691 56.6926 92.2541 56.6926 92.2541C56.6926 92.2541 55.9049 93.2988 55.2412 93.3061C54.5895 93.3135 53.5402 92.9068 53.6657 92.1666C53.6666 92.1666 53.1179 91.5552 53.0112 90.9254Z" fill="#263238"/>
<path d="M71.8144 86.7411C71.7814 86.7425 71.8524 86.9655 71.6779 87.2467C71.5914 87.3805 71.4366 87.5147 71.2273 87.5348C71.0225 87.5591 70.7656 87.468 70.6314 87.266L70.5224 87.1025L70.4349 87.2811C70.3094 87.538 70.0026 87.7501 69.6714 87.7464C69.2982 87.7428 68.9702 87.456 68.8837 87.1474L68.8319 86.9637L68.6982 87.0974C68.5292 87.2669 68.2956 87.3438 68.0945 87.3411C67.8912 87.3402 67.719 87.2605 67.5967 87.1703C67.3498 86.982 67.2944 86.7842 67.266 86.797C67.2481 86.7956 67.2536 87.0223 67.5101 87.2733C67.6365 87.3924 67.8353 87.5087 68.0867 87.527C68.3336 87.5458 68.6258 87.4689 68.8544 87.2568L68.6693 87.2069C68.7719 87.6109 69.1704 87.9786 69.6696 87.9887C70.1061 87.9905 70.4839 87.7194 70.6406 87.3786L70.4445 87.3938C70.6502 87.6768 70.9873 87.7698 71.2547 87.7244C71.5332 87.6791 71.7182 87.484 71.8002 87.3154C71.9665 86.9545 71.8268 86.7242 71.8144 86.7411Z" fill="#455A64"/>
<path d="M73.4371 89.4057C73.4147 89.3943 73.3652 89.533 73.1705 89.6617C72.9924 89.7845 72.599 89.8926 72.2921 89.6521L72.1909 89.5729L72.1446 89.6942C72.0512 89.9393 71.7961 90.1756 71.4741 90.2191C71.1604 90.2677 70.783 90.0803 70.6314 89.7538L70.5421 89.5619L70.4207 89.7378C70.3919 89.7799 70.3543 89.8211 70.3103 89.8564C70.1125 90.0171 69.8157 90.0364 69.627 89.9036C69.4296 89.7744 69.3275 89.5257 69.3586 89.3214L69.3934 89.0915L69.1965 89.2106C68.9546 89.3567 68.6698 89.381 68.4417 89.326C68.2109 89.272 68.0359 89.1401 67.9196 89.01C67.686 88.7411 67.6677 88.5108 67.6374 88.519C67.6223 88.514 67.5894 88.7622 67.8188 89.0911C67.9329 89.2491 68.1243 89.419 68.395 89.4996C68.6611 89.5797 68.9995 89.5692 69.3064 89.3975L69.1443 89.2862C69.0939 89.5779 69.2198 89.9086 69.4951 90.0987C69.7754 90.2961 70.1848 90.2695 70.4619 90.0451C70.5247 89.9947 70.5796 89.9347 70.6218 89.872L70.4115 89.8555C70.6181 90.2874 71.094 90.5118 71.5071 90.4422C71.9216 90.373 72.2193 90.0707 72.3219 89.7575L72.1744 89.7996C72.3782 89.9498 72.615 89.9741 72.7991 89.9429C72.9873 89.9145 73.133 89.8307 73.2333 89.7465C73.4366 89.5692 73.4499 89.4057 73.4371 89.4057Z" fill="#455A64"/>
<path d="M56.8602 84.5249C56.8795 84.5346 56.907 84.3674 57.1158 84.1938C57.2189 84.1114 57.3732 84.0335 57.5601 84.0395C57.7437 84.0431 57.9631 84.132 58.0987 84.3207L58.2086 84.4741L58.2352 84.285C58.2823 83.947 58.5292 83.5627 58.9396 83.3928C59.3376 83.2206 59.9096 83.3341 60.2293 83.7349L60.3667 83.9071L60.4244 83.6937C60.5297 83.3035 60.8403 82.9448 61.2493 82.7758C61.6537 82.5995 62.1616 82.6632 62.5477 82.9325C62.7052 83.0397 62.8362 83.1798 62.9338 83.336L63.0039 83.4482L63.1092 83.3703C63.6244 82.9907 64.3861 83.0552 64.801 83.4491C65.2297 83.843 65.3346 84.4741 65.1638 84.9257L65.0997 85.0952L65.2751 85.0567C65.696 84.9642 66.1095 85.0713 66.4018 85.2587C66.6995 85.4455 66.8776 85.713 66.9752 85.9447C67.168 86.4211 67.0837 86.7316 67.1162 86.7298C67.1245 86.7311 67.1506 86.6601 67.1629 86.5182C67.1739 86.3771 67.1689 86.1618 67.0787 85.9049C66.9907 85.6516 66.8112 85.3484 66.4883 85.1277C66.1718 84.9083 65.718 84.7723 65.2339 84.8662L65.3451 84.9967C65.5545 84.4746 65.4528 83.7573 64.9545 83.2838C64.4589 82.8107 63.5883 82.7264 62.9645 83.1771L63.1394 83.2114C63.0235 83.0241 62.8687 82.8597 62.6846 82.7342C62.2372 82.4204 61.6363 82.3462 61.1572 82.5583C60.68 82.7607 60.3278 83.1757 60.2082 83.6383L60.4029 83.597C60.004 83.1157 59.3366 83.0021 58.8631 83.2164C58.3854 83.4303 58.1229 83.8773 58.0836 84.2676L58.22 84.2318C58.0396 84.0033 57.7758 83.9153 57.5587 83.9222C57.3361 83.9286 57.1657 84.0321 57.0604 84.1338C56.9528 84.2373 56.9019 84.3422 56.8772 84.4132C56.8543 84.4837 56.8543 84.5236 56.8602 84.5249Z" fill="#455A64"/>
<path d="M65.62 100.195C65.5087 100.233 65.8059 100.96 65.3965 101.73C64.9888 102.502 64.1818 102.739 64.2176 102.843C64.2263 102.892 64.4479 102.913 64.7781 102.788C65.1029 102.667 65.5284 102.371 65.7789 101.9C66.0276 101.428 66.0175 100.94 65.9195 100.632C65.8228 100.317 65.668 100.17 65.62 100.195Z" fill="#263238"/>
<path d="M61.1581 113.386L57.528 123.607L58.3666 134.783L60.6781 154.087C60.6781 154.087 69.1823 151.216 69.5647 151.502C69.9467 151.789 65.8027 131.93 65.8027 131.93L68.8008 115.774L68.6075 111.016L61.1581 113.386Z" fill="#2B8761"/>
<path d="M61.1581 113.386L57.1653 122.551L48.94 125.787L40.2793 128.451L41.5122 134.657C41.7646 135.929 43.0401 136.722 44.2923 136.386L51.5896 134.428L58.3877 134.116L61.9221 125.9L61.1581 113.386Z" fill="#2B8761"/>
<path d="M43.1207 125.9L43.7253 125.15C43.7253 125.15 44.8437 125.145 45.4483 125.525C46.0528 125.906 46.9899 127.296 47.1108 128.022C47.2317 128.747 47.1108 130.138 47.1108 130.138L42.9696 125.9" fill="#F0B8B0"/>
<path d="M35.0828 121.449C35.0828 121.574 42.856 129.823 42.856 129.823L44.3193 131.267H49.0207L39.9509 121.199L36.04 120.533L35.0828 121.449Z" fill="#263238"/>
<path d="M66.6605 139.773C66.6532 139.777 66.5918 139.678 66.4824 139.485C66.3656 139.27 66.2117 138.987 66.0193 138.633C65.6259 137.888 65.0685 136.804 64.4195 135.445C63.7756 134.084 63.0176 132.455 62.3562 130.569C62.1982 130.094 62.0398 129.606 61.9298 129.088C61.8561 128.836 61.8488 128.559 61.808 128.29C61.7989 128.023 61.7883 127.754 61.7874 127.483C61.7746 126.397 61.8025 125.275 61.8447 124.126C61.8982 122.673 61.9738 121.265 62.0599 119.927L62.0645 119.857L62.1286 119.829C62.9649 119.462 63.7701 119.108 64.54 118.771L64.5702 118.978C63.9272 118.895 63.3089 118.815 62.7167 118.738L62.5646 118.718L62.6411 118.587C63.8296 116.541 64.8212 114.834 65.5302 113.612C65.8741 113.034 66.1494 112.571 66.3514 112.23C66.4407 112.086 66.5144 111.967 66.5744 111.87C66.6262 111.79 66.6555 111.749 66.6601 111.752C66.6647 111.755 66.645 111.8 66.6019 111.886C66.5488 111.987 66.4842 112.11 66.4054 112.261C66.2149 112.608 65.9561 113.08 65.6328 113.671C64.9416 114.902 63.9753 116.624 62.8175 118.688L62.7419 118.536C63.3345 118.608 63.9537 118.684 64.5972 118.762L64.987 118.809L64.6275 118.969C63.8594 119.31 63.0556 119.668 62.2216 120.039L62.2903 119.941C62.2092 121.276 62.1364 122.683 62.0828 124.134C62.0407 125.28 62.0118 126.4 62.021 127.479C62.0214 127.749 62.0311 128.016 62.0388 128.279C62.0787 128.535 62.081 128.791 62.1529 129.04C62.2569 129.543 62.4112 130.027 62.5642 130.497C63.2081 132.371 63.9492 134.005 64.572 135.372C65.2004 136.738 65.734 137.832 66.1018 138.589C66.2772 138.951 66.4178 139.241 66.5245 139.461C66.6202 139.663 66.6674 139.769 66.6605 139.773Z" fill="#263238"/>
<path d="M39.6742 125.9C39.6742 125.9 38.4954 126.752 38.5256 127.236C38.5558 127.72 38.8274 128.233 39.0995 128.324C39.372 128.415 40.1881 128.838 40.1881 128.838C40.1881 128.838 39.4627 129.533 39.6742 130.259C39.8858 130.984 40.3695 131.166 40.3695 131.166C40.3695 131.166 40.3997 132.103 40.6718 132.647C40.9438 133.191 41.8204 133.372 41.8204 133.372C41.8204 133.372 42.3041 134.358 42.7273 134.848C43.1505 135.337 43.9969 135.488 43.9969 135.488C43.9969 135.488 45.0851 135.609 45.6594 135.216C46.2337 134.823 46.8685 134.43 46.8987 133.1C46.8987 133.1 49.4983 131.8 49.5286 131.135C49.5588 130.47 49.2565 130.259 49.2565 130.259L47.9567 130.501C47.9567 130.501 47.7754 129.805 47.3824 129.745C46.9894 129.684 42.2432 130.833 42.2432 130.833C42.2432 130.833 45.4776 130.319 45.5683 129.684C45.6589 129.05 45.6892 128.505 45.2055 128.385C44.7219 128.264 41.2763 128.633 41.2763 128.633L41.0959 128.022C41.0959 128.022 42.0311 128.052 42.0311 127.236C42.0311 126.42 41.5172 126.238 41.5172 126.238L39.6742 125.9Z" fill="#F0B8B0"/>
<path d="M66.6605 111.753L67.0581 114.909L64.6142 128.632L67.0915 140.484L79.9334 144.278L84.9846 142.102L83.2617 108.837L78.672 105.614L76.9092 104.43L70.2929 114.441L66.6605 111.753Z" fill="#FAFAFA"/>
<path d="M78.2965 105.361L81.5057 106.794L92.8737 108.323L99.0059 140.576L99.7762 144.279L111.531 161.87C112.07 162.677 111.812 163.772 110.97 164.254L101.339 169.756C100.599 170.134 99.6942 169.896 99.2353 169.205L86.9989 150.765L80.9323 143.001C80.9323 143.001 77.3022 132.015 76.8245 127.334C76.3468 122.653 76.552 117.639 76.8245 115.01C77.1167 112.197 78.2965 105.361 78.2965 105.361Z" fill="#2B8761"/>
<path d="M92.8737 108.323C94.3732 109.11 95.4307 110.538 95.7454 112.202C96.4685 116.03 98.6504 122.709 99.4684 129.839C100.613 139.815 97.9319 142.893 96.6655 144.613C95.4266 146.296 87.5591 149.993 87.5591 149.993L81.6655 142.139L88.1929 136.791L87.62 122.939C87.62 122.939 85.3272 119.786 86.4736 115.106C87.6195 110.424 90.9634 108.036 92.8737 108.323Z" fill="#2B8761"/>
<g opacity="0.3">
<path d="M98.9559 140.311C98.0624 142.732 97.042 144.774 94.9603 145.925C92.7464 147.151 89.6627 148.882 87.5591 149.993L89.1007 152.382C91.5144 152.012 95.9643 149.198 97.4166 147.235C98.8689 145.273 99.3072 142.727 98.9559 140.311Z" fill="black"/>
</g>
<path d="M87.4601 123.674C87.4643 123.674 87.4789 123.744 87.5027 123.881C87.5275 124.029 87.5609 124.232 87.6039 124.492C87.6891 125.042 87.8119 125.832 87.9694 126.845C88.2781 128.904 88.7219 131.865 89.2711 135.526L89.2779 135.572L89.2427 135.603C87.0722 137.516 84.5294 139.758 81.7365 142.219L81.7516 142.074C83.5667 144.488 85.5613 147.14 87.653 149.922L87.5069 149.887C89.4671 148.899 91.4933 147.829 93.5021 146.641C94.0723 146.298 94.637 145.953 95.1793 145.585C95.7243 145.223 96.2547 144.835 96.6989 144.392C97.5068 143.42 98.1183 142.267 98.5634 141.111C99.4574 138.772 99.6823 136.323 99.6626 134.028C99.6301 131.722 99.3562 129.541 99.0384 127.513C98.7219 125.485 98.3564 123.605 97.9951 121.896C97.2728 118.476 96.5798 115.733 96.0921 113.84C95.8461 112.904 95.6538 112.172 95.5196 111.663C95.4564 111.422 95.4069 111.234 95.3707 111.096C95.3382 110.968 95.3231 110.902 95.3272 110.901C95.3272 110.901 95.3542 110.964 95.3945 111.089C95.4362 111.226 95.4935 111.412 95.5663 111.649C95.7138 112.143 95.9235 112.873 96.1823 113.816C96.6975 115.702 97.4161 118.441 98.1604 121.86C98.5327 123.569 98.9083 125.449 99.2339 127.482C99.561 129.513 99.8435 131.702 99.8825 134.024C99.9081 136.336 99.6874 138.814 98.7814 141.193C98.3239 142.378 97.7225 143.527 96.872 144.553C96.3976 145.026 95.8631 145.414 95.3121 145.781C94.7643 146.153 94.1969 146.5 93.6239 146.845C91.606 148.038 89.5784 149.108 87.6108 150.097L87.5238 150.14L87.4647 150.062C85.3785 147.276 83.389 144.619 81.579 142.202L81.519 142.122L81.5941 142.057C84.3975 139.607 86.9499 137.376 89.1286 135.472L89.1002 135.549C88.5836 131.884 88.1655 128.919 87.8746 126.858C87.7368 125.841 87.6291 125.048 87.5545 124.497C87.5215 124.236 87.4963 124.032 87.4775 123.883C87.462 123.745 87.456 123.674 87.4601 123.674Z" fill="#263238"/>
<path d="M79.1566 135.508C79.1484 135.507 79.1575 135.397 79.1818 135.189C79.212 134.958 79.2509 134.656 79.2995 134.281C79.4163 133.467 79.5784 132.336 79.7767 130.95C80.1779 128.138 80.8045 124.264 81.4132 119.972C81.6962 117.895 81.966 115.914 82.2119 114.109L82.282 114.227C81.6055 113.968 80.9575 113.718 80.3401 113.482L80.1514 113.409L80.3199 113.3C81.0175 112.848 81.6696 112.426 82.2715 112.036L82.2321 112.125C82.0003 110.504 81.8107 109.18 81.6747 108.232C81.617 107.79 81.5707 107.436 81.5359 107.168C81.5071 106.924 81.4961 106.795 81.5048 106.794C81.5135 106.793 81.5419 106.919 81.5872 107.16C81.6344 107.426 81.6962 107.777 81.7736 108.216C81.9284 109.162 82.1446 110.482 82.4093 112.097L82.4185 112.153L82.3699 112.186C81.7722 112.582 81.1246 113.011 80.4326 113.471L80.4129 113.289C81.0321 113.522 81.6816 113.765 82.3603 114.02L82.4423 114.051L82.4308 114.138C82.1904 115.943 81.9261 117.925 81.6495 120.004C81.0408 124.296 80.3872 128.169 79.9434 130.975C79.7135 132.357 79.5262 133.484 79.3911 134.295C79.3242 134.667 79.2702 134.966 79.229 135.196C79.1896 135.402 79.1648 135.51 79.1566 135.508Z" fill="#263238"/>
<path d="M91.1516 108.755C91.1805 108.794 90.597 109.194 89.8147 110.008C89.4204 110.411 88.9972 110.934 88.5758 111.547C88.1673 112.169 87.7679 112.885 87.4382 113.678C87.118 114.476 86.9014 115.267 86.758 115.997C86.6293 116.73 86.5657 117.4 86.5652 117.964C86.5542 119.092 86.6902 119.787 86.6426 119.794C86.6266 119.797 86.5858 119.626 86.5267 119.312C86.4942 119.155 86.4617 118.962 86.4457 118.735C86.4269 118.509 86.3912 118.251 86.3967 117.965C86.3756 117.392 86.4228 116.708 86.5418 115.959C86.676 115.212 86.8908 114.402 87.2174 113.588C87.554 112.778 87.9676 112.05 88.3945 111.423C88.8341 110.805 89.2789 110.283 89.6952 109.889C89.8921 109.681 90.0982 109.522 90.27 109.373C90.4403 109.223 90.5984 109.108 90.7316 109.019C90.9932 108.836 91.142 108.742 91.1516 108.755Z" fill="#263238"/>
<path d="M58.3167 134.121C58.2507 134.126 58.0405 131.903 57.8463 129.157C57.6521 126.41 57.5482 124.18 57.6141 124.176C57.6796 124.171 57.8903 126.393 58.0845 129.14C58.2787 131.886 58.3826 134.116 58.3167 134.121Z" fill="#263238"/>
<path d="M97.0369 154.34L98.8011 157.943L106.968 152.716L104.14 149.515L97.0369 154.34Z" fill="#2B8761"/>
<path d="M97.0369 154.34C97.0245 154.336 97.1963 154.208 97.5265 153.972C97.886 153.719 98.3692 153.378 98.966 152.957C100.247 152.071 102.014 150.849 104.077 149.423L104.157 149.367L104.223 149.441C105.1 150.429 106.057 151.509 107.057 152.637L107.15 152.742L107.032 152.817C106.919 152.889 106.797 152.967 106.675 153.046C103.637 154.974 100.884 156.722 98.8478 158.015L98.7659 158.067L98.7251 157.981C98.203 156.872 97.7752 155.965 97.4638 155.303C97.33 155.011 97.2215 154.773 97.1358 154.585C97.063 154.421 97.0287 154.337 97.0369 154.34C97.0452 154.342 97.0951 154.43 97.183 154.595C97.281 154.782 97.4047 155.018 97.5572 155.31C97.8833 155.951 98.3312 156.83 98.8781 157.905L98.7553 157.871C100.782 156.563 103.523 154.795 106.546 152.844C106.668 152.766 106.79 152.688 106.903 152.616L106.878 152.795C105.882 151.663 104.928 150.58 104.055 149.589L104.201 149.607C102.138 150.983 100.37 152.162 99.0883 153.017C98.4691 153.422 97.9685 153.75 97.5952 153.994C97.4335 154.097 97.2998 154.182 97.1885 154.253C97.0951 154.312 97.0429 154.341 97.0369 154.34Z" fill="#263238"/>
<g opacity="0.3">
<path d="M97.1157 154.501C97.15 154.571 98.9275 160.032 98.9275 160.032L106.544 154.625L105.89 153.406L98.8011 157.943L97.1157 154.501Z" fill="black"/>
</g>
<g opacity="0.3">
<path d="M81.737 108.3L83.0894 112.764L81.737 113.386L83.5433 114.275C83.5433 114.275 80.6959 129.846 80.3369 131.268C79.9778 132.689 79.5418 133.145 79.5418 133.145L82.3218 114.125L80.3772 113.386L82.3218 112.112L81.737 108.3Z" fill="black"/>
</g>
<path d="M51.6029 132.632C51.5241 132.634 51.6697 131.157 51.0858 129.474C50.5238 127.782 49.5093 126.7 49.5735 126.653C49.5932 126.634 49.8721 126.875 50.233 127.348C50.5939 127.818 51.0175 128.535 51.3116 129.397C51.6029 130.26 51.7032 131.086 51.7027 131.679C51.7041 132.274 51.6303 132.635 51.6029 132.632Z" fill="#263238"/>
<g opacity="0.3">
<path d="M57.5624 123.735C56.2044 127.121 56.6944 130.838 58.2837 134.121C58.0387 130.343 57.8935 127.398 57.5624 123.735Z" fill="black"/>
</g>
<path d="M77.3251 108.183C77.3388 108.192 77.2522 108.351 77.0837 108.631C76.89 108.956 76.6532 109.353 76.3747 109.819C75.7821 110.825 74.9902 112.23 74.2084 113.829C73.6789 114.905 73.2246 115.932 72.8554 116.806L72.8023 116.932L72.6974 116.848C71.9463 116.247 71.3747 115.686 70.9941 115.276C70.614 114.866 70.4212 114.611 70.4363 114.598C70.4537 114.582 70.6767 114.809 71.0793 115.192C71.4819 115.574 72.0686 116.109 72.8238 116.686L72.6658 116.728C73.0171 115.843 73.4627 114.806 73.9945 113.724C74.7799 112.117 75.5998 110.718 76.2314 109.731C76.5478 109.238 76.8148 108.847 77.0063 108.581C77.1986 108.315 77.3113 108.173 77.3251 108.183Z" fill="#263238"/>
<path d="M69.8042 114.511C69.8647 114.534 69.5249 115.57 69.0412 116.841L68.9803 117.001L68.8516 116.889C68.8328 116.873 68.8127 116.855 68.7921 116.837C67.729 115.911 67.0466 114.988 67.0961 114.95C67.1492 114.905 67.9031 115.747 68.9492 116.658C68.9693 116.675 68.989 116.693 69.0078 116.709L68.8186 116.757C69.3059 115.486 69.7438 114.488 69.8042 114.511Z" fill="#263238"/>
<path d="M71.148 137.938C71.1398 137.938 71.1279 137.861 71.1123 137.714C71.0972 137.539 71.0784 137.326 71.0559 137.069C71.0161 136.471 70.9621 135.669 70.897 134.694C70.7752 132.689 70.6305 129.917 70.5096 126.853C70.3919 123.788 70.3222 121.011 70.3222 119.001C70.3204 117.995 70.3346 117.182 70.3543 116.62C70.3671 116.362 70.3781 116.149 70.3873 115.973C70.3973 115.825 70.4065 115.748 70.4148 115.748C70.423 115.749 70.4299 115.826 70.4354 115.974C70.4386 116.149 70.4427 116.363 70.4473 116.621C70.4583 117.219 70.4734 118.023 70.4912 118.998C70.5347 121.006 70.6305 123.779 70.7486 126.843C70.8718 129.888 70.9836 132.644 71.0665 134.686C71.1008 135.662 71.1288 136.465 71.1498 137.064C71.1544 137.321 71.1581 137.535 71.1613 137.711C71.1604 137.86 71.1563 137.937 71.148 137.938Z" fill="#263238"/>
<path d="M44.3348 199.787L45.5201 210.97C45.5201 210.97 34.551 215.931 34.5688 218.02L56.3358 216.5L55.2036 198.999L44.3348 199.787Z" fill="#2B8761"/>
<path d="M52.185 209.558C52.6141 209.643 52.9384 210.097 52.8706 210.529C52.8024 210.961 52.3444 211.295 51.9134 211.217C51.4829 211.139 51.0766 210.607 51.193 210.185C51.3088 209.763 51.8685 209.401 52.2679 209.58" fill="#E0E0E0"/>
<path d="M56.383 216.956L56.2754 215.26L35.3512 216.855C35.3512 216.855 34.4118 217.344 34.5689 218.019L56.383 216.956Z" fill="#E0E0E0"/>
<path d="M45.1597 210.884C45.1707 210.991 45.7057 211.001 46.252 211.307C46.8071 211.597 47.1085 212.039 47.2033 211.99C47.3 211.963 47.0971 211.339 46.4284 210.98C45.7634 210.617 45.1299 210.788 45.1597 210.884Z" fill="#263238"/>
<path d="M42.9425 211.988C42.9256 212.093 43.3982 212.241 43.7908 212.666C44.1956 213.079 44.3207 213.559 44.426 213.547C44.5272 213.556 44.557 212.929 44.0591 212.41C43.5663 211.887 42.938 211.886 42.9425 211.988Z" fill="#263238"/>
<path d="M41.8369 214.811C41.9349 214.827 42.0458 214.285 41.7325 213.723C41.4229 213.157 40.9058 212.962 40.8669 213.054C40.8128 213.146 41.1573 213.436 41.4078 213.902C41.6688 214.362 41.7302 214.808 41.8369 214.811Z" fill="#263238"/>
<path d="M45.1725 208.306C45.2238 208.4 45.7011 208.219 46.3047 208.218C46.9084 208.205 47.3897 208.374 47.4392 208.278C47.4955 208.197 47.0114 207.835 46.3006 207.847C45.5893 207.853 45.1144 208.226 45.1725 208.306Z" fill="#263238"/>
<path d="M40.4588 154.66L30.3778 159.645C30.3778 159.645 21.9249 151.073 19.9725 151.813L28.9364 171.706L44.9623 164.583L40.4588 154.66Z" fill="#2B8761"/>
<path d="M34.0115 165.408C34.0798 165.841 33.767 166.302 33.3378 166.388C32.9087 166.474 32.4369 166.159 32.3614 165.728C32.2853 165.298 32.6444 164.732 33.0804 164.695C33.5164 164.658 34.05 165.057 34.0202 165.494" fill="#E0E0E0"/>
<path d="M28.5243 171.909L30.0778 171.221L21.336 152.144C21.336 152.144 20.5514 151.432 19.973 151.813L28.5243 171.909Z" fill="#E0E0E0"/>
<path d="M30.3338 159.277C30.2381 159.325 30.413 159.83 30.3159 160.449C30.2349 161.07 29.9253 161.506 30.004 161.578C30.0636 161.659 30.5788 161.253 30.6828 160.501C30.7941 159.752 30.4135 159.216 30.3338 159.277Z" fill="#263238"/>
<path d="M28.5307 157.58C28.4267 157.6 28.451 158.095 28.1885 158.61C27.9417 159.133 27.535 159.416 27.5826 159.511C27.6087 159.609 28.2078 159.42 28.5215 158.774C28.8412 158.13 28.6241 157.54 28.5307 157.58Z" fill="#263238"/>
<path d="M25.4996 157.52C25.5188 157.618 26.0648 157.535 26.4843 157.045C26.9075 156.559 26.9112 156.007 26.8113 156.002C26.7069 155.983 26.5544 156.406 26.2036 156.803C25.8628 157.207 25.4657 157.419 25.4996 157.52Z" fill="#263238"/>
<path d="M32.7575 158.396C32.6875 158.477 33.0223 158.862 33.232 159.428C33.4537 159.99 33.4619 160.5 33.5677 160.513C33.6635 160.538 33.8352 159.958 33.5783 159.295C33.3268 158.631 32.812 158.314 32.7575 158.396Z" fill="#263238"/>
<path d="M45.3805 161.001C45.3805 161.001 41.7705 161.737 41.035 165.613C40.2994 169.49 42.9691 208.509 42.9691 208.509L56.6619 207.412L55.8256 181.12L55.4885 175.82L56.6619 174.92L80.7298 170.685L77.0677 160.734L73.0428 153.73L54.606 158.328L45.3805 161.001Z" fill="#263238"/>
<path d="M90.6968 154.427C90.6968 154.427 80.739 140.032 77.8284 137.938C75.4271 136.21 71.819 136.213 69.5894 137.216C67.3599 138.22 32.4672 155.515 32.4672 155.515L37.5826 168.321L70.7715 156.819L75.7184 164.583L80.3227 170.685L93.2557 170.786C93.8685 170.786 96.6449 165.3 96.6449 165.3L90.6968 154.427Z" fill="#263238"/>
<path d="M40.9072 168.623C40.9031 168.623 40.9008 168.578 40.9008 168.488C40.9021 168.386 40.9035 168.256 40.9054 168.093C40.9095 167.913 40.915 167.699 40.9205 167.45C40.9429 167.196 40.9828 166.905 41.0208 166.576C41.0441 166.245 41.1586 165.891 41.236 165.495C41.2745 165.296 41.3597 165.102 41.4238 164.893C41.4907 164.683 41.5635 164.467 41.6711 164.256C42.0485 163.397 42.6632 162.463 43.6277 161.746C44.1086 161.391 44.6687 161.089 45.3109 160.921C45.947 160.814 46.6088 160.701 47.2935 160.585C48.6616 160.356 50.1226 160.112 51.6587 159.855C54.736 159.346 58.1161 158.786 61.6642 158.198C64.8757 157.672 67.9493 157.169 70.7532 156.709L70.8256 156.698L70.865 156.759C73.526 160.915 75.6877 164.529 77.5046 166.892C78.3867 168.075 79.0897 169.019 79.5835 169.681C79.8184 169.995 80.003 170.241 80.139 170.422C80.1953 170.5 80.2411 170.563 80.2792 170.616C80.3098 170.66 80.3245 170.683 80.3218 170.685C80.3195 170.687 80.2998 170.667 80.264 170.627C80.2219 170.578 80.1715 170.519 80.1092 170.445C79.9668 170.269 79.7722 170.03 79.5253 169.726C79.0206 169.093 78.2905 168.164 77.3938 166.973C75.5425 164.629 73.3473 161.019 70.6763 156.879L70.7885 156.929C67.9855 157.393 64.9133 157.902 61.7027 158.433C58.1536 159.015 54.7727 159.568 51.6945 160.072C50.1565 160.321 48.695 160.558 47.3256 160.781C46.6436 160.891 45.9846 160.998 45.3507 161.101C44.7452 161.254 44.1933 161.543 43.7262 161.883C42.7845 162.569 42.1736 163.473 41.7911 164.312C41.6826 164.517 41.6075 164.729 41.5388 164.934C41.4728 165.139 41.3853 165.329 41.3441 165.525C41.2617 165.915 41.1412 166.262 41.111 166.591C41.0657 166.914 41.0249 167.202 40.9896 167.455C40.975 167.704 40.9621 167.917 40.9516 168.095C40.9402 168.257 40.9305 168.387 40.9232 168.489C40.9173 168.578 40.9113 168.623 40.9072 168.623Z" fill="#455A64"/>
<path d="M75.5237 147.938C75.5402 147.937 75.5581 148.084 75.576 148.351C75.5993 148.617 75.5934 149.006 75.5517 149.484C75.5137 149.963 75.4111 150.527 75.2453 151.14C75.068 151.75 74.8203 152.406 74.4827 153.059C74.1378 153.707 73.7385 154.284 73.3377 154.777C72.9273 155.262 72.5211 155.667 72.1492 155.97C71.7805 156.276 71.4636 156.501 71.2309 156.634C71.001 156.771 70.8705 156.839 70.8618 156.825C70.8375 156.788 71.3399 156.477 72.0379 155.843C72.3892 155.529 72.7748 155.12 73.1669 154.637C73.5498 154.148 73.934 153.581 74.2711 152.947C74.6004 152.309 74.8486 151.671 75.0337 151.078C75.2073 150.481 75.325 149.931 75.3836 149.464C75.5086 148.53 75.4789 147.94 75.5237 147.938Z" fill="#455A64"/>
<path d="M190.942 193.589L131.01 193.554C123.802 193.55 117.962 187.704 117.963 180.496L117.992 30.2454C117.994 23.0333 123.843 17.1888 131.055 17.1929L190.987 17.2281C198.195 17.2327 204.036 23.0777 204.034 30.2857L204.005 180.537C204.004 187.749 198.155 193.594 190.942 193.589Z" fill="#263238"/>
<path d="M190.924 22.5423L179.304 22.5355C177.746 22.5346 176.482 23.855 176.482 25.4836L176.481 27.5913C176.481 29.2204 175.218 30.5404 173.659 30.5395L151.01 30.5262C149.452 30.5253 148.189 29.204 148.189 27.5749L148.19 25.4671C148.19 23.838 146.926 22.5167 145.368 22.5158L141.282 22.513L131.111 22.5071C126.06 22.5043 121.964 26.5975 121.963 31.6483L121.934 178.304C121.933 183.353 126.024 187.446 131.072 187.449L190.884 187.484C195.935 187.487 200.031 183.394 200.032 178.343L200.061 31.6868C200.062 26.6392 195.972 22.5456 190.924 22.5423Z" fill="white"/>
<path d="M200.061 31.6872C200.062 26.6392 195.972 22.5456 190.924 22.5423L179.304 22.5355C177.746 22.5346 176.482 23.855 176.482 25.4836L176.481 27.5913C176.481 29.2204 175.218 30.5404 173.659 30.5395L151.01 30.5262C149.452 30.5253 148.189 29.204 148.189 27.5749L148.19 25.4671C148.19 23.838 146.926 22.5167 145.368 22.5158L141.282 22.513L131.111 22.5071C126.06 22.5043 121.964 26.5975 121.963 31.6483L121.934 45.6723H200.06L200.061 31.6872Z" fill="#F5F5F5"/>
<path d="M193.705 36.8402C193.705 36.8837 192.305 36.9309 190.578 36.9451C188.851 36.9593 187.451 36.9355 187.45 36.8919C187.45 36.848 188.849 36.8013 190.577 36.7871C192.304 36.7729 193.704 36.7967 193.705 36.8402Z" fill="#263238"/>
<path d="M193.718 38.4405C193.718 38.484 192.318 38.5312 190.591 38.5454C188.864 38.5596 187.464 38.5358 187.463 38.4923C187.463 38.4488 188.862 38.4016 190.59 38.3874C192.317 38.3732 193.718 38.397 193.718 38.4405Z" fill="#263238"/>
<path d="M193.731 40.0406C193.731 40.0841 192.331 40.1313 190.604 40.1455C188.877 40.1597 187.477 40.1359 187.476 40.0919C187.476 40.0484 188.876 40.0012 190.603 39.987C192.33 39.9733 193.731 39.9971 193.731 40.0406Z" fill="#263238"/>
<path d="M139.284 147.585L139.599 146.92C140.042 147.321 140.8 147.61 141.566 147.61C142.596 147.61 143.038 147.21 143.038 146.691C143.038 145.235 139.429 146.154 139.429 143.941C139.429 143.022 140.144 142.239 141.71 142.239C142.408 142.239 143.131 142.426 143.626 142.766L143.345 143.447C142.825 143.115 142.238 142.962 141.711 142.962C140.698 142.962 140.264 143.387 140.264 143.907C140.264 145.362 143.873 144.451 143.873 146.639C143.873 147.55 143.141 148.333 141.566 148.333C140.655 148.333 139.761 148.027 139.284 147.585Z" fill="#263238"/>
<path d="M144.578 146.009C144.578 144.664 145.574 143.711 146.962 143.711C147.77 143.711 148.443 144.043 148.801 144.673L148.179 145.073C147.89 144.63 147.447 144.426 146.953 144.426C146.068 144.426 145.404 145.048 145.404 146.009C145.404 146.988 146.068 147.601 146.953 147.601C147.447 147.601 147.89 147.397 148.179 146.954L148.801 147.346C148.443 147.976 147.77 148.316 146.962 148.316C145.574 148.316 144.578 147.355 144.578 146.009Z" fill="#263238"/>
<path d="M153.431 145.541V148.265H152.656V147.669C152.384 148.078 151.882 148.316 151.176 148.316C150.154 148.316 149.507 147.771 149.507 146.988C149.507 146.265 149.975 145.669 151.32 145.669H152.614V145.507C152.614 144.818 152.214 144.418 151.405 144.418C150.869 144.418 150.324 144.605 149.975 144.903L149.635 144.29C150.103 143.916 150.775 143.711 151.499 143.711C152.732 143.711 153.431 144.307 153.431 145.541ZM152.613 146.886V146.256H151.353C150.545 146.256 150.315 146.571 150.315 146.954C150.315 147.405 150.689 147.686 151.311 147.686C151.924 147.686 152.409 147.405 152.613 146.886Z" fill="#263238"/>
<path d="M159.227 145.669V148.265H158.41V145.763C158.41 144.877 157.967 144.443 157.193 144.443C156.325 144.443 155.763 144.962 155.763 145.941V148.265H154.946V143.753H155.729V144.434C156.061 143.975 156.64 143.711 157.355 143.711C158.452 143.711 159.227 144.341 159.227 145.669Z" fill="#263238"/>
<path d="M165.024 145.669V148.265H164.207V145.763C164.207 144.877 163.764 144.443 162.989 144.443C162.121 144.443 161.56 144.962 161.56 145.941V148.265H160.742V143.753H161.526V144.434C161.858 143.975 162.436 143.711 163.152 143.711C164.249 143.711 165.024 144.341 165.024 145.669Z" fill="#263238"/>
<path d="M166.394 142.357C166.394 142.06 166.632 141.821 166.947 141.821C167.263 141.821 167.5 142.051 167.5 142.34C167.5 142.647 167.271 142.885 166.947 142.885C166.632 142.885 166.394 142.656 166.394 142.357ZM166.539 143.753H167.356V148.265H166.539V143.753Z" fill="#263238"/>
<path d="M173.195 145.669V148.265H172.378V145.763C172.378 144.877 171.935 144.443 171.161 144.443C170.293 144.443 169.731 144.962 169.731 145.941V148.265H168.914V143.753H169.697V144.434C170.029 143.975 170.608 143.711 171.323 143.711C172.421 143.711 173.195 144.341 173.195 145.669Z" fill="#263238"/>
<path d="M179.051 143.753V147.652C179.051 149.244 178.242 149.967 176.71 149.967C175.884 149.967 175.05 149.738 174.557 149.295L174.948 148.665C175.365 149.023 176.021 149.252 176.684 149.252C177.748 149.252 178.234 148.759 178.234 147.737V147.38C177.842 147.847 177.255 148.077 176.608 148.077C175.305 148.077 174.318 147.192 174.318 145.89C174.318 144.587 175.305 143.711 176.608 143.711C177.28 143.711 177.893 143.958 178.276 144.451V143.753H179.051ZM178.251 145.89C178.251 145.013 177.604 144.426 176.701 144.426C175.791 144.426 175.144 145.013 175.144 145.89C175.144 146.758 175.791 147.363 176.701 147.363C177.604 147.363 178.251 146.758 178.251 145.89Z" fill="#263238"/>
<path d="M180.225 147.729C180.225 147.389 180.489 147.15 180.804 147.15C181.111 147.15 181.366 147.389 181.366 147.729C181.366 148.069 181.111 148.316 180.804 148.316C180.489 148.316 180.225 148.069 180.225 147.729Z" fill="#263238"/>
<path d="M182.157 147.729C182.157 147.389 182.421 147.15 182.737 147.15C183.043 147.15 183.298 147.389 183.298 147.729C183.298 148.069 183.043 148.316 182.737 148.316C182.421 148.316 182.157 148.069 182.157 147.729Z" fill="#263238"/>
<path d="M184.089 147.729C184.089 147.389 184.353 147.15 184.669 147.15C184.975 147.15 185.231 147.389 185.231 147.729C185.231 148.069 184.975 148.316 184.669 148.316C184.353 148.316 184.089 148.069 184.089 147.729Z" fill="#263238"/>
<path d="M134.717 101.161V103.996H137.553V101.161V98.3254H134.717V101.161Z" fill="#263238"/>
<path d="M137.553 84.1477H134.717V86.9832H137.553V84.1477Z" fill="#263238"/>
<path d="M155.075 115.368H152.24V118.203H155.075V115.368Z" fill="#263238"/>
<path d="M137.553 89.8186V92.6541H134.717V95.49H137.553V98.3255H140.388H143.224V101.161H146.06V98.3255H148.895V95.49V92.6541H146.06V95.49H143.224H140.388V92.6541V89.8186V86.9832H137.553V89.8186Z" fill="#263238"/>
<path d="M143.224 84.1477H140.388V86.9832H143.224H146.06V84.1477H143.224Z" fill="#263238"/>
<path d="M155.984 106.943H157.508V104.107H155.984H154.461V106.943H155.984Z" fill="#263238"/>
<path d="M148.895 86.9832H146.06V89.8186H148.895V86.9832Z" fill="#263238"/>
<path d="M168.744 98.3254H165.909V101.161H168.744V98.3254Z" fill="#263238"/>
<path d="M171.58 67.1343H168.745V69.9698H171.58V67.1343Z" fill="#263238"/>
<path d="M154.566 89.8184V86.983H157.402V84.1475H154.566V81.312H151.731V84.1475H148.895V86.983H151.731V89.8184V92.6539V95.4899V98.3253H154.566V95.4899V92.6539H157.402V89.8184H154.566Z" fill="#263238"/>
<path d="M168.745 118.174H171.58V115.339H168.745H165.909V118.174H168.745Z" fill="#263238"/>
<path d="M165.909 67.1343H163.073V69.9698H165.909V67.1343Z" fill="#263238"/>
<path d="M165.2 89.8187V86.9832H162.364V84.1477H159.529V86.9832V89.8187H156.693V92.6541H159.529H162.364V89.8187H165.2Z" fill="#263238"/>
<path d="M181.205 84.1477H178.369V86.9832H181.205V84.1477Z" fill="#263238"/>
<path d="M151.812 98.3254H148.977V101.161H151.812V98.3254Z" fill="#263238"/>
<path d="M163.073 81.3121V78.4766H165.909V75.6407H168.745H171.58V72.8052H168.745V69.9697H165.909V72.8052H163.073V75.6407H160.238V78.4766H157.402V81.3121H160.238H163.073Z" fill="#263238"/>
<path d="M163.073 101.161V98.3255H165.909V95.49H163.073H160.238V98.3255H157.402V101.161H160.238H163.073Z" fill="#263238"/>
<path d="M171.58 112.502V109.666H168.745H165.909V106.831H163.073V109.666H160.238V112.502H157.402H154.566V115.337H157.402H160.238H163.073V112.502H165.909V115.337H168.745V112.502H171.58Z" fill="#263238"/>
<path d="M160.238 69.9698V67.1343H157.402H154.566V69.9698H151.731V72.8052H154.566H157.402V69.9698H160.238Z" fill="#263238"/>
<path d="M160.238 72.8052H157.402V75.6407H160.238V72.8052Z" fill="#263238"/>
<path d="M167.327 84.1475H164.491V86.983V89.8185V92.654H167.327H170.162V89.8185H167.327V86.983H170.162V84.1475H172.998V81.312H170.162V78.4766H167.327V81.312V84.1475Z" fill="#263238"/>
<path d="M157.402 75.6406H154.566V78.4761H157.402V75.6406Z" fill="#263238"/>
<path d="M165.909 103.996V106.832H168.745H171.58V103.996H174.416H177.251V101.161H174.416H171.58H168.745V103.996H165.909Z" fill="#263238"/>
<path d="M181.205 92.6541H178.369V95.4895H181.205V92.6541Z" fill="#263238"/>
<path d="M171.58 95.49H168.745V98.3255H171.58V95.49Z" fill="#263238"/>
<path d="M178.669 86.9832H175.834H172.998V89.8186H175.834V92.6541H178.669V89.8186V86.9832Z" fill="#263238"/>
<path d="M177.251 95.49H174.416V98.3255H177.251V95.49Z" fill="#263238"/>
<path d="M146.06 112.556H154.57V101.158H143.171V103.996H140.388V106.832H143.171V109.667H140.388V112.503H143.171V112.556H143.224V115.338H140.388V118.174V121.009H143.224V118.174H146.059V115.338L146.06 112.556ZM152.387 103.341V110.43H145.298V103.341H152.387Z" fill="#263238"/>
<path d="M182.922 101.161H185.758V98.3254H182.922H180.087H177.251V101.161H180.087H182.922Z" fill="#263238"/>
<path d="M182.922 89.8187H185.758V86.9832V84.1477H182.922V86.9832V89.8187Z" fill="#263238"/>
<path d="M160.344 104.107H157.508V106.943V109.778H160.344V106.943V104.107Z" fill="#263238"/>
<path d="M188.593 101.161H185.758V103.996H188.593V101.161Z" fill="#263238"/>
<path d="M188.593 95.49V92.6541H185.758V95.49V98.3255H188.593V95.49Z" fill="#263238"/>
<path d="M137.553 115.339H134.717V118.174V121.01H137.553V118.174V115.339Z" fill="#263238"/>
<path d="M188.593 81.3121V67.1343H174.416V81.3121H188.593ZM176.543 79.1852V69.2608H186.467V79.1852H176.543Z" fill="#263238"/>
<path d="M184.34 71.3872H178.669V77.0582H184.34V71.3872Z" fill="#263238"/>
<path d="M188.593 106.832H174.416V121.01H188.593V106.832ZM176.543 118.883V108.959H186.467V118.883H176.543Z" fill="#263238"/>
<path d="M184.34 111.085H178.669V116.757H184.34V111.085Z" fill="#263238"/>
<path d="M134.682 67.1343V81.3121H148.86V67.1343H134.682ZM146.733 69.2608V79.1852H136.809V69.2608H146.733Z" fill="#263238"/>
<path d="M144.607 71.3872H138.935V77.0582H144.607V71.3872Z" fill="#263238"/>
<path d="M130.638 77.0179C130.638 73.6613 130.638 70.3046 130.638 66.9479C130.638 66.009 130.796 65.1205 131.436 64.3813C132.152 63.5555 133.134 63.2372 134.196 63.2372C136.022 63.2372 137.847 63.2372 139.673 63.2372C141.377 63.2372 143.081 63.2372 144.784 63.2372C145.192 63.2372 145.192 62.6038 144.784 62.6038C141.293 62.6038 137.803 62.6038 134.312 62.6038C133.415 62.6038 132.557 62.7361 131.788 63.2418C130.664 63.9801 130.028 65.2148 130.005 66.5485C129.975 68.2051 130.005 69.8654 130.005 71.5224C130.005 73.3539 130.005 75.1855 130.005 77.0175C130.005 77.4256 130.638 77.4265 130.638 77.0179Z" fill="#2B8761"/>
<path d="M143.857 125.798C140.5 125.798 137.144 125.798 133.787 125.798C132.848 125.798 131.959 125.641 131.221 125C130.395 124.284 130.077 123.302 130.077 122.24C130.077 120.415 130.077 118.589 130.077 116.763C130.077 115.059 130.077 113.356 130.077 111.652C130.077 111.245 129.443 111.244 129.443 111.652C129.443 115.143 129.443 118.634 129.443 122.124C129.443 123.021 129.576 123.88 130.081 124.649C130.819 125.772 132.054 126.408 133.388 126.432C135.045 126.461 136.705 126.432 138.362 126.432C140.193 126.432 142.025 126.432 143.857 126.432C144.265 126.432 144.265 125.798 143.857 125.798Z" fill="#2B8761"/>
<path d="M192.333 111.552C192.333 114.908 192.333 118.265 192.333 121.622C192.333 122.561 192.175 123.449 191.534 124.188C190.818 125.014 189.837 125.332 188.775 125.332C186.949 125.332 185.123 125.332 183.298 125.332C181.594 125.332 179.89 125.332 178.187 125.332C177.779 125.332 177.779 125.965 178.187 125.965C181.677 125.965 185.168 125.965 188.658 125.965C189.556 125.965 190.414 125.833 191.183 125.327C192.306 124.589 192.942 123.354 192.966 122.021C192.995 120.363 192.966 118.704 192.966 117.047C192.966 115.215 192.966 113.384 192.966 111.552C192.965 111.144 192.333 111.143 192.333 111.552Z" fill="#2B8761"/>
<path d="M178.369 63.238C181.726 63.238 185.082 63.238 188.439 63.238C189.378 63.238 190.266 63.3955 191.006 64.0363C191.831 64.7521 192.15 65.7336 192.15 66.7957C192.15 68.6213 192.15 70.4474 192.15 72.273C192.15 73.9767 192.15 75.6805 192.15 77.3838C192.15 77.7914 192.783 77.7919 192.783 77.3838C192.783 73.8934 192.783 70.4025 192.783 66.9121C192.783 66.0148 192.651 65.1566 192.145 64.3876C191.407 63.2641 190.172 62.6284 188.838 62.6046C187.181 62.5753 185.522 62.6046 183.865 62.6046C182.033 62.6046 180.201 62.6046 178.369 62.6046C177.962 62.6046 177.961 63.238 178.369 63.238Z" fill="#2B8761"/>
<path d="M184.121 172.706H136.354C132.15 172.706 128.742 169.298 128.742 165.094V163.478C128.742 159.274 132.15 155.866 136.354 155.866H184.121C188.325 155.866 191.733 159.274 191.733 163.478V165.094C191.733 169.298 188.325 172.706 184.121 172.706Z" fill="#EBEBEB"/>
<path d="M185.124 167.454C185.124 167.519 174.321 167.573 160.999 167.573C147.672 167.573 136.872 167.519 136.872 167.454C136.872 167.388 147.672 167.334 160.999 167.334C174.321 167.334 185.124 167.388 185.124 167.454Z" fill="#263238"/>
</svg>
